G04*
G04 #@! TF.GenerationSoftware,Altium Limited,Altium Designer,24.10.1 (45)*
G04*
G04 Layer_Physical_Order=1*
G04 Layer_Color=255*
%FSLAX44Y44*%
%MOMM*%
G71*
G04*
G04 #@! TF.SameCoordinates,BBEB4910-0DF4-4F42-B59A-432F754E4180*
G04*
G04*
G04 #@! TF.FilePolarity,Positive*
G04*
G01*
G75*
%ADD12R,2.1800X1.7155*%
%ADD13R,1.1430X2.0320*%
%ADD16C,2.2000*%
%ADD17C,1.5000*%
%ADD18C,2.5000*%
%ADD19C,1.0000*%
%ADD20C,2.0000*%
%ADD21C,1.9500*%
G04:AMPARAMS|DCode=22|XSize=1.95mm|YSize=1.95mm|CornerRadius=0.4875mm|HoleSize=0mm|Usage=FLASHONLY|Rotation=90.000|XOffset=0mm|YOffset=0mm|HoleType=Round|Shape=RoundedRectangle|*
%AMROUNDEDRECTD22*
21,1,1.9500,0.9750,0,0,90.0*
21,1,0.9750,1.9500,0,0,90.0*
1,1,0.9750,0.4875,0.4875*
1,1,0.9750,0.4875,-0.4875*
1,1,0.9750,-0.4875,-0.4875*
1,1,0.9750,-0.4875,0.4875*
%
%ADD22ROUNDEDRECTD22*%
D12*
X1558290Y331470D02*
D03*
Y370215D02*
D03*
X1501140Y331470D02*
D03*
Y370215D02*
D03*
D13*
X1602105Y311150D02*
D03*
X1628775D02*
D03*
D16*
X1558290Y321855D02*
X1560612Y319533D01*
Y316328D02*
X1565791Y311150D01*
X1560612Y316328D02*
Y319533D01*
X1501140Y311150D02*
X1565791D01*
X1558290Y321855D02*
Y323620D01*
X1565791Y311150D02*
X1602105D01*
D17*
X1558290Y331470D02*
X1560612Y329147D01*
Y325943D02*
Y329147D01*
X1501140Y316230D02*
X1504950Y320040D01*
X1501140Y326390D02*
X1504950Y322580D01*
X1501140Y326390D02*
Y331470D01*
X1504950Y320040D02*
Y322580D01*
X1501140Y311150D02*
Y316230D01*
D18*
X1419860Y311150D02*
X1501140D01*
X1417320Y313690D02*
X1419860Y311150D01*
X1664970Y313690D02*
X1697990D01*
D19*
X1417320Y348690D02*
X1492140D01*
X1493461Y350010D01*
X1696670D01*
X1697990Y348690D01*
X1555750Y392430D02*
X1558290D01*
Y370215D02*
Y392430D01*
X1499870Y370215D02*
Y392430D01*
Y370215D02*
X1501140D01*
D20*
X1693060Y388620D02*
X1697990Y383690D01*
X1499870Y388620D02*
X1693060D01*
X1463040D02*
X1499870D01*
X1458110Y383690D02*
X1463040Y388620D01*
X1417320Y383690D02*
X1458110D01*
X1664970Y311310D02*
Y313690D01*
X1628935Y311310D02*
X1664970D01*
X1628775Y311150D02*
X1628935Y311310D01*
D21*
X1417320Y383690D02*
D03*
Y348690D02*
D03*
X1697990Y383690D02*
D03*
Y348690D02*
D03*
D22*
X1417320Y313690D02*
D03*
X1697990D02*
D03*
M02*
