G04*
G04 #@! TF.GenerationSoftware,Altium Limited,Altium Designer,24.10.1 (45)*
G04*
G04 Layer_Physical_Order=2*
G04 Layer_Color=16711680*
%FSLAX44Y44*%
%MOMM*%
G71*
G04*
G04 #@! TF.SameCoordinates,BBEB4910-0DF4-4F42-B59A-432F754E4180*
G04*
G04*
G04 #@! TF.FilePolarity,Positive*
G04*
G01*
G75*
%ADD21C,1.9500*%
G04:AMPARAMS|DCode=22|XSize=1.95mm|YSize=1.95mm|CornerRadius=0.4875mm|HoleSize=0mm|Usage=FLASHONLY|Rotation=90.000|XOffset=0mm|YOffset=0mm|HoleType=Round|Shape=RoundedRectangle|*
%AMROUNDEDRECTD22*
21,1,1.9500,0.9750,0,0,90.0*
21,1,0.9750,1.9500,0,0,90.0*
1,1,0.9750,0.4875,0.4875*
1,1,0.9750,0.4875,-0.4875*
1,1,0.9750,-0.4875,-0.4875*
1,1,0.9750,-0.4875,0.4875*
%
%ADD22ROUNDEDRECTD22*%
G36*
X1748790Y276860D02*
X1360170D01*
X1358900Y278130D01*
Y430530D01*
X1748790D01*
Y276860D01*
D02*
G37*
%LPC*%
G36*
X1699608Y395980D02*
X1696372D01*
X1693246Y395142D01*
X1690444Y393524D01*
X1688156Y391236D01*
X1686537Y388434D01*
X1685700Y385308D01*
Y382072D01*
X1686537Y378946D01*
X1688156Y376144D01*
X1690444Y373856D01*
X1693246Y372238D01*
X1696372Y371400D01*
X1699608D01*
X1702734Y372238D01*
X1705536Y373856D01*
X1707824Y376144D01*
X1709442Y378946D01*
X1710280Y382072D01*
Y385308D01*
X1709442Y388434D01*
X1707824Y391236D01*
X1705536Y393524D01*
X1702734Y395142D01*
X1699608Y395980D01*
D02*
G37*
G36*
X1418938D02*
X1415702D01*
X1412576Y395142D01*
X1409774Y393524D01*
X1407486Y391236D01*
X1405867Y388434D01*
X1405030Y385308D01*
Y382072D01*
X1405867Y378946D01*
X1407486Y376144D01*
X1409774Y373856D01*
X1412576Y372238D01*
X1415702Y371400D01*
X1418938D01*
X1422064Y372238D01*
X1424866Y373856D01*
X1427154Y376144D01*
X1428772Y378946D01*
X1429610Y382072D01*
Y385308D01*
X1428772Y388434D01*
X1427154Y391236D01*
X1424866Y393524D01*
X1422064Y395142D01*
X1418938Y395980D01*
D02*
G37*
G36*
X1699608Y360980D02*
X1696372D01*
X1693246Y360142D01*
X1690444Y358524D01*
X1688156Y356236D01*
X1686537Y353434D01*
X1685700Y350308D01*
Y347072D01*
X1686537Y343946D01*
X1688156Y341144D01*
X1690444Y338856D01*
X1693246Y337238D01*
X1696372Y336400D01*
X1699608D01*
X1702734Y337238D01*
X1705536Y338856D01*
X1707824Y341144D01*
X1709442Y343946D01*
X1710280Y347072D01*
Y350308D01*
X1709442Y353434D01*
X1707824Y356236D01*
X1705536Y358524D01*
X1702734Y360142D01*
X1699608Y360980D01*
D02*
G37*
G36*
X1418938D02*
X1415702D01*
X1412576Y360142D01*
X1409774Y358524D01*
X1407486Y356236D01*
X1405867Y353434D01*
X1405030Y350308D01*
Y347072D01*
X1405867Y343946D01*
X1407486Y341144D01*
X1409774Y338856D01*
X1412576Y337238D01*
X1415702Y336400D01*
X1418938D01*
X1422064Y337238D01*
X1424866Y338856D01*
X1427154Y341144D01*
X1428772Y343946D01*
X1429610Y347072D01*
Y350308D01*
X1428772Y353434D01*
X1427154Y356236D01*
X1424866Y358524D01*
X1422064Y360142D01*
X1418938Y360980D01*
D02*
G37*
G36*
X1702865Y326044D02*
X1693115D01*
X1691179Y325789D01*
X1689375Y325042D01*
X1687827Y323853D01*
X1686638Y322304D01*
X1685891Y320501D01*
X1685636Y318565D01*
Y308815D01*
X1685891Y306879D01*
X1686638Y305075D01*
X1687827Y303527D01*
X1689375Y302338D01*
X1691179Y301591D01*
X1693115Y301336D01*
X1702865D01*
X1704801Y301591D01*
X1706604Y302338D01*
X1708153Y303527D01*
X1709342Y305075D01*
X1710089Y306879D01*
X1710344Y308815D01*
Y318565D01*
X1710089Y320501D01*
X1709342Y322304D01*
X1708153Y323853D01*
X1706604Y325042D01*
X1704801Y325789D01*
X1702865Y326044D01*
D02*
G37*
G36*
X1422195D02*
X1412445D01*
X1410509Y325789D01*
X1408705Y325042D01*
X1407157Y323853D01*
X1405968Y322304D01*
X1405221Y320501D01*
X1404966Y318565D01*
Y308815D01*
X1405221Y306879D01*
X1405968Y305075D01*
X1407157Y303527D01*
X1408705Y302338D01*
X1410509Y301591D01*
X1412445Y301336D01*
X1422195D01*
X1424131Y301591D01*
X1425934Y302338D01*
X1427483Y303527D01*
X1428672Y305075D01*
X1429419Y306879D01*
X1429674Y308815D01*
Y318565D01*
X1429419Y320501D01*
X1428672Y322304D01*
X1427483Y323853D01*
X1425934Y325042D01*
X1424131Y325789D01*
X1422195Y326044D01*
D02*
G37*
%LPD*%
D21*
X1417320Y383690D02*
D03*
Y348690D02*
D03*
X1697990Y383690D02*
D03*
Y348690D02*
D03*
D22*
X1417320Y313690D02*
D03*
X1697990D02*
D03*
M02*
