G04*
G04 #@! TF.GenerationSoftware,Altium Limited,Altium Designer,24.10.1 (45)*
G04*
G04 Layer_Color=65535*
%FSLAX44Y44*%
%MOMM*%
G71*
G04*
G04 #@! TF.SameCoordinates,BBEB4910-0DF4-4F42-B59A-432F754E4180*
G04*
G04*
G04 #@! TF.FilePolarity,Positive*
G04*
G01*
G75*
%ADD10C,0.2000*%
%ADD11C,0.2540*%
G36*
X1746559Y387988D02*
X1746577Y387960D01*
X1746605Y387932D01*
X1746642Y387886D01*
X1746679Y387840D01*
X1746771Y387710D01*
X1746873Y387535D01*
X1746993Y387331D01*
X1747113Y387100D01*
X1747224Y386823D01*
Y386814D01*
X1747233Y386786D01*
X1747252Y386749D01*
X1747270Y386693D01*
X1747289Y386619D01*
X1747317Y386536D01*
X1747344Y386444D01*
X1747372Y386342D01*
X1747428Y386111D01*
X1747474Y385843D01*
X1747511Y385565D01*
X1747520Y385269D01*
Y385168D01*
X1747511Y385103D01*
Y385011D01*
X1747502Y384909D01*
X1747483Y384798D01*
X1747464Y384669D01*
X1747418Y384400D01*
X1747344Y384104D01*
X1747243Y383799D01*
X1747178Y383661D01*
X1747104Y383513D01*
X1747095Y383503D01*
X1747086Y383485D01*
X1747058Y383439D01*
X1747021Y383393D01*
X1746984Y383328D01*
X1746928Y383263D01*
X1746864Y383180D01*
X1746790Y383097D01*
X1746623Y382912D01*
X1746411Y382727D01*
X1746170Y382551D01*
X1745893Y382394D01*
X1745883D01*
X1745856Y382376D01*
X1745810Y382357D01*
X1745754Y382339D01*
X1745680Y382311D01*
X1745597Y382274D01*
X1745495Y382246D01*
X1745384Y382209D01*
X1745264Y382172D01*
X1745125Y382144D01*
X1744839Y382080D01*
X1744524Y382043D01*
X1744182Y382024D01*
X1744173D01*
X1744136D01*
X1744081D01*
X1744016Y382034D01*
X1743923D01*
X1743822Y382043D01*
X1743711Y382061D01*
X1743581Y382080D01*
X1743313Y382126D01*
X1743008Y382200D01*
X1742703Y382302D01*
X1742555Y382366D01*
X1742407Y382440D01*
X1742398Y382449D01*
X1742370Y382459D01*
X1742333Y382486D01*
X1742278Y382514D01*
X1742213Y382561D01*
X1742139Y382616D01*
X1742056Y382681D01*
X1741963Y382745D01*
X1741871Y382829D01*
X1741769Y382921D01*
X1741667Y383023D01*
X1741566Y383134D01*
X1741473Y383254D01*
X1741372Y383374D01*
X1741205Y383661D01*
Y383670D01*
X1741187Y383688D01*
X1741178Y383725D01*
X1741150Y383772D01*
X1741131Y383836D01*
X1741104Y383901D01*
X1741076Y383993D01*
X1741039Y384086D01*
X1741011Y384188D01*
X1740983Y384308D01*
X1740956Y384437D01*
X1740928Y384567D01*
X1740891Y384863D01*
X1740882Y385196D01*
Y385306D01*
X1740891Y385390D01*
X1740900Y385491D01*
X1740909Y385611D01*
X1740919Y385741D01*
X1740946Y385880D01*
X1741002Y386175D01*
X1741094Y386481D01*
X1741150Y386638D01*
X1741214Y386786D01*
X1741288Y386924D01*
X1741381Y387054D01*
X1741390Y387063D01*
X1741399Y387082D01*
X1741436Y387119D01*
X1741473Y387165D01*
X1741520Y387220D01*
X1741584Y387276D01*
X1741658Y387340D01*
X1741741Y387414D01*
X1741834Y387488D01*
X1741936Y387562D01*
X1742047Y387636D01*
X1742176Y387701D01*
X1742305Y387775D01*
X1742444Y387831D01*
X1742601Y387886D01*
X1742758Y387923D01*
X1742999Y386638D01*
X1742990D01*
X1742980Y386628D01*
X1742925Y386610D01*
X1742842Y386573D01*
X1742731Y386518D01*
X1742611Y386453D01*
X1742490Y386360D01*
X1742370Y386250D01*
X1742259Y386120D01*
X1742250Y386101D01*
X1742213Y386055D01*
X1742167Y385972D01*
X1742121Y385870D01*
X1742065Y385732D01*
X1742028Y385574D01*
X1741991Y385399D01*
X1741982Y385196D01*
Y385112D01*
X1741991Y385057D01*
X1742000Y384983D01*
X1742010Y384900D01*
X1742028Y384807D01*
X1742047Y384706D01*
X1742111Y384493D01*
X1742158Y384382D01*
X1742213Y384271D01*
X1742278Y384160D01*
X1742343Y384049D01*
X1742435Y383947D01*
X1742527Y383846D01*
X1742537Y383836D01*
X1742555Y383827D01*
X1742583Y383799D01*
X1742629Y383772D01*
X1742685Y383735D01*
X1742749Y383688D01*
X1742832Y383642D01*
X1742925Y383605D01*
X1743036Y383559D01*
X1743156Y383513D01*
X1743286Y383466D01*
X1743424Y383430D01*
X1743581Y383402D01*
X1743757Y383374D01*
X1743933Y383365D01*
X1744127Y383356D01*
X1744136D01*
X1744173D01*
X1744238D01*
X1744312Y383365D01*
X1744413Y383374D01*
X1744515Y383383D01*
X1744645Y383402D01*
X1744774Y383420D01*
X1745051Y383476D01*
X1745338Y383568D01*
X1745477Y383624D01*
X1745606Y383688D01*
X1745736Y383772D01*
X1745847Y383855D01*
X1745856Y383864D01*
X1745874Y383883D01*
X1745902Y383910D01*
X1745939Y383947D01*
X1745976Y384003D01*
X1746031Y384058D01*
X1746078Y384132D01*
X1746133Y384215D01*
X1746189Y384308D01*
X1746235Y384400D01*
X1746327Y384632D01*
X1746364Y384761D01*
X1746392Y384890D01*
X1746411Y385038D01*
X1746420Y385186D01*
Y385260D01*
X1746411Y385334D01*
X1746401Y385445D01*
X1746383Y385565D01*
X1746355Y385704D01*
X1746318Y385852D01*
X1746263Y386000D01*
Y386009D01*
X1746253Y386018D01*
X1746235Y386065D01*
X1746198Y386148D01*
X1746152Y386240D01*
X1746096Y386351D01*
X1746031Y386471D01*
X1745957Y386592D01*
X1745874Y386702D01*
X1745051D01*
Y385223D01*
X1743970D01*
Y388006D01*
X1746540D01*
X1746559Y387988D01*
D02*
G37*
G36*
X1747400Y376292D02*
X1741002D01*
Y381035D01*
X1742084D01*
Y377586D01*
X1743498D01*
Y380795D01*
X1744580D01*
Y377586D01*
X1746318D01*
Y381155D01*
X1747400D01*
Y376292D01*
D02*
G37*
G36*
Y373629D02*
X1743184Y371031D01*
X1747400D01*
Y369838D01*
X1741002D01*
Y371087D01*
X1745310Y373731D01*
X1741002D01*
Y374924D01*
X1747400D01*
Y373629D01*
D02*
G37*
G36*
X1744469Y361268D02*
X1744543D01*
X1744635Y361259D01*
X1744737Y361249D01*
X1744950Y361231D01*
X1745172Y361194D01*
X1745403Y361138D01*
X1745625Y361074D01*
X1745634D01*
X1745652Y361064D01*
X1745689Y361046D01*
X1745745Y361027D01*
X1745800Y361009D01*
X1745865Y360972D01*
X1746031Y360898D01*
X1746207Y360806D01*
X1746401Y360685D01*
X1746586Y360547D01*
X1746762Y360390D01*
X1746780Y360371D01*
X1746817Y360325D01*
X1746873Y360251D01*
X1746947Y360149D01*
X1747030Y360020D01*
X1747113Y359872D01*
X1747196Y359687D01*
X1747270Y359483D01*
Y359474D01*
X1747280Y359465D01*
Y359437D01*
X1747289Y359409D01*
X1747307Y359308D01*
X1747335Y359178D01*
X1747363Y359021D01*
X1747381Y358827D01*
X1747391Y358596D01*
X1747400Y358346D01*
Y355924D01*
X1741002D01*
Y358476D01*
X1741011Y358550D01*
X1741020Y358725D01*
X1741030Y358919D01*
X1741057Y359123D01*
X1741085Y359317D01*
X1741131Y359493D01*
Y359502D01*
X1741140Y359520D01*
X1741150Y359548D01*
X1741159Y359585D01*
X1741205Y359696D01*
X1741270Y359826D01*
X1741353Y359973D01*
X1741455Y360140D01*
X1741575Y360297D01*
X1741723Y360454D01*
Y360463D01*
X1741741Y360473D01*
X1741797Y360519D01*
X1741889Y360593D01*
X1742010Y360676D01*
X1742158Y360778D01*
X1742333Y360880D01*
X1742537Y360981D01*
X1742758Y361064D01*
X1742768D01*
X1742786Y361074D01*
X1742823Y361083D01*
X1742870Y361101D01*
X1742925Y361111D01*
X1742999Y361129D01*
X1743082Y361148D01*
X1743175Y361175D01*
X1743276Y361194D01*
X1743396Y361212D01*
X1743517Y361231D01*
X1743655Y361240D01*
X1743942Y361268D01*
X1744265Y361277D01*
X1744275D01*
X1744303D01*
X1744339D01*
X1744395D01*
X1744469Y361268D01*
D02*
G37*
G36*
X1747400Y353261D02*
X1743184Y350663D01*
X1747400D01*
Y349470D01*
X1741002D01*
Y350719D01*
X1745310Y353363D01*
X1741002D01*
Y354556D01*
X1747400D01*
Y353261D01*
D02*
G37*
G36*
X1746559Y348250D02*
X1746577Y348222D01*
X1746605Y348195D01*
X1746642Y348148D01*
X1746679Y348102D01*
X1746771Y347973D01*
X1746873Y347797D01*
X1746993Y347594D01*
X1747113Y347363D01*
X1747224Y347085D01*
Y347076D01*
X1747233Y347048D01*
X1747252Y347011D01*
X1747270Y346956D01*
X1747289Y346882D01*
X1747317Y346799D01*
X1747344Y346706D01*
X1747372Y346604D01*
X1747428Y346373D01*
X1747474Y346105D01*
X1747511Y345828D01*
X1747520Y345532D01*
Y345430D01*
X1747511Y345365D01*
Y345273D01*
X1747502Y345171D01*
X1747483Y345060D01*
X1747464Y344931D01*
X1747418Y344663D01*
X1747344Y344367D01*
X1747243Y344062D01*
X1747178Y343923D01*
X1747104Y343775D01*
X1747095Y343766D01*
X1747086Y343747D01*
X1747058Y343701D01*
X1747021Y343655D01*
X1746984Y343590D01*
X1746928Y343526D01*
X1746864Y343442D01*
X1746790Y343359D01*
X1746623Y343174D01*
X1746411Y342989D01*
X1746170Y342814D01*
X1745893Y342657D01*
X1745883D01*
X1745856Y342638D01*
X1745810Y342620D01*
X1745754Y342601D01*
X1745680Y342573D01*
X1745597Y342536D01*
X1745495Y342509D01*
X1745384Y342472D01*
X1745264Y342435D01*
X1745125Y342407D01*
X1744839Y342342D01*
X1744524Y342305D01*
X1744182Y342287D01*
X1744173D01*
X1744136D01*
X1744081D01*
X1744016Y342296D01*
X1743923D01*
X1743822Y342305D01*
X1743711Y342324D01*
X1743581Y342342D01*
X1743313Y342388D01*
X1743008Y342462D01*
X1742703Y342564D01*
X1742555Y342629D01*
X1742407Y342703D01*
X1742398Y342712D01*
X1742370Y342721D01*
X1742333Y342749D01*
X1742278Y342777D01*
X1742213Y342823D01*
X1742139Y342878D01*
X1742056Y342943D01*
X1741963Y343008D01*
X1741871Y343091D01*
X1741769Y343184D01*
X1741667Y343285D01*
X1741566Y343396D01*
X1741473Y343516D01*
X1741372Y343637D01*
X1741205Y343923D01*
Y343932D01*
X1741187Y343951D01*
X1741178Y343988D01*
X1741150Y344034D01*
X1741131Y344099D01*
X1741104Y344164D01*
X1741076Y344256D01*
X1741039Y344348D01*
X1741011Y344450D01*
X1740983Y344570D01*
X1740956Y344700D01*
X1740928Y344829D01*
X1740891Y345125D01*
X1740882Y345458D01*
Y345569D01*
X1740891Y345652D01*
X1740900Y345754D01*
X1740909Y345874D01*
X1740919Y346003D01*
X1740946Y346142D01*
X1741002Y346438D01*
X1741094Y346743D01*
X1741150Y346900D01*
X1741214Y347048D01*
X1741288Y347187D01*
X1741381Y347316D01*
X1741390Y347326D01*
X1741399Y347344D01*
X1741436Y347381D01*
X1741473Y347427D01*
X1741520Y347483D01*
X1741584Y347538D01*
X1741658Y347603D01*
X1741741Y347677D01*
X1741834Y347751D01*
X1741936Y347825D01*
X1742047Y347899D01*
X1742176Y347963D01*
X1742305Y348037D01*
X1742444Y348093D01*
X1742601Y348148D01*
X1742758Y348185D01*
X1742999Y346900D01*
X1742990D01*
X1742980Y346891D01*
X1742925Y346872D01*
X1742842Y346836D01*
X1742731Y346780D01*
X1742611Y346715D01*
X1742490Y346623D01*
X1742370Y346512D01*
X1742259Y346382D01*
X1742250Y346364D01*
X1742213Y346318D01*
X1742167Y346235D01*
X1742121Y346133D01*
X1742065Y345994D01*
X1742028Y345837D01*
X1741991Y345661D01*
X1741982Y345458D01*
Y345375D01*
X1741991Y345319D01*
X1742000Y345245D01*
X1742010Y345162D01*
X1742028Y345070D01*
X1742047Y344968D01*
X1742111Y344755D01*
X1742158Y344644D01*
X1742213Y344533D01*
X1742278Y344422D01*
X1742343Y344311D01*
X1742435Y344210D01*
X1742527Y344108D01*
X1742537Y344099D01*
X1742555Y344090D01*
X1742583Y344062D01*
X1742629Y344034D01*
X1742685Y343997D01*
X1742749Y343951D01*
X1742832Y343905D01*
X1742925Y343868D01*
X1743036Y343821D01*
X1743156Y343775D01*
X1743286Y343729D01*
X1743424Y343692D01*
X1743581Y343664D01*
X1743757Y343637D01*
X1743933Y343627D01*
X1744127Y343618D01*
X1744136D01*
X1744173D01*
X1744238D01*
X1744312Y343627D01*
X1744413Y343637D01*
X1744515Y343646D01*
X1744645Y343664D01*
X1744774Y343683D01*
X1745051Y343738D01*
X1745338Y343831D01*
X1745477Y343886D01*
X1745606Y343951D01*
X1745736Y344034D01*
X1745847Y344117D01*
X1745856Y344127D01*
X1745874Y344145D01*
X1745902Y344173D01*
X1745939Y344210D01*
X1745976Y344265D01*
X1746031Y344321D01*
X1746078Y344395D01*
X1746133Y344478D01*
X1746189Y344570D01*
X1746235Y344663D01*
X1746327Y344894D01*
X1746364Y345023D01*
X1746392Y345153D01*
X1746411Y345301D01*
X1746420Y345449D01*
Y345523D01*
X1746411Y345597D01*
X1746401Y345708D01*
X1746383Y345828D01*
X1746355Y345966D01*
X1746318Y346114D01*
X1746263Y346262D01*
Y346272D01*
X1746253Y346281D01*
X1746235Y346327D01*
X1746198Y346410D01*
X1746152Y346503D01*
X1746096Y346614D01*
X1746031Y346734D01*
X1745957Y346854D01*
X1745874Y346965D01*
X1745051D01*
Y345486D01*
X1743970D01*
Y348269D01*
X1746540D01*
X1746559Y348250D01*
D02*
G37*
G36*
X1745680Y331460D02*
X1745745Y331451D01*
X1745874Y331432D01*
X1746041Y331395D01*
X1746216Y331340D01*
X1746392Y331257D01*
X1746577Y331155D01*
X1746586D01*
X1746595Y331136D01*
X1746651Y331100D01*
X1746743Y331026D01*
X1746845Y330933D01*
X1746965Y330813D01*
X1747076Y330656D01*
X1747187Y330489D01*
X1747289Y330286D01*
Y330277D01*
X1747298Y330258D01*
X1747307Y330230D01*
X1747326Y330184D01*
X1747344Y330129D01*
X1747363Y330064D01*
X1747381Y329990D01*
X1747400Y329907D01*
X1747428Y329805D01*
X1747446Y329703D01*
X1747483Y329463D01*
X1747511Y329195D01*
X1747520Y328899D01*
Y328779D01*
X1747511Y328696D01*
X1747502Y328594D01*
X1747492Y328483D01*
X1747474Y328354D01*
X1747446Y328215D01*
X1747381Y327910D01*
X1747335Y327753D01*
X1747289Y327605D01*
X1747224Y327448D01*
X1747150Y327299D01*
X1747067Y327161D01*
X1746965Y327031D01*
X1746956Y327022D01*
X1746938Y327004D01*
X1746910Y326967D01*
X1746864Y326930D01*
X1746799Y326874D01*
X1746725Y326819D01*
X1746642Y326754D01*
X1746549Y326689D01*
X1746438Y326625D01*
X1746318Y326560D01*
X1746179Y326495D01*
X1746031Y326430D01*
X1745874Y326384D01*
X1745699Y326329D01*
X1745514Y326292D01*
X1745320Y326264D01*
X1745199Y327521D01*
X1745209D01*
X1745227Y327531D01*
X1745264D01*
X1745301Y327540D01*
X1745412Y327577D01*
X1745551Y327623D01*
X1745708Y327679D01*
X1745865Y327762D01*
X1746004Y327854D01*
X1746133Y327975D01*
X1746142Y327993D01*
X1746179Y328039D01*
X1746226Y328113D01*
X1746281Y328224D01*
X1746337Y328363D01*
X1746383Y328520D01*
X1746420Y328705D01*
X1746429Y328918D01*
Y329019D01*
X1746411Y329130D01*
X1746392Y329269D01*
X1746364Y329417D01*
X1746318Y329574D01*
X1746253Y329722D01*
X1746170Y329851D01*
X1746161Y329870D01*
X1746124Y329907D01*
X1746068Y329953D01*
X1745995Y330018D01*
X1745902Y330073D01*
X1745791Y330129D01*
X1745680Y330166D01*
X1745551Y330175D01*
X1745541D01*
X1745514D01*
X1745468Y330166D01*
X1745412Y330156D01*
X1745356Y330138D01*
X1745292Y330119D01*
X1745227Y330082D01*
X1745162Y330036D01*
X1745153Y330027D01*
X1745135Y330009D01*
X1745107Y329981D01*
X1745070Y329935D01*
X1745024Y329870D01*
X1744978Y329787D01*
X1744931Y329694D01*
X1744885Y329574D01*
Y329565D01*
X1744866Y329528D01*
X1744848Y329463D01*
X1744830Y329417D01*
X1744820Y329361D01*
X1744802Y329297D01*
X1744774Y329223D01*
X1744756Y329139D01*
X1744728Y329047D01*
X1744700Y328936D01*
X1744672Y328816D01*
X1744635Y328686D01*
X1744598Y328538D01*
Y328529D01*
X1744589Y328492D01*
X1744571Y328437D01*
X1744552Y328372D01*
X1744524Y328289D01*
X1744497Y328187D01*
X1744460Y328085D01*
X1744423Y327965D01*
X1744330Y327725D01*
X1744219Y327494D01*
X1744164Y327374D01*
X1744099Y327272D01*
X1744034Y327170D01*
X1743970Y327087D01*
X1743960Y327078D01*
X1743942Y327059D01*
X1743914Y327031D01*
X1743877Y326994D01*
X1743822Y326948D01*
X1743757Y326902D01*
X1743692Y326847D01*
X1743609Y326800D01*
X1743415Y326689D01*
X1743193Y326597D01*
X1743073Y326560D01*
X1742953Y326532D01*
X1742814Y326514D01*
X1742675Y326504D01*
X1742666D01*
X1742657D01*
X1742629D01*
X1742592D01*
X1742500Y326523D01*
X1742379Y326541D01*
X1742241Y326569D01*
X1742084Y326615D01*
X1741917Y326680D01*
X1741760Y326772D01*
X1741751D01*
X1741741Y326782D01*
X1741686Y326828D01*
X1741612Y326884D01*
X1741520Y326976D01*
X1741418Y327087D01*
X1741307Y327226D01*
X1741205Y327383D01*
X1741113Y327568D01*
Y327577D01*
X1741104Y327595D01*
X1741094Y327623D01*
X1741076Y327660D01*
X1741057Y327716D01*
X1741039Y327771D01*
X1741020Y327845D01*
X1740993Y327928D01*
X1740956Y328113D01*
X1740919Y328326D01*
X1740891Y328566D01*
X1740882Y328834D01*
Y328945D01*
X1740891Y329029D01*
X1740900Y329130D01*
X1740909Y329250D01*
X1740928Y329370D01*
X1740946Y329509D01*
X1741011Y329805D01*
X1741057Y329953D01*
X1741104Y330101D01*
X1741168Y330249D01*
X1741242Y330388D01*
X1741325Y330517D01*
X1741418Y330637D01*
X1741427Y330646D01*
X1741446Y330665D01*
X1741473Y330693D01*
X1741510Y330730D01*
X1741566Y330776D01*
X1741631Y330831D01*
X1741705Y330887D01*
X1741788Y330951D01*
X1741889Y331007D01*
X1741991Y331063D01*
X1742111Y331118D01*
X1742241Y331164D01*
X1742370Y331210D01*
X1742518Y331247D01*
X1742666Y331275D01*
X1742832Y331284D01*
X1742879Y329990D01*
X1742870D01*
X1742860D01*
X1742796Y329972D01*
X1742712Y329953D01*
X1742611Y329916D01*
X1742490Y329870D01*
X1742379Y329805D01*
X1742269Y329722D01*
X1742176Y329629D01*
X1742167Y329620D01*
X1742139Y329583D01*
X1742102Y329519D01*
X1742065Y329426D01*
X1742028Y329315D01*
X1741991Y329176D01*
X1741963Y329010D01*
X1741954Y328816D01*
Y328723D01*
X1741963Y328622D01*
X1741982Y328502D01*
X1742010Y328363D01*
X1742056Y328215D01*
X1742111Y328076D01*
X1742195Y327947D01*
X1742204Y327938D01*
X1742222Y327919D01*
X1742250Y327882D01*
X1742296Y327845D01*
X1742352Y327808D01*
X1742426Y327771D01*
X1742500Y327753D01*
X1742592Y327743D01*
X1742601D01*
X1742629D01*
X1742675Y327753D01*
X1742722Y327771D01*
X1742786Y327789D01*
X1742851Y327817D01*
X1742916Y327864D01*
X1742980Y327928D01*
X1742990Y327938D01*
X1743017Y327984D01*
X1743036Y328011D01*
X1743054Y328058D01*
X1743082Y328104D01*
X1743110Y328169D01*
X1743138Y328243D01*
X1743175Y328326D01*
X1743212Y328428D01*
X1743248Y328529D01*
X1743286Y328659D01*
X1743322Y328797D01*
X1743360Y328945D01*
X1743406Y329112D01*
Y329121D01*
X1743415Y329158D01*
X1743424Y329204D01*
X1743443Y329269D01*
X1743461Y329343D01*
X1743489Y329435D01*
X1743517Y329537D01*
X1743544Y329639D01*
X1743618Y329861D01*
X1743692Y330092D01*
X1743775Y330314D01*
X1743822Y330406D01*
X1743868Y330499D01*
Y330508D01*
X1743877Y330517D01*
X1743914Y330573D01*
X1743970Y330656D01*
X1744044Y330757D01*
X1744136Y330868D01*
X1744247Y330989D01*
X1744377Y331109D01*
X1744524Y331210D01*
X1744543Y331220D01*
X1744598Y331247D01*
X1744682Y331294D01*
X1744802Y331340D01*
X1744950Y331386D01*
X1745125Y331432D01*
X1745320Y331460D01*
X1745541Y331469D01*
X1745551D01*
X1745569D01*
X1745597D01*
X1745634D01*
X1745680Y331460D01*
D02*
G37*
G36*
X1744358Y325580D02*
X1744469D01*
X1744598Y325561D01*
X1744746Y325543D01*
X1744922Y325515D01*
X1745098Y325487D01*
X1745292Y325441D01*
X1745495Y325386D01*
X1745699Y325312D01*
X1745902Y325229D01*
X1746096Y325136D01*
X1746290Y325016D01*
X1746475Y324886D01*
X1746651Y324739D01*
X1746660Y324729D01*
X1746688Y324701D01*
X1746734Y324655D01*
X1746790Y324581D01*
X1746854Y324498D01*
X1746928Y324396D01*
X1747002Y324276D01*
X1747086Y324147D01*
X1747169Y323990D01*
X1747243Y323823D01*
X1747317Y323638D01*
X1747381Y323435D01*
X1747437Y323222D01*
X1747483Y322991D01*
X1747511Y322751D01*
X1747520Y322492D01*
Y322427D01*
X1747511Y322353D01*
X1747502Y322261D01*
X1747492Y322141D01*
X1747474Y322002D01*
X1747446Y321845D01*
X1747409Y321678D01*
X1747363Y321493D01*
X1747307Y321318D01*
X1747233Y321124D01*
X1747150Y320939D01*
X1747058Y320744D01*
X1746938Y320569D01*
X1746808Y320393D01*
X1746651Y320227D01*
X1746642Y320217D01*
X1746614Y320190D01*
X1746559Y320153D01*
X1746494Y320097D01*
X1746401Y320033D01*
X1746290Y319958D01*
X1746170Y319885D01*
X1746022Y319811D01*
X1745865Y319727D01*
X1745680Y319653D01*
X1745486Y319579D01*
X1745273Y319515D01*
X1745042Y319459D01*
X1744792Y319422D01*
X1744524Y319394D01*
X1744247Y319385D01*
X1744238D01*
X1744201D01*
X1744155D01*
X1744081Y319394D01*
X1743997D01*
X1743905Y319404D01*
X1743794Y319413D01*
X1743674Y319422D01*
X1743415Y319459D01*
X1743138Y319506D01*
X1742860Y319579D01*
X1742601Y319672D01*
X1742592D01*
X1742583Y319681D01*
X1742555Y319700D01*
X1742518Y319709D01*
X1742426Y319764D01*
X1742305Y319829D01*
X1742167Y319912D01*
X1742028Y320014D01*
X1741871Y320134D01*
X1741723Y320264D01*
X1741714Y320273D01*
X1741705Y320282D01*
X1741658Y320328D01*
X1741584Y320412D01*
X1741501Y320513D01*
X1741409Y320633D01*
X1741307Y320772D01*
X1741214Y320929D01*
X1741140Y321096D01*
Y321105D01*
X1741131Y321124D01*
X1741113Y321160D01*
X1741104Y321207D01*
X1741076Y321262D01*
X1741057Y321327D01*
X1741039Y321410D01*
X1741011Y321493D01*
X1740965Y321697D01*
X1740919Y321928D01*
X1740891Y322196D01*
X1740882Y322473D01*
Y322538D01*
X1740891Y322612D01*
Y322705D01*
X1740909Y322825D01*
X1740928Y322963D01*
X1740956Y323120D01*
X1740993Y323287D01*
X1741039Y323463D01*
X1741094Y323647D01*
X1741168Y323832D01*
X1741252Y324027D01*
X1741353Y324212D01*
X1741473Y324396D01*
X1741612Y324572D01*
X1741769Y324739D01*
X1741779Y324748D01*
X1741806Y324776D01*
X1741862Y324822D01*
X1741926Y324868D01*
X1742019Y324933D01*
X1742130Y325007D01*
X1742259Y325081D01*
X1742407Y325164D01*
X1742564Y325247D01*
X1742749Y325321D01*
X1742953Y325395D01*
X1743165Y325460D01*
X1743406Y325515D01*
X1743655Y325552D01*
X1743923Y325580D01*
X1744210Y325589D01*
X1744229D01*
X1744275D01*
X1744358Y325580D01*
D02*
G37*
G36*
X1743119Y318581D02*
X1743184D01*
X1743313Y318562D01*
X1743470Y318535D01*
X1743646Y318498D01*
X1743813Y318442D01*
X1743970Y318368D01*
X1743988Y318359D01*
X1744034Y318331D01*
X1744108Y318285D01*
X1744201Y318220D01*
X1744293Y318146D01*
X1744404Y318045D01*
X1744506Y317943D01*
X1744598Y317823D01*
X1744608Y317804D01*
X1744635Y317767D01*
X1744672Y317703D01*
X1744719Y317619D01*
X1744774Y317518D01*
X1744820Y317407D01*
X1744866Y317286D01*
X1744904Y317157D01*
Y317139D01*
X1744913Y317111D01*
Y317074D01*
X1744922Y317028D01*
X1744931Y316963D01*
X1744940Y316898D01*
Y316815D01*
X1744950Y316732D01*
X1744959Y316630D01*
X1744968Y316519D01*
X1744978Y316399D01*
Y316269D01*
X1744987Y316131D01*
Y314984D01*
X1747400D01*
Y313690D01*
X1741002D01*
Y316048D01*
X1741011Y316149D01*
Y316390D01*
X1741030Y316649D01*
X1741048Y316908D01*
X1741057Y317018D01*
X1741067Y317129D01*
X1741085Y317222D01*
X1741104Y317296D01*
Y317305D01*
X1741113Y317323D01*
X1741122Y317351D01*
X1741131Y317388D01*
X1741178Y317490D01*
X1741233Y317619D01*
X1741316Y317758D01*
X1741427Y317915D01*
X1741566Y318063D01*
X1741732Y318211D01*
X1741741D01*
X1741751Y318230D01*
X1741779Y318248D01*
X1741815Y318267D01*
X1741871Y318304D01*
X1741926Y318331D01*
X1741991Y318368D01*
X1742065Y318405D01*
X1742250Y318470D01*
X1742453Y318535D01*
X1742703Y318572D01*
X1742971Y318590D01*
X1742980D01*
X1742999D01*
X1743027D01*
X1743073D01*
X1743119Y318581D01*
D02*
G37*
G36*
X1364870Y391151D02*
X1364953D01*
X1365055Y391142D01*
X1365157Y391123D01*
X1365277Y391114D01*
X1365406Y391086D01*
X1365545Y391068D01*
X1365841Y390994D01*
X1366146Y390901D01*
X1366451Y390772D01*
X1366460Y390762D01*
X1366488Y390753D01*
X1366525Y390735D01*
X1366581Y390698D01*
X1366655Y390661D01*
X1366729Y390615D01*
X1366904Y390485D01*
X1367108Y390328D01*
X1367302Y390134D01*
X1367496Y389912D01*
X1367579Y389782D01*
X1367662Y389653D01*
X1367672Y389644D01*
X1367681Y389616D01*
X1367699Y389579D01*
X1367727Y389524D01*
X1367755Y389450D01*
X1367792Y389366D01*
X1367829Y389274D01*
X1367866Y389163D01*
X1367903Y389043D01*
X1367930Y388913D01*
X1367967Y388775D01*
X1367995Y388627D01*
X1368041Y388303D01*
X1368060Y388137D01*
Y387841D01*
X1368051Y387785D01*
Y387711D01*
X1368032Y387536D01*
X1368004Y387342D01*
X1367958Y387138D01*
X1367903Y386916D01*
X1367829Y386704D01*
Y386694D01*
X1367820Y386676D01*
X1367810Y386648D01*
X1367792Y386611D01*
X1367736Y386510D01*
X1367672Y386380D01*
X1367579Y386241D01*
X1367468Y386093D01*
X1367348Y385955D01*
X1367200Y385825D01*
X1367182Y385807D01*
X1367126Y385770D01*
X1367043Y385714D01*
X1366923Y385640D01*
X1366775Y385566D01*
X1366590Y385483D01*
X1366386Y385400D01*
X1366155Y385335D01*
X1365952Y386103D01*
X1365961D01*
X1365970Y386112D01*
X1365998Y386121D01*
X1366035Y386130D01*
X1366118Y386158D01*
X1366229Y386195D01*
X1366359Y386251D01*
X1366479Y386315D01*
X1366608Y386380D01*
X1366719Y386463D01*
X1366729Y386473D01*
X1366765Y386500D01*
X1366812Y386556D01*
X1366876Y386620D01*
X1366950Y386704D01*
X1367024Y386815D01*
X1367098Y386935D01*
X1367163Y387073D01*
X1367172Y387092D01*
X1367191Y387138D01*
X1367218Y387221D01*
X1367256Y387332D01*
X1367283Y387462D01*
X1367311Y387610D01*
X1367329Y387776D01*
X1367339Y387952D01*
Y388054D01*
X1367329Y388100D01*
Y388155D01*
X1367320Y388294D01*
X1367292Y388451D01*
X1367265Y388627D01*
X1367218Y388793D01*
X1367154Y388960D01*
X1367144Y388978D01*
X1367126Y389034D01*
X1367080Y389108D01*
X1367034Y389200D01*
X1366960Y389311D01*
X1366886Y389431D01*
X1366793Y389542D01*
X1366691Y389644D01*
X1366682Y389653D01*
X1366645Y389690D01*
X1366581Y389736D01*
X1366507Y389792D01*
X1366414Y389856D01*
X1366303Y389921D01*
X1366183Y389986D01*
X1366054Y390051D01*
X1366044D01*
X1366026Y390060D01*
X1365998Y390069D01*
X1365952Y390088D01*
X1365896Y390106D01*
X1365832Y390125D01*
X1365758Y390152D01*
X1365674Y390171D01*
X1365480Y390217D01*
X1365258Y390254D01*
X1365027Y390282D01*
X1364768Y390291D01*
X1364759D01*
X1364731D01*
X1364685D01*
X1364630Y390282D01*
X1364556D01*
X1364463Y390272D01*
X1364371Y390263D01*
X1364269Y390254D01*
X1364038Y390217D01*
X1363798Y390171D01*
X1363557Y390097D01*
X1363326Y390004D01*
X1363317D01*
X1363298Y389986D01*
X1363271Y389977D01*
X1363234Y389949D01*
X1363132Y389884D01*
X1363002Y389782D01*
X1362864Y389662D01*
X1362725Y389514D01*
X1362596Y389339D01*
X1362475Y389145D01*
Y389135D01*
X1362466Y389117D01*
X1362448Y389089D01*
X1362429Y389043D01*
X1362411Y388997D01*
X1362392Y388932D01*
X1362337Y388784D01*
X1362291Y388599D01*
X1362244Y388396D01*
X1362207Y388174D01*
X1362198Y387943D01*
Y387850D01*
X1362207Y387795D01*
Y387739D01*
X1362226Y387600D01*
X1362244Y387434D01*
X1362281Y387258D01*
X1362337Y387064D01*
X1362401Y386870D01*
Y386861D01*
X1362411Y386842D01*
X1362420Y386824D01*
X1362439Y386787D01*
X1362485Y386685D01*
X1362540Y386574D01*
X1362605Y386445D01*
X1362679Y386306D01*
X1362762Y386177D01*
X1362855Y386066D01*
X1364057D01*
Y387952D01*
X1364815D01*
Y385234D01*
X1362439D01*
X1362429Y385243D01*
X1362420Y385261D01*
X1362392Y385298D01*
X1362355Y385345D01*
X1362318Y385400D01*
X1362272Y385465D01*
X1362217Y385548D01*
X1362161Y385631D01*
X1362041Y385825D01*
X1361911Y386047D01*
X1361791Y386278D01*
X1361690Y386528D01*
Y386537D01*
X1361680Y386556D01*
X1361671Y386593D01*
X1361653Y386639D01*
X1361634Y386704D01*
X1361606Y386778D01*
X1361588Y386861D01*
X1361569Y386944D01*
X1361523Y387147D01*
X1361477Y387379D01*
X1361449Y387628D01*
X1361440Y387887D01*
Y387980D01*
X1361449Y388044D01*
Y388127D01*
X1361458Y388229D01*
X1361477Y388340D01*
X1361486Y388460D01*
X1361542Y388728D01*
X1361606Y389015D01*
X1361708Y389311D01*
X1361764Y389459D01*
X1361838Y389607D01*
X1361847Y389616D01*
X1361856Y389644D01*
X1361884Y389681D01*
X1361911Y389736D01*
X1361958Y389801D01*
X1362004Y389866D01*
X1362133Y390041D01*
X1362300Y390226D01*
X1362503Y390420D01*
X1362734Y390605D01*
X1363002Y390772D01*
X1363012D01*
X1363040Y390790D01*
X1363076Y390809D01*
X1363141Y390836D01*
X1363206Y390864D01*
X1363298Y390892D01*
X1363391Y390929D01*
X1363502Y390966D01*
X1363622Y391003D01*
X1363761Y391040D01*
X1363899Y391068D01*
X1364047Y391095D01*
X1364371Y391142D01*
X1364713Y391160D01*
X1364722D01*
X1364759D01*
X1364805D01*
X1364870Y391151D01*
D02*
G37*
G36*
X1367949Y383126D02*
X1362919Y379769D01*
X1367949D01*
Y378956D01*
X1361551D01*
Y379834D01*
X1366571Y383181D01*
X1361551D01*
Y383995D01*
X1367949D01*
Y383126D01*
D02*
G37*
G36*
Y375073D02*
X1367940Y374906D01*
X1367930Y374721D01*
X1367912Y374536D01*
X1367884Y374352D01*
X1367856Y374194D01*
Y374185D01*
X1367847Y374167D01*
Y374139D01*
X1367829Y374102D01*
X1367801Y374000D01*
X1367755Y373871D01*
X1367690Y373723D01*
X1367607Y373566D01*
X1367514Y373408D01*
X1367394Y373260D01*
X1367385Y373251D01*
X1367376Y373242D01*
X1367348Y373214D01*
X1367320Y373177D01*
X1367228Y373085D01*
X1367098Y372974D01*
X1366941Y372854D01*
X1366756Y372724D01*
X1366544Y372604D01*
X1366303Y372502D01*
X1366294D01*
X1366275Y372493D01*
X1366239Y372475D01*
X1366183Y372465D01*
X1366118Y372438D01*
X1366044Y372419D01*
X1365961Y372401D01*
X1365859Y372373D01*
X1365758Y372345D01*
X1365638Y372327D01*
X1365379Y372281D01*
X1365092Y372253D01*
X1364778Y372243D01*
X1364768D01*
X1364750D01*
X1364704D01*
X1364657D01*
X1364593Y372253D01*
X1364519D01*
X1364343Y372262D01*
X1364140Y372290D01*
X1363927Y372318D01*
X1363705Y372364D01*
X1363483Y372419D01*
X1363474D01*
X1363456Y372428D01*
X1363428Y372438D01*
X1363391Y372447D01*
X1363289Y372484D01*
X1363160Y372539D01*
X1363012Y372595D01*
X1362864Y372669D01*
X1362707Y372761D01*
X1362559Y372854D01*
X1362540Y372863D01*
X1362494Y372900D01*
X1362429Y372955D01*
X1362346Y373029D01*
X1362254Y373113D01*
X1362161Y373214D01*
X1362059Y373316D01*
X1361976Y373436D01*
X1361967Y373455D01*
X1361939Y373492D01*
X1361902Y373556D01*
X1361856Y373649D01*
X1361801Y373760D01*
X1361754Y373889D01*
X1361699Y374037D01*
X1361653Y374204D01*
Y374222D01*
X1361643Y374250D01*
X1361634Y374277D01*
X1361625Y374370D01*
X1361606Y374499D01*
X1361588Y374647D01*
X1361569Y374823D01*
X1361560Y375017D01*
X1361551Y375230D01*
Y377532D01*
X1367949D01*
Y375073D01*
D02*
G37*
G36*
X1364963Y356396D02*
X1365055D01*
X1365148Y356387D01*
X1365268Y356378D01*
X1365388Y356360D01*
X1365656Y356313D01*
X1365952Y356249D01*
X1366248Y356156D01*
X1366534Y356027D01*
X1366544Y356017D01*
X1366571Y356008D01*
X1366608Y355990D01*
X1366655Y355953D01*
X1366719Y355916D01*
X1366793Y355869D01*
X1366960Y355749D01*
X1367144Y355592D01*
X1367329Y355407D01*
X1367514Y355195D01*
X1367672Y354945D01*
X1367681Y354936D01*
X1367690Y354908D01*
X1367708Y354871D01*
X1367736Y354825D01*
X1367764Y354751D01*
X1367792Y354677D01*
X1367829Y354584D01*
X1367866Y354483D01*
X1367903Y354372D01*
X1367940Y354252D01*
X1367995Y353993D01*
X1368041Y353697D01*
X1368060Y353392D01*
Y353299D01*
X1368051Y353234D01*
X1368041Y353151D01*
X1368032Y353050D01*
X1368023Y352948D01*
X1367995Y352828D01*
X1367940Y352578D01*
X1367856Y352301D01*
X1367801Y352162D01*
X1367736Y352033D01*
X1367653Y351903D01*
X1367570Y351774D01*
X1367561Y351764D01*
X1367551Y351746D01*
X1367524Y351709D01*
X1367477Y351663D01*
X1367431Y351617D01*
X1367366Y351552D01*
X1367292Y351487D01*
X1367218Y351413D01*
X1367126Y351339D01*
X1367015Y351265D01*
X1366904Y351182D01*
X1366784Y351108D01*
X1366645Y351043D01*
X1366507Y350969D01*
X1366359Y350914D01*
X1366192Y350858D01*
X1365998Y351690D01*
X1366007D01*
X1366026Y351700D01*
X1366063Y351718D01*
X1366109Y351737D01*
X1366165Y351755D01*
X1366239Y351783D01*
X1366386Y351857D01*
X1366553Y351949D01*
X1366719Y352060D01*
X1366876Y352199D01*
X1367015Y352347D01*
X1367034Y352365D01*
X1367071Y352421D01*
X1367117Y352513D01*
X1367182Y352634D01*
X1367237Y352791D01*
X1367292Y352966D01*
X1367329Y353179D01*
X1367339Y353410D01*
Y353484D01*
X1367329Y353530D01*
Y353595D01*
X1367320Y353669D01*
X1367292Y353845D01*
X1367256Y354039D01*
X1367191Y354242D01*
X1367098Y354455D01*
X1366978Y354649D01*
Y354658D01*
X1366960Y354668D01*
X1366913Y354732D01*
X1366839Y354815D01*
X1366729Y354917D01*
X1366590Y355037D01*
X1366433Y355148D01*
X1366239Y355250D01*
X1366026Y355342D01*
X1366017D01*
X1365998Y355352D01*
X1365970Y355361D01*
X1365924Y355370D01*
X1365869Y355389D01*
X1365804Y355407D01*
X1365647Y355435D01*
X1365462Y355472D01*
X1365258Y355509D01*
X1365036Y355527D01*
X1364796Y355537D01*
X1364787D01*
X1364759D01*
X1364713D01*
X1364657D01*
X1364593Y355527D01*
X1364509D01*
X1364417Y355518D01*
X1364315Y355509D01*
X1364093Y355481D01*
X1363853Y355435D01*
X1363613Y355379D01*
X1363372Y355306D01*
X1363363D01*
X1363345Y355296D01*
X1363317Y355278D01*
X1363271Y355259D01*
X1363160Y355204D01*
X1363030Y355121D01*
X1362882Y355019D01*
X1362725Y354889D01*
X1362587Y354742D01*
X1362457Y354566D01*
Y354557D01*
X1362448Y354538D01*
X1362429Y354510D01*
X1362411Y354473D01*
X1362392Y354427D01*
X1362365Y354372D01*
X1362309Y354242D01*
X1362254Y354076D01*
X1362207Y353891D01*
X1362170Y353688D01*
X1362161Y353475D01*
Y353410D01*
X1362170Y353355D01*
Y353290D01*
X1362180Y353225D01*
X1362217Y353059D01*
X1362263Y352865D01*
X1362337Y352671D01*
X1362439Y352467D01*
X1362494Y352365D01*
X1362568Y352273D01*
X1362577Y352264D01*
X1362587Y352254D01*
X1362614Y352227D01*
X1362642Y352190D01*
X1362688Y352153D01*
X1362744Y352107D01*
X1362799Y352051D01*
X1362873Y352005D01*
X1362956Y351949D01*
X1363049Y351885D01*
X1363141Y351829D01*
X1363252Y351774D01*
X1363372Y351727D01*
X1363502Y351681D01*
X1363640Y351635D01*
X1363788Y351598D01*
X1363576Y350747D01*
X1363566D01*
X1363530Y350757D01*
X1363474Y350775D01*
X1363400Y350803D01*
X1363317Y350831D01*
X1363215Y350868D01*
X1363104Y350914D01*
X1362984Y350969D01*
X1362725Y351099D01*
X1362466Y351265D01*
X1362337Y351367D01*
X1362207Y351469D01*
X1362096Y351580D01*
X1361985Y351709D01*
X1361976Y351718D01*
X1361958Y351737D01*
X1361939Y351783D01*
X1361902Y351829D01*
X1361856Y351903D01*
X1361810Y351977D01*
X1361764Y352079D01*
X1361717Y352181D01*
X1361662Y352301D01*
X1361616Y352430D01*
X1361569Y352569D01*
X1361523Y352717D01*
X1361486Y352874D01*
X1361468Y353040D01*
X1361449Y353216D01*
X1361440Y353401D01*
Y353503D01*
X1361449Y353577D01*
Y353660D01*
X1361458Y353761D01*
X1361477Y353872D01*
X1361496Y354002D01*
X1361542Y354270D01*
X1361616Y354547D01*
X1361717Y354825D01*
X1361782Y354954D01*
X1361856Y355084D01*
X1361865Y355093D01*
X1361875Y355111D01*
X1361902Y355148D01*
X1361939Y355185D01*
X1361976Y355241D01*
X1362032Y355306D01*
X1362096Y355379D01*
X1362170Y355453D01*
X1362254Y355527D01*
X1362337Y355611D01*
X1362549Y355777D01*
X1362799Y355934D01*
X1363076Y356073D01*
X1363086D01*
X1363114Y356091D01*
X1363160Y356101D01*
X1363215Y356128D01*
X1363289Y356147D01*
X1363382Y356175D01*
X1363483Y356212D01*
X1363594Y356239D01*
X1363714Y356267D01*
X1363853Y356304D01*
X1364140Y356350D01*
X1364463Y356387D01*
X1364796Y356406D01*
X1364805D01*
X1364842D01*
X1364898D01*
X1364963Y356396D01*
D02*
G37*
G36*
Y349943D02*
X1365055D01*
X1365148Y349934D01*
X1365268Y349925D01*
X1365388Y349906D01*
X1365656Y349860D01*
X1365952Y349795D01*
X1366248Y349703D01*
X1366534Y349573D01*
X1366544Y349564D01*
X1366571Y349555D01*
X1366608Y349536D01*
X1366655Y349499D01*
X1366719Y349462D01*
X1366793Y349416D01*
X1366960Y349296D01*
X1367144Y349139D01*
X1367329Y348954D01*
X1367514Y348741D01*
X1367672Y348492D01*
X1367681Y348482D01*
X1367690Y348455D01*
X1367708Y348418D01*
X1367736Y348371D01*
X1367764Y348297D01*
X1367792Y348223D01*
X1367829Y348131D01*
X1367866Y348029D01*
X1367903Y347918D01*
X1367940Y347798D01*
X1367995Y347539D01*
X1368041Y347243D01*
X1368060Y346938D01*
Y346846D01*
X1368051Y346781D01*
X1368041Y346698D01*
X1368032Y346596D01*
X1368023Y346494D01*
X1367995Y346374D01*
X1367940Y346125D01*
X1367856Y345847D01*
X1367801Y345709D01*
X1367736Y345579D01*
X1367653Y345450D01*
X1367570Y345320D01*
X1367561Y345311D01*
X1367551Y345293D01*
X1367524Y345256D01*
X1367477Y345209D01*
X1367431Y345163D01*
X1367366Y345098D01*
X1367292Y345034D01*
X1367218Y344960D01*
X1367126Y344886D01*
X1367015Y344812D01*
X1366904Y344729D01*
X1366784Y344655D01*
X1366645Y344590D01*
X1366507Y344516D01*
X1366359Y344460D01*
X1366192Y344405D01*
X1365998Y345237D01*
X1366007D01*
X1366026Y345246D01*
X1366063Y345265D01*
X1366109Y345283D01*
X1366165Y345302D01*
X1366239Y345330D01*
X1366386Y345404D01*
X1366553Y345496D01*
X1366719Y345607D01*
X1366876Y345746D01*
X1367015Y345894D01*
X1367034Y345912D01*
X1367071Y345967D01*
X1367117Y346060D01*
X1367182Y346180D01*
X1367237Y346337D01*
X1367292Y346513D01*
X1367329Y346726D01*
X1367339Y346957D01*
Y347031D01*
X1367329Y347077D01*
Y347142D01*
X1367320Y347216D01*
X1367292Y347391D01*
X1367256Y347585D01*
X1367191Y347789D01*
X1367098Y348002D01*
X1366978Y348196D01*
Y348205D01*
X1366960Y348214D01*
X1366913Y348279D01*
X1366839Y348362D01*
X1366729Y348464D01*
X1366590Y348584D01*
X1366433Y348695D01*
X1366239Y348797D01*
X1366026Y348889D01*
X1366017D01*
X1365998Y348898D01*
X1365970Y348908D01*
X1365924Y348917D01*
X1365869Y348935D01*
X1365804Y348954D01*
X1365647Y348982D01*
X1365462Y349019D01*
X1365258Y349055D01*
X1365036Y349074D01*
X1364796Y349083D01*
X1364787D01*
X1364759D01*
X1364713D01*
X1364657D01*
X1364593Y349074D01*
X1364509D01*
X1364417Y349065D01*
X1364315Y349055D01*
X1364093Y349028D01*
X1363853Y348982D01*
X1363613Y348926D01*
X1363372Y348852D01*
X1363363D01*
X1363345Y348843D01*
X1363317Y348824D01*
X1363271Y348806D01*
X1363160Y348750D01*
X1363030Y348667D01*
X1362882Y348565D01*
X1362725Y348436D01*
X1362587Y348288D01*
X1362457Y348112D01*
Y348103D01*
X1362448Y348085D01*
X1362429Y348057D01*
X1362411Y348020D01*
X1362392Y347974D01*
X1362365Y347918D01*
X1362309Y347789D01*
X1362254Y347622D01*
X1362207Y347438D01*
X1362170Y347234D01*
X1362161Y347021D01*
Y346957D01*
X1362170Y346901D01*
Y346837D01*
X1362180Y346772D01*
X1362217Y346605D01*
X1362263Y346411D01*
X1362337Y346217D01*
X1362439Y346014D01*
X1362494Y345912D01*
X1362568Y345820D01*
X1362577Y345810D01*
X1362587Y345801D01*
X1362614Y345773D01*
X1362642Y345736D01*
X1362688Y345699D01*
X1362744Y345653D01*
X1362799Y345598D01*
X1362873Y345551D01*
X1362956Y345496D01*
X1363049Y345431D01*
X1363141Y345376D01*
X1363252Y345320D01*
X1363372Y345274D01*
X1363502Y345228D01*
X1363640Y345182D01*
X1363788Y345145D01*
X1363576Y344294D01*
X1363566D01*
X1363530Y344303D01*
X1363474Y344322D01*
X1363400Y344350D01*
X1363317Y344377D01*
X1363215Y344414D01*
X1363104Y344460D01*
X1362984Y344516D01*
X1362725Y344645D01*
X1362466Y344812D01*
X1362337Y344913D01*
X1362207Y345015D01*
X1362096Y345126D01*
X1361985Y345256D01*
X1361976Y345265D01*
X1361958Y345283D01*
X1361939Y345330D01*
X1361902Y345376D01*
X1361856Y345450D01*
X1361810Y345524D01*
X1361764Y345625D01*
X1361717Y345727D01*
X1361662Y345847D01*
X1361616Y345977D01*
X1361569Y346115D01*
X1361523Y346263D01*
X1361486Y346421D01*
X1361468Y346587D01*
X1361449Y346763D01*
X1361440Y346948D01*
Y347049D01*
X1361449Y347123D01*
Y347206D01*
X1361458Y347308D01*
X1361477Y347419D01*
X1361496Y347548D01*
X1361542Y347817D01*
X1361616Y348094D01*
X1361717Y348371D01*
X1361782Y348501D01*
X1361856Y348630D01*
X1361865Y348639D01*
X1361875Y348658D01*
X1361902Y348695D01*
X1361939Y348732D01*
X1361976Y348787D01*
X1362032Y348852D01*
X1362096Y348926D01*
X1362170Y349000D01*
X1362254Y349074D01*
X1362337Y349157D01*
X1362549Y349324D01*
X1362799Y349481D01*
X1363076Y349619D01*
X1363086D01*
X1363114Y349638D01*
X1363160Y349647D01*
X1363215Y349675D01*
X1363289Y349693D01*
X1363382Y349721D01*
X1363483Y349758D01*
X1363594Y349786D01*
X1363714Y349814D01*
X1363853Y349851D01*
X1364140Y349897D01*
X1364463Y349934D01*
X1364796Y349952D01*
X1364805D01*
X1364842D01*
X1364898D01*
X1364963Y349943D01*
D02*
G37*
G36*
X1367949Y328068D02*
X1363298Y326404D01*
X1363289D01*
X1363271Y326395D01*
X1363243Y326385D01*
X1363206Y326367D01*
X1363150Y326358D01*
X1363095Y326339D01*
X1362956Y326293D01*
X1362799Y326237D01*
X1362623Y326182D01*
X1362254Y326071D01*
X1362263D01*
X1362281Y326062D01*
X1362309Y326053D01*
X1362346Y326043D01*
X1362448Y326016D01*
X1362587Y325969D01*
X1362744Y325923D01*
X1362919Y325868D01*
X1363104Y325803D01*
X1363298Y325729D01*
X1367949Y323991D01*
Y323131D01*
X1361551Y325627D01*
Y326515D01*
X1367949Y328993D01*
Y328068D01*
D02*
G37*
G36*
Y319886D02*
X1367940Y319821D01*
Y319747D01*
X1367921Y319581D01*
X1367903Y319396D01*
X1367866Y319202D01*
X1367820Y319007D01*
X1367755Y318832D01*
Y318822D01*
X1367746Y318813D01*
X1367718Y318758D01*
X1367672Y318675D01*
X1367607Y318582D01*
X1367524Y318471D01*
X1367422Y318351D01*
X1367292Y318240D01*
X1367154Y318138D01*
X1367135Y318129D01*
X1367080Y318101D01*
X1367006Y318055D01*
X1366895Y318009D01*
X1366765Y317963D01*
X1366627Y317916D01*
X1366470Y317889D01*
X1366312Y317879D01*
X1366294D01*
X1366248D01*
X1366165Y317889D01*
X1366063Y317907D01*
X1365943Y317935D01*
X1365813Y317981D01*
X1365684Y318036D01*
X1365545Y318111D01*
X1365527Y318120D01*
X1365490Y318148D01*
X1365416Y318203D01*
X1365342Y318277D01*
X1365249Y318369D01*
X1365148Y318480D01*
X1365055Y318619D01*
X1364963Y318776D01*
Y318767D01*
X1364953Y318748D01*
X1364944Y318721D01*
X1364926Y318684D01*
X1364889Y318573D01*
X1364824Y318443D01*
X1364741Y318305D01*
X1364639Y318148D01*
X1364519Y318009D01*
X1364371Y317879D01*
X1364352Y317870D01*
X1364297Y317833D01*
X1364214Y317778D01*
X1364103Y317722D01*
X1363955Y317667D01*
X1363798Y317611D01*
X1363613Y317574D01*
X1363409Y317565D01*
X1363400D01*
X1363391D01*
X1363335D01*
X1363243Y317574D01*
X1363132Y317593D01*
X1363002Y317611D01*
X1362864Y317648D01*
X1362716Y317694D01*
X1362568Y317759D01*
X1362549Y317768D01*
X1362503Y317796D01*
X1362439Y317833D01*
X1362346Y317889D01*
X1362254Y317963D01*
X1362152Y318036D01*
X1362050Y318129D01*
X1361967Y318231D01*
X1361958Y318240D01*
X1361930Y318277D01*
X1361893Y318342D01*
X1361856Y318425D01*
X1361801Y318527D01*
X1361745Y318647D01*
X1361699Y318776D01*
X1361653Y318933D01*
Y318952D01*
X1361634Y319007D01*
X1361625Y319100D01*
X1361606Y319220D01*
X1361588Y319368D01*
X1361569Y319544D01*
X1361560Y319738D01*
X1361551Y319960D01*
Y322401D01*
X1367949D01*
Y319886D01*
D02*
G37*
G36*
Y315540D02*
X1364251D01*
X1364241D01*
X1364214D01*
X1364167D01*
X1364112D01*
X1364047Y315531D01*
X1363964D01*
X1363788Y315522D01*
X1363585Y315503D01*
X1363382Y315476D01*
X1363187Y315438D01*
X1363104Y315420D01*
X1363021Y315392D01*
X1363002Y315383D01*
X1362956Y315365D01*
X1362892Y315318D01*
X1362799Y315263D01*
X1362707Y315198D01*
X1362605Y315106D01*
X1362503Y314995D01*
X1362420Y314865D01*
X1362411Y314847D01*
X1362383Y314801D01*
X1362355Y314717D01*
X1362318Y314606D01*
X1362272Y314477D01*
X1362244Y314311D01*
X1362217Y314135D01*
X1362207Y313941D01*
Y313848D01*
X1362217Y313793D01*
Y313710D01*
X1362226Y313626D01*
X1362263Y313423D01*
X1362309Y313201D01*
X1362383Y312988D01*
X1362485Y312785D01*
X1362549Y312693D01*
X1362623Y312609D01*
X1362633Y312600D01*
X1362642Y312591D01*
X1362670Y312572D01*
X1362707Y312545D01*
X1362762Y312517D01*
X1362818Y312480D01*
X1362901Y312443D01*
X1362984Y312406D01*
X1363086Y312369D01*
X1363206Y312341D01*
X1363345Y312304D01*
X1363492Y312276D01*
X1363659Y312249D01*
X1363835Y312230D01*
X1364038Y312212D01*
X1364251D01*
X1367949D01*
Y311361D01*
X1364251D01*
X1364241D01*
X1364204D01*
X1364158D01*
X1364093D01*
X1364010Y311371D01*
X1363918D01*
X1363807Y311380D01*
X1363696Y311389D01*
X1363446Y311417D01*
X1363187Y311454D01*
X1362938Y311509D01*
X1362818Y311546D01*
X1362707Y311583D01*
X1362697D01*
X1362679Y311592D01*
X1362651Y311611D01*
X1362614Y311629D01*
X1362513Y311685D01*
X1362383Y311768D01*
X1362235Y311879D01*
X1362087Y312008D01*
X1361930Y312175D01*
X1361791Y312378D01*
Y312388D01*
X1361773Y312406D01*
X1361764Y312434D01*
X1361736Y312480D01*
X1361708Y312535D01*
X1361680Y312609D01*
X1361653Y312683D01*
X1361616Y312776D01*
X1361579Y312878D01*
X1361551Y312988D01*
X1361523Y313109D01*
X1361496Y313247D01*
X1361477Y313386D01*
X1361458Y313534D01*
X1361440Y313867D01*
Y313950D01*
X1361449Y314015D01*
Y314089D01*
X1361458Y314181D01*
X1361468Y314283D01*
X1361477Y314384D01*
X1361514Y314616D01*
X1361569Y314865D01*
X1361643Y315106D01*
X1361745Y315337D01*
Y315346D01*
X1361764Y315365D01*
X1361782Y315392D01*
X1361801Y315429D01*
X1361875Y315531D01*
X1361976Y315651D01*
X1362106Y315790D01*
X1362254Y315919D01*
X1362439Y316049D01*
X1362642Y316150D01*
X1362651D01*
X1362670Y316160D01*
X1362707Y316169D01*
X1362753Y316187D01*
X1362808Y316206D01*
X1362882Y316224D01*
X1362966Y316252D01*
X1363067Y316271D01*
X1363178Y316289D01*
X1363298Y316317D01*
X1363428Y316335D01*
X1363566Y316354D01*
X1363724Y316372D01*
X1363890Y316382D01*
X1364066Y316391D01*
X1364251D01*
X1367949D01*
Y315540D01*
D02*
G37*
G36*
X1363677Y309438D02*
X1363668D01*
X1363659D01*
X1363631Y309429D01*
X1363594D01*
X1363511Y309410D01*
X1363391Y309383D01*
X1363271Y309346D01*
X1363132Y309309D01*
X1363002Y309244D01*
X1362882Y309179D01*
X1362873Y309170D01*
X1362836Y309142D01*
X1362771Y309096D01*
X1362707Y309022D01*
X1362623Y308930D01*
X1362540Y308828D01*
X1362457Y308689D01*
X1362383Y308541D01*
Y308532D01*
X1362374Y308523D01*
X1362365Y308495D01*
X1362355Y308467D01*
X1362328Y308375D01*
X1362291Y308255D01*
X1362254Y308107D01*
X1362226Y307940D01*
X1362207Y307755D01*
X1362198Y307552D01*
Y307469D01*
X1362207Y307376D01*
X1362217Y307265D01*
X1362235Y307136D01*
X1362254Y306988D01*
X1362291Y306840D01*
X1362337Y306701D01*
X1362346Y306683D01*
X1362365Y306637D01*
X1362401Y306572D01*
X1362439Y306489D01*
X1362503Y306406D01*
X1362568Y306313D01*
X1362642Y306221D01*
X1362734Y306147D01*
X1362744Y306138D01*
X1362781Y306119D01*
X1362827Y306091D01*
X1362901Y306054D01*
X1362975Y306017D01*
X1363067Y305989D01*
X1363169Y305971D01*
X1363280Y305962D01*
X1363289D01*
X1363335D01*
X1363391Y305971D01*
X1363465Y305980D01*
X1363539Y306008D01*
X1363631Y306036D01*
X1363724Y306082D01*
X1363807Y306147D01*
X1363816Y306156D01*
X1363844Y306184D01*
X1363881Y306221D01*
X1363936Y306285D01*
X1363992Y306359D01*
X1364057Y306461D01*
X1364121Y306581D01*
X1364177Y306720D01*
X1364186Y306729D01*
X1364195Y306775D01*
X1364223Y306849D01*
X1364232Y306896D01*
X1364251Y306960D01*
X1364278Y307025D01*
X1364297Y307108D01*
X1364325Y307201D01*
X1364352Y307312D01*
X1364380Y307423D01*
X1364417Y307552D01*
X1364454Y307700D01*
X1364491Y307857D01*
Y307866D01*
X1364500Y307894D01*
X1364509Y307940D01*
X1364528Y307996D01*
X1364547Y308070D01*
X1364565Y308153D01*
X1364621Y308338D01*
X1364685Y308541D01*
X1364750Y308754D01*
X1364815Y308939D01*
X1364852Y309022D01*
X1364889Y309096D01*
Y309105D01*
X1364898Y309114D01*
X1364935Y309170D01*
X1364981Y309253D01*
X1365055Y309346D01*
X1365138Y309457D01*
X1365240Y309568D01*
X1365360Y309678D01*
X1365490Y309771D01*
X1365508Y309780D01*
X1365554Y309808D01*
X1365628Y309845D01*
X1365721Y309882D01*
X1365841Y309919D01*
X1365980Y309956D01*
X1366127Y309984D01*
X1366285Y309993D01*
X1366294D01*
X1366303D01*
X1366331D01*
X1366368D01*
X1366460Y309974D01*
X1366581Y309956D01*
X1366719Y309928D01*
X1366876Y309882D01*
X1367034Y309817D01*
X1367191Y309725D01*
X1367200D01*
X1367209Y309715D01*
X1367265Y309669D01*
X1367339Y309605D01*
X1367431Y309521D01*
X1367533Y309410D01*
X1367644Y309272D01*
X1367746Y309105D01*
X1367838Y308920D01*
Y308911D01*
X1367847Y308893D01*
X1367856Y308865D01*
X1367875Y308828D01*
X1367893Y308782D01*
X1367912Y308717D01*
X1367949Y308578D01*
X1367986Y308403D01*
X1368023Y308199D01*
X1368051Y307987D01*
X1368060Y307746D01*
Y307626D01*
X1368051Y307561D01*
Y307497D01*
X1368032Y307321D01*
X1368004Y307127D01*
X1367958Y306923D01*
X1367903Y306701D01*
X1367829Y306498D01*
Y306489D01*
X1367820Y306470D01*
X1367801Y306443D01*
X1367782Y306406D01*
X1367736Y306313D01*
X1367653Y306193D01*
X1367561Y306054D01*
X1367440Y305916D01*
X1367302Y305786D01*
X1367144Y305666D01*
X1367135D01*
X1367126Y305657D01*
X1367098Y305638D01*
X1367071Y305620D01*
X1366978Y305574D01*
X1366858Y305518D01*
X1366710Y305453D01*
X1366534Y305407D01*
X1366349Y305361D01*
X1366146Y305342D01*
X1366081Y306156D01*
X1366091D01*
X1366109D01*
X1366137Y306165D01*
X1366183Y306174D01*
X1366285Y306202D01*
X1366423Y306239D01*
X1366571Y306295D01*
X1366719Y306378D01*
X1366858Y306479D01*
X1366987Y306609D01*
X1366997Y306628D01*
X1367034Y306674D01*
X1367089Y306766D01*
X1367144Y306886D01*
X1367200Y307043D01*
X1367256Y307228D01*
X1367292Y307460D01*
X1367302Y307719D01*
Y307848D01*
X1367292Y307903D01*
X1367283Y307977D01*
X1367265Y308144D01*
X1367228Y308329D01*
X1367182Y308514D01*
X1367108Y308689D01*
X1367061Y308763D01*
X1367015Y308837D01*
X1367006Y308856D01*
X1366969Y308893D01*
X1366904Y308948D01*
X1366830Y309004D01*
X1366729Y309068D01*
X1366617Y309124D01*
X1366488Y309161D01*
X1366340Y309179D01*
X1366322D01*
X1366285D01*
X1366220Y309170D01*
X1366146Y309151D01*
X1366054Y309124D01*
X1365961Y309078D01*
X1365869Y309022D01*
X1365776Y308939D01*
X1365767Y308930D01*
X1365739Y308883D01*
X1365712Y308846D01*
X1365693Y308809D01*
X1365665Y308754D01*
X1365628Y308689D01*
X1365600Y308606D01*
X1365564Y308514D01*
X1365527Y308412D01*
X1365480Y308292D01*
X1365443Y308162D01*
X1365397Y308014D01*
X1365360Y307848D01*
X1365314Y307663D01*
Y307654D01*
X1365305Y307617D01*
X1365295Y307561D01*
X1365277Y307497D01*
X1365258Y307413D01*
X1365231Y307312D01*
X1365203Y307210D01*
X1365175Y307099D01*
X1365110Y306859D01*
X1365046Y306628D01*
X1365009Y306516D01*
X1364972Y306415D01*
X1364944Y306322D01*
X1364907Y306248D01*
Y306239D01*
X1364898Y306221D01*
X1364879Y306193D01*
X1364861Y306156D01*
X1364805Y306054D01*
X1364731Y305934D01*
X1364630Y305795D01*
X1364519Y305657D01*
X1364389Y305527D01*
X1364251Y305416D01*
X1364232Y305407D01*
X1364186Y305370D01*
X1364103Y305333D01*
X1363992Y305278D01*
X1363862Y305231D01*
X1363705Y305185D01*
X1363530Y305157D01*
X1363345Y305148D01*
X1363335D01*
X1363326D01*
X1363298D01*
X1363261D01*
X1363160Y305167D01*
X1363030Y305185D01*
X1362882Y305222D01*
X1362725Y305268D01*
X1362559Y305342D01*
X1362383Y305444D01*
X1362374D01*
X1362365Y305453D01*
X1362309Y305499D01*
X1362226Y305564D01*
X1362133Y305657D01*
X1362023Y305777D01*
X1361902Y305925D01*
X1361791Y306091D01*
X1361690Y306285D01*
Y306295D01*
X1361680Y306313D01*
X1361671Y306341D01*
X1361653Y306378D01*
X1361634Y306433D01*
X1361606Y306498D01*
X1361569Y306646D01*
X1361523Y306822D01*
X1361477Y307034D01*
X1361449Y307265D01*
X1361440Y307515D01*
Y307663D01*
X1361449Y307737D01*
Y307820D01*
X1361458Y307913D01*
X1361468Y308024D01*
X1361505Y308255D01*
X1361542Y308495D01*
X1361606Y308736D01*
X1361690Y308967D01*
Y308976D01*
X1361699Y308994D01*
X1361717Y309022D01*
X1361736Y309059D01*
X1361791Y309170D01*
X1361875Y309300D01*
X1361985Y309447D01*
X1362115Y309605D01*
X1362272Y309753D01*
X1362448Y309891D01*
X1362457D01*
X1362475Y309910D01*
X1362503Y309919D01*
X1362540Y309947D01*
X1362587Y309965D01*
X1362642Y309993D01*
X1362781Y310058D01*
X1362956Y310122D01*
X1363150Y310178D01*
X1363372Y310215D01*
X1363604Y310233D01*
X1363677Y309438D01*
D02*
G37*
%LPC*%
G36*
X1744210Y359946D02*
X1744201D01*
X1744173D01*
X1744136D01*
X1744090D01*
X1744025D01*
X1743951Y359936D01*
X1743794Y359927D01*
X1743609Y359909D01*
X1743415Y359890D01*
X1743239Y359853D01*
X1743073Y359807D01*
X1743064D01*
X1743054Y359798D01*
X1743008Y359779D01*
X1742934Y359752D01*
X1742842Y359715D01*
X1742749Y359659D01*
X1742648Y359594D01*
X1742546Y359520D01*
X1742453Y359437D01*
X1742444Y359428D01*
X1742416Y359400D01*
X1742379Y359345D01*
X1742333Y359280D01*
X1742278Y359188D01*
X1742231Y359086D01*
X1742185Y358975D01*
X1742148Y358845D01*
Y358836D01*
X1742139Y358790D01*
X1742130Y358716D01*
X1742111Y358614D01*
Y358550D01*
X1742102Y358466D01*
Y358383D01*
X1742093Y358291D01*
Y358180D01*
X1742084Y358060D01*
Y357218D01*
X1746318D01*
Y358355D01*
X1746309Y358476D01*
Y358605D01*
X1746290Y358735D01*
X1746281Y358855D01*
X1746263Y358956D01*
Y358975D01*
X1746244Y359012D01*
X1746226Y359067D01*
X1746198Y359141D01*
X1746161Y359225D01*
X1746115Y359308D01*
X1746059Y359391D01*
X1745995Y359474D01*
X1745985Y359483D01*
X1745957Y359511D01*
X1745911Y359548D01*
X1745847Y359594D01*
X1745763Y359641D01*
X1745662Y359705D01*
X1745532Y359752D01*
X1745384Y359807D01*
X1745375D01*
X1745366Y359816D01*
X1745338D01*
X1745301Y359826D01*
X1745264Y359844D01*
X1745209Y359853D01*
X1745070Y359881D01*
X1744904Y359899D01*
X1744709Y359927D01*
X1744469Y359936D01*
X1744210Y359946D01*
D02*
G37*
G36*
X1744182Y324258D02*
X1744173D01*
X1744136D01*
X1744081D01*
X1743997Y324249D01*
X1743905Y324239D01*
X1743803Y324230D01*
X1743683Y324221D01*
X1743563Y324193D01*
X1743295Y324137D01*
X1743017Y324054D01*
X1742879Y323999D01*
X1742758Y323934D01*
X1742638Y323851D01*
X1742527Y323768D01*
X1742518Y323759D01*
X1742500Y323749D01*
X1742481Y323722D01*
X1742444Y323685D01*
X1742398Y323629D01*
X1742352Y323573D01*
X1742305Y323509D01*
X1742250Y323426D01*
X1742204Y323342D01*
X1742158Y323241D01*
X1742065Y323028D01*
X1742028Y322908D01*
X1742010Y322778D01*
X1741991Y322640D01*
X1741982Y322492D01*
Y322418D01*
X1741991Y322362D01*
X1742000Y322288D01*
X1742010Y322214D01*
X1742047Y322029D01*
X1742121Y321826D01*
X1742158Y321715D01*
X1742213Y321604D01*
X1742278Y321502D01*
X1742352Y321392D01*
X1742435Y321290D01*
X1742537Y321197D01*
X1742546Y321188D01*
X1742564Y321179D01*
X1742592Y321151D01*
X1742638Y321124D01*
X1742703Y321087D01*
X1742768Y321049D01*
X1742851Y321003D01*
X1742953Y320957D01*
X1743064Y320911D01*
X1743184Y320865D01*
X1743322Y320828D01*
X1743470Y320791D01*
X1743637Y320763D01*
X1743813Y320735D01*
X1743997Y320726D01*
X1744201Y320717D01*
X1744210D01*
X1744247D01*
X1744303D01*
X1744377Y320726D01*
X1744469Y320735D01*
X1744580Y320744D01*
X1744691Y320763D01*
X1744820Y320781D01*
X1745088Y320837D01*
X1745356Y320929D01*
X1745495Y320985D01*
X1745625Y321049D01*
X1745745Y321133D01*
X1745856Y321216D01*
X1745865Y321225D01*
X1745883Y321244D01*
X1745911Y321271D01*
X1745939Y321308D01*
X1745985Y321355D01*
X1746031Y321419D01*
X1746087Y321484D01*
X1746133Y321567D01*
X1746244Y321743D01*
X1746327Y321965D01*
X1746364Y322085D01*
X1746392Y322214D01*
X1746411Y322353D01*
X1746420Y322492D01*
Y322566D01*
X1746411Y322621D01*
X1746401Y322686D01*
X1746392Y322760D01*
X1746346Y322936D01*
X1746281Y323139D01*
X1746235Y323241D01*
X1746189Y323352D01*
X1746124Y323453D01*
X1746050Y323564D01*
X1745967Y323666D01*
X1745865Y323759D01*
X1745856Y323768D01*
X1745837Y323777D01*
X1745810Y323805D01*
X1745763Y323832D01*
X1745699Y323879D01*
X1745625Y323916D01*
X1745541Y323962D01*
X1745440Y324008D01*
X1745329Y324054D01*
X1745209Y324100D01*
X1745070Y324147D01*
X1744913Y324184D01*
X1744756Y324212D01*
X1744580Y324239D01*
X1744386Y324249D01*
X1744182Y324258D01*
D02*
G37*
G36*
X1742999Y317259D02*
X1742980D01*
X1742943D01*
X1742879Y317250D01*
X1742796Y317231D01*
X1742703Y317203D01*
X1742601Y317166D01*
X1742509Y317120D01*
X1742416Y317046D01*
X1742407Y317037D01*
X1742379Y317009D01*
X1742343Y316963D01*
X1742296Y316908D01*
X1742241Y316833D01*
X1742195Y316741D01*
X1742158Y316639D01*
X1742130Y316528D01*
Y316519D01*
X1742121Y316482D01*
X1742111Y316418D01*
X1742102Y316325D01*
Y316205D01*
X1742093Y316122D01*
Y316038D01*
X1742084Y315946D01*
Y314984D01*
X1743905D01*
Y315872D01*
X1743896Y315937D01*
Y316103D01*
X1743887Y316269D01*
X1743868Y316436D01*
X1743840Y316584D01*
X1743831Y316649D01*
X1743813Y316704D01*
X1743803Y316713D01*
X1743794Y316750D01*
X1743766Y316796D01*
X1743739Y316852D01*
X1743692Y316917D01*
X1743637Y316981D01*
X1743572Y317055D01*
X1743498Y317111D01*
X1743489Y317120D01*
X1743461Y317139D01*
X1743415Y317157D01*
X1743350Y317185D01*
X1743276Y317213D01*
X1743193Y317240D01*
X1743101Y317250D01*
X1742999Y317259D01*
D02*
G37*
G36*
X1367191Y376681D02*
X1362309D01*
Y375165D01*
X1362318Y375100D01*
X1362328Y374962D01*
X1362337Y374804D01*
X1362355Y374638D01*
X1362383Y374472D01*
X1362420Y374333D01*
X1362429Y374314D01*
X1362439Y374268D01*
X1362466Y374204D01*
X1362503Y374120D01*
X1362559Y374028D01*
X1362614Y373935D01*
X1362679Y373843D01*
X1362753Y373750D01*
X1362771Y373741D01*
X1362808Y373704D01*
X1362873Y373649D01*
X1362966Y373584D01*
X1363086Y373510D01*
X1363224Y373427D01*
X1363382Y373353D01*
X1363557Y373288D01*
X1363566D01*
X1363585Y373279D01*
X1363613Y373270D01*
X1363650Y373260D01*
X1363696Y373251D01*
X1363761Y373233D01*
X1363825Y373214D01*
X1363899Y373196D01*
X1364084Y373168D01*
X1364297Y373140D01*
X1364537Y373122D01*
X1364796Y373113D01*
X1364805D01*
X1364842D01*
X1364889D01*
X1364963Y373122D01*
X1365046D01*
X1365138Y373131D01*
X1365249Y373140D01*
X1365360Y373150D01*
X1365610Y373196D01*
X1365869Y373251D01*
X1366109Y373335D01*
X1366229Y373390D01*
X1366331Y373445D01*
X1366340D01*
X1366359Y373464D01*
X1366386Y373482D01*
X1366423Y373501D01*
X1366516Y373575D01*
X1366627Y373667D01*
X1366747Y373787D01*
X1366867Y373926D01*
X1366969Y374083D01*
X1367052Y374250D01*
X1367061Y374268D01*
X1367071Y374314D01*
X1367098Y374398D01*
X1367126Y374518D01*
X1367144Y374666D01*
X1367172Y374851D01*
X1367182Y374962D01*
Y375082D01*
X1367191Y375202D01*
Y376681D01*
D02*
G37*
G36*
Y321550D02*
X1365268D01*
Y319978D01*
X1365277Y319858D01*
X1365286Y319729D01*
X1365295Y319599D01*
X1365314Y319470D01*
X1365332Y319368D01*
X1365342Y319349D01*
X1365351Y319312D01*
X1365379Y319257D01*
X1365416Y319183D01*
X1365453Y319109D01*
X1365508Y319026D01*
X1365582Y318943D01*
X1365656Y318878D01*
X1365665Y318869D01*
X1365693Y318850D01*
X1365748Y318822D01*
X1365813Y318795D01*
X1365887Y318767D01*
X1365980Y318739D01*
X1366091Y318721D01*
X1366211Y318711D01*
X1366229D01*
X1366266D01*
X1366322Y318721D01*
X1366396Y318730D01*
X1366488Y318748D01*
X1366581Y318776D01*
X1366673Y318813D01*
X1366765Y318869D01*
X1366775Y318878D01*
X1366802Y318896D01*
X1366849Y318933D01*
X1366895Y318980D01*
X1366950Y319044D01*
X1367006Y319118D01*
X1367061Y319211D01*
X1367098Y319312D01*
Y319322D01*
X1367117Y319368D01*
X1367126Y319433D01*
X1367144Y319534D01*
X1367163Y319673D01*
X1367172Y319830D01*
X1367191Y320034D01*
Y321550D01*
D02*
G37*
G36*
X1364509D02*
X1362309D01*
Y319729D01*
X1362318Y319534D01*
X1362328Y319451D01*
X1362337Y319377D01*
Y319368D01*
X1362346Y319331D01*
X1362355Y319275D01*
X1362374Y319211D01*
X1362429Y319054D01*
X1362503Y318896D01*
X1362513Y318887D01*
X1362531Y318859D01*
X1362559Y318822D01*
X1362596Y318776D01*
X1362651Y318730D01*
X1362707Y318665D01*
X1362781Y318619D01*
X1362864Y318563D01*
X1362873Y318554D01*
X1362901Y318545D01*
X1362956Y318527D01*
X1363021Y318499D01*
X1363095Y318471D01*
X1363187Y318453D01*
X1363298Y318443D01*
X1363409Y318434D01*
X1363428D01*
X1363465D01*
X1363539Y318443D01*
X1363622Y318462D01*
X1363714Y318480D01*
X1363816Y318517D01*
X1363918Y318563D01*
X1364019Y318628D01*
X1364029Y318638D01*
X1364066Y318665D01*
X1364112Y318702D01*
X1364167Y318758D01*
X1364232Y318832D01*
X1364297Y318924D01*
X1364352Y319026D01*
X1364399Y319146D01*
X1364408Y319165D01*
X1364417Y319202D01*
X1364436Y319285D01*
X1364454Y319386D01*
X1364473Y319516D01*
X1364491Y319673D01*
X1364509Y319867D01*
Y321550D01*
D02*
G37*
%LPD*%
D10*
X1388120Y296190D02*
X1440520D01*
X1377320D02*
X1383120D01*
X1382370Y292190D02*
X1388870D01*
X1382370D02*
X1383120Y296190D01*
X1388120D02*
X1388870Y292190D01*
X1445520Y296190D02*
X1451320D01*
X1439770Y292190D02*
X1440520Y296190D01*
X1445520D02*
X1446270Y292190D01*
X1439770D02*
X1446270D01*
X1377320Y401190D02*
X1451320D01*
Y296190D02*
Y401190D01*
X1377320Y296190D02*
Y401190D01*
X1668790Y296190D02*
X1721190D01*
X1657990D02*
X1663790D01*
X1663040Y292190D02*
X1669540D01*
X1663040D02*
X1663790Y296190D01*
X1668790D02*
X1669540Y292190D01*
X1726190Y296190D02*
X1731990D01*
X1720440Y292190D02*
X1721190Y296190D01*
X1726190D02*
X1726940Y292190D01*
X1720440D02*
X1726940D01*
X1657990Y401190D02*
X1731990D01*
Y296190D02*
Y401190D01*
X1657990Y296190D02*
Y401190D01*
X1538590Y327993D02*
Y373693D01*
X1572940D02*
X1577990D01*
X1538590D02*
X1543640D01*
X1577990Y327993D02*
Y373693D01*
X1572940Y327993D02*
X1577990D01*
X1538590D02*
X1543640D01*
X1539290Y345843D02*
X1577290D01*
X1481440Y327993D02*
Y373693D01*
X1515790D02*
X1520840D01*
X1481440D02*
X1486490D01*
X1520840Y327993D02*
Y373693D01*
X1515790Y327993D02*
X1520840D01*
X1481440D02*
X1486490D01*
X1482140Y345843D02*
X1520140D01*
X1611570Y319405D02*
X1619310D01*
X1611570Y302895D02*
X1619310D01*
D11*
X1397000Y424017D02*
Y415686D01*
X1398666Y414020D01*
X1401998D01*
X1403665Y415686D01*
Y424017D01*
X1413661Y422351D02*
X1411995Y424017D01*
X1408663D01*
X1406997Y422351D01*
Y420685D01*
X1408663Y419018D01*
X1411995D01*
X1413661Y417352D01*
Y415686D01*
X1411995Y414020D01*
X1408663D01*
X1406997Y415686D01*
X1416994Y424017D02*
Y414020D01*
X1421992D01*
X1423658Y415686D01*
Y417352D01*
X1421992Y419018D01*
X1416994D01*
X1421992D01*
X1423658Y420685D01*
Y422351D01*
X1421992Y424017D01*
X1416994D01*
X1610360Y414020D02*
Y420685D01*
X1613692Y424017D01*
X1617025Y420685D01*
Y414020D01*
Y419018D01*
X1610360D01*
X1627021Y422351D02*
X1625355Y424017D01*
X1622023D01*
X1620357Y422351D01*
Y415686D01*
X1622023Y414020D01*
X1625355D01*
X1627021Y415686D01*
X1640350Y414020D02*
Y424017D01*
X1645349D01*
X1647015Y422351D01*
Y419018D01*
X1645349Y417352D01*
X1640350D01*
X1655345Y424017D02*
X1652013D01*
X1650347Y422351D01*
Y415686D01*
X1652013Y414020D01*
X1655345D01*
X1657012Y415686D01*
Y422351D01*
X1655345Y424017D01*
X1660344D02*
Y414020D01*
X1663676Y417352D01*
X1667008Y414020D01*
Y424017D01*
X1677005D02*
X1670341D01*
Y414020D01*
X1677005D01*
X1670341Y419018D02*
X1673673D01*
X1680338Y414020D02*
Y424017D01*
X1685336D01*
X1687002Y422351D01*
Y419018D01*
X1685336Y417352D01*
X1680338D01*
X1683670D02*
X1687002Y414020D01*
X1700331D02*
Y424017D01*
X1705329D01*
X1706996Y422351D01*
Y419018D01*
X1705329Y417352D01*
X1700331D01*
X1710328Y424017D02*
Y414020D01*
X1716992D01*
X1720325Y424017D02*
Y415686D01*
X1721991Y414020D01*
X1725323D01*
X1726989Y415686D01*
Y424017D01*
X1736986Y422351D02*
X1735320Y424017D01*
X1731987D01*
X1730321Y422351D01*
Y415686D01*
X1731987Y414020D01*
X1735320D01*
X1736986Y415686D01*
Y419018D01*
X1733654D01*
X1507805Y289001D02*
X1506138Y290667D01*
X1502806D01*
X1501140Y289001D01*
Y282336D01*
X1502806Y280670D01*
X1506138D01*
X1507805Y282336D01*
X1512803Y280670D02*
X1516135D01*
X1517801Y282336D01*
Y285668D01*
X1516135Y287334D01*
X1512803D01*
X1511137Y285668D01*
Y282336D01*
X1512803Y280670D01*
X1521134Y287334D02*
Y280670D01*
Y284002D01*
X1522800Y285668D01*
X1524466Y287334D01*
X1526132D01*
X1537795Y290667D02*
Y280670D01*
X1532796D01*
X1531130Y282336D01*
Y285668D01*
X1532796Y287334D01*
X1537795D01*
X1551124Y280670D02*
Y290667D01*
X1554456Y287334D01*
X1557788Y290667D01*
Y280670D01*
X1562787D02*
X1566119D01*
X1567785Y282336D01*
Y285668D01*
X1566119Y287334D01*
X1562787D01*
X1561121Y285668D01*
Y282336D01*
X1562787Y280670D01*
X1577782Y290667D02*
Y280670D01*
X1572784D01*
X1571118Y282336D01*
Y285668D01*
X1572784Y287334D01*
X1577782D01*
X1581114D02*
Y282336D01*
X1582780Y280670D01*
X1587779D01*
Y287334D01*
X1591111Y280670D02*
X1594443D01*
X1592777D01*
Y290667D01*
X1591111D01*
X1604440Y280670D02*
X1601108D01*
X1599442Y282336D01*
Y285668D01*
X1601108Y287334D01*
X1604440D01*
X1606106Y285668D01*
Y284002D01*
X1599442D01*
X1463040Y302449D02*
X1460374D01*
X1461707D01*
Y295784D01*
X1460374Y294451D01*
X1459041D01*
X1457708Y295784D01*
X1465706Y294451D02*
X1468372D01*
X1467039D01*
Y302449D01*
X1465706Y301116D01*
X1643317Y304989D02*
X1640651D01*
X1641984D01*
Y298324D01*
X1640651Y296991D01*
X1639318D01*
X1637986Y298324D01*
X1651315Y296991D02*
X1645983D01*
X1651315Y302323D01*
Y303656D01*
X1649982Y304989D01*
X1647316D01*
X1645983Y303656D01*
X1615440Y338009D02*
X1610108D01*
Y334010D01*
X1612774D01*
X1610108D01*
Y330011D01*
X1618106D02*
X1620772D01*
X1619439D01*
Y338009D01*
X1618106Y336676D01*
X1495746Y315149D02*
Y307151D01*
X1499744D01*
X1501077Y308484D01*
Y313816D01*
X1499744Y315149D01*
X1495746D01*
X1509075Y307151D02*
X1503743D01*
X1509075Y312483D01*
Y313816D01*
X1507742Y315149D01*
X1505076D01*
X1503743Y313816D01*
X1551688Y313879D02*
Y305881D01*
X1555687D01*
X1557020Y307214D01*
Y312546D01*
X1555687Y313879D01*
X1551688D01*
X1559686Y305881D02*
X1562352D01*
X1561019D01*
Y313879D01*
X1559686Y312546D01*
M02*
