G04*
G04 #@! TF.GenerationSoftware,Altium Limited,Altium Designer,24.10.1 (45)*
G04*
G04 Layer_Color=128*
%FSLAX44Y44*%
%MOMM*%
G71*
G04*
G04 #@! TF.SameCoordinates,9B87C798-A5EC-4888-A0B9-4BDBECF7F39D*
G04*
G04*
G04 #@! TF.FilePolarity,Positive*
G04*
G01*
G75*
%ADD19R,1.0500X1.4500*%
%ADD20R,1.3781X1.4562*%
%ADD22R,1.3500X1.1000*%
%ADD26R,1.1000X1.3500*%
%ADD34R,1.4000X1.1000*%
%ADD35R,1.4500X1.2000*%
%ADD42R,1.1000X1.4000*%
%ADD107R,1.4500X1.0500*%
%ADD108R,0.6000X1.5200*%
%ADD109R,1.0000X1.3500*%
%ADD110R,1.3500X0.8500*%
%ADD111R,3.1300X3.1300*%
%ADD112O,0.8500X0.2000*%
%ADD113O,0.2000X0.8500*%
%ADD114R,0.9000X0.8000*%
%ADD115R,1.2200X0.9100*%
%ADD116R,1.4500X1.3000*%
%ADD117R,1.3000X1.4500*%
%ADD118R,1.4000X1.0000*%
%ADD119R,1.3500X1.5500*%
%ADD120R,1.1500X1.4500*%
%ADD121R,1.3000X1.3000*%
%ADD122R,1.3000X2.0000*%
%ADD123R,1.2000X1.4500*%
%ADD124R,1.4562X1.3781*%
%ADD125R,1.5575X0.7425*%
G04:AMPARAMS|DCode=126|XSize=1.5575mm|YSize=0.7425mm|CornerRadius=0.3712mm|HoleSize=0mm|Usage=FLASHONLY|Rotation=180.000|XOffset=0mm|YOffset=0mm|HoleType=Round|Shape=RoundedRectangle|*
%AMROUNDEDRECTD126*
21,1,1.5575,0.0000,0,0,180.0*
21,1,0.8150,0.7425,0,0,180.0*
1,1,0.7425,-0.4075,0.0000*
1,1,0.7425,0.4075,0.0000*
1,1,0.7425,0.4075,0.0000*
1,1,0.7425,-0.4075,0.0000*
%
%ADD126ROUNDEDRECTD126*%
%ADD127R,0.8000X0.9000*%
D19*
X187924Y777082D02*
D03*
X169425D02*
D03*
D20*
X55372Y583801D02*
D03*
X71101D02*
D03*
D22*
X161800Y830879D02*
D03*
Y816878D02*
D03*
X112778Y841024D02*
D03*
Y855024D02*
D03*
X169058Y530535D02*
D03*
Y516535D02*
D03*
X244917Y397386D02*
D03*
Y411386D02*
D03*
D26*
X102012Y539645D02*
D03*
X116012D02*
D03*
D34*
X444467Y826336D02*
D03*
Y843836D02*
D03*
X133394Y842773D02*
D03*
Y860273D02*
D03*
X444405Y85382D02*
D03*
Y67882D02*
D03*
D35*
X37719Y614164D02*
D03*
Y634164D02*
D03*
X142753Y536670D02*
D03*
Y516670D02*
D03*
D42*
X289504Y477353D02*
D03*
X272003D02*
D03*
X289552Y451682D02*
D03*
X272052D02*
D03*
X58763Y763393D02*
D03*
X76263D02*
D03*
X49287Y831905D02*
D03*
X66787D02*
D03*
X49338Y808966D02*
D03*
X66838D02*
D03*
X58556Y786218D02*
D03*
X76056D02*
D03*
D107*
X129695Y703343D02*
D03*
Y721843D02*
D03*
X180298Y703298D02*
D03*
Y721797D02*
D03*
D108*
X101148Y816922D02*
D03*
X113848D02*
D03*
X126548D02*
D03*
X139248D02*
D03*
X101148Y762122D02*
D03*
X113848D02*
D03*
X126548D02*
D03*
X139248D02*
D03*
D109*
X249141Y536483D02*
D03*
X267141D02*
D03*
X174801Y398037D02*
D03*
X192801D02*
D03*
D110*
X90806Y839870D02*
D03*
Y856369D02*
D03*
D111*
X168274Y454207D02*
D03*
D112*
X144024Y469207D02*
D03*
Y464207D02*
D03*
Y459207D02*
D03*
Y454207D02*
D03*
Y449207D02*
D03*
Y444207D02*
D03*
Y439207D02*
D03*
X192524D02*
D03*
Y444207D02*
D03*
Y449207D02*
D03*
Y454207D02*
D03*
Y459207D02*
D03*
Y464207D02*
D03*
Y469207D02*
D03*
D113*
X153274Y429957D02*
D03*
X158274D02*
D03*
X163274D02*
D03*
X168274D02*
D03*
X173274D02*
D03*
X178274D02*
D03*
X183274D02*
D03*
Y478456D02*
D03*
X178274D02*
D03*
X173274D02*
D03*
X168274D02*
D03*
X163274D02*
D03*
X158274D02*
D03*
X153274D02*
D03*
D114*
X472267Y824544D02*
D03*
Y843544D02*
D03*
X492267Y834044D02*
D03*
X244986Y455661D02*
D03*
Y436661D02*
D03*
X224986Y446161D02*
D03*
X225150Y477160D02*
D03*
Y496160D02*
D03*
X245150Y486660D02*
D03*
D115*
X516429Y91581D02*
D03*
Y58881D02*
D03*
X519589Y821900D02*
D03*
Y854600D02*
D03*
D116*
X105784Y704711D02*
D03*
Y720711D02*
D03*
X154173Y704369D02*
D03*
Y720369D02*
D03*
D117*
X170577Y797953D02*
D03*
X186577D02*
D03*
D118*
X557654Y690998D02*
D03*
X531655D02*
D03*
X557640Y667483D02*
D03*
X531639D02*
D03*
D119*
X316660Y788331D02*
D03*
X297160D02*
D03*
D120*
X114143Y515383D02*
D03*
X96642D02*
D03*
D121*
X30002Y707611D02*
D03*
Y730611D02*
D03*
D122*
X85002Y719111D02*
D03*
D123*
X464249Y870449D02*
D03*
X444249D02*
D03*
X463967Y109714D02*
D03*
X443966D02*
D03*
D124*
X195437Y516597D02*
D03*
Y531878D02*
D03*
D125*
X64265Y553812D02*
D03*
D126*
X30257D02*
D03*
D127*
X476484Y64320D02*
D03*
X485984Y84320D02*
D03*
X466984D02*
D03*
M02*
