G04*
G04 #@! TF.GenerationSoftware,Altium Limited,Altium Designer,24.10.1 (45)*
G04*
G04 Layer_Color=8388736*
%FSLAX44Y44*%
%MOMM*%
G71*
G04*
G04 #@! TF.SameCoordinates,9B87C798-A5EC-4888-A0B9-4BDBECF7F39D*
G04*
G04*
G04 #@! TF.FilePolarity,Negative*
G04*
G01*
G75*
%ADD20R,1.3781X1.4562*%
G04:AMPARAMS|DCode=30|XSize=2.1741mm|YSize=0.5821mm|CornerRadius=0.2911mm|HoleSize=0mm|Usage=FLASHONLY|Rotation=180.000|XOffset=0mm|YOffset=0mm|HoleType=Round|Shape=RoundedRectangle|*
%AMROUNDEDRECTD30*
21,1,2.1741,0.0000,0,0,180.0*
21,1,1.5919,0.5821,0,0,180.0*
1,1,0.5821,-0.7960,0.0000*
1,1,0.5821,0.7960,0.0000*
1,1,0.5821,0.7960,0.0000*
1,1,0.5821,-0.7960,0.0000*
%
%ADD30ROUNDEDRECTD30*%
%ADD31R,2.1741X0.5821*%
%ADD33R,1.6000X2.8000*%
%ADD36R,0.9621X2.0542*%
G04:AMPARAMS|DCode=37|XSize=2.0542mm|YSize=0.9621mm|CornerRadius=0.4811mm|HoleSize=0mm|Usage=FLASHONLY|Rotation=270.000|XOffset=0mm|YOffset=0mm|HoleType=Round|Shape=RoundedRectangle|*
%AMROUNDEDRECTD37*
21,1,2.0542,0.0000,0,0,270.0*
21,1,1.0920,0.9621,0,0,270.0*
1,1,0.9621,0.0000,-0.5460*
1,1,0.9621,0.0000,0.5460*
1,1,0.9621,0.0000,0.5460*
1,1,0.9621,0.0000,-0.5460*
%
%ADD37ROUNDEDRECTD37*%
G04:AMPARAMS|DCode=38|XSize=2.0542mm|YSize=3.2621mm|CornerRadius=0.4827mm|HoleSize=0mm|Usage=FLASHONLY|Rotation=270.000|XOffset=0mm|YOffset=0mm|HoleType=Round|Shape=RoundedRectangle|*
%AMROUNDEDRECTD38*
21,1,2.0542,2.2967,0,0,270.0*
21,1,1.0887,3.2621,0,0,270.0*
1,1,0.9655,-1.1483,-0.5444*
1,1,0.9655,-1.1483,0.5444*
1,1,0.9655,1.1483,0.5444*
1,1,0.9655,1.1483,-0.5444*
%
%ADD38ROUNDEDRECTD38*%
%ADD43R,1.2621X0.9578*%
%ADD46R,1.2532X1.6532*%
%ADD47R,1.8032X1.4032*%
%ADD48R,1.5532X1.3032*%
%ADD49R,1.1032X1.7032*%
%ADD50R,1.7032X1.1032*%
%ADD51R,1.1032X1.1032*%
%ADD52R,1.3032X1.5532*%
%ADD53R,1.6032X1.1032*%
%ADD54R,1.6032X1.3032*%
%ADD55R,1.4532X1.6532*%
%ADD56R,1.3032X1.5032*%
%ADD57R,1.6032X1.3032*%
%ADD58R,1.6532X1.4032*%
%ADD59R,2.4032X1.8032*%
%ADD60R,2.3832X1.8032*%
%ADD61R,1.1532X1.5532*%
%ADD62R,1.3032X1.6032*%
%ADD63R,2.1032X2.0032*%
%ADD64R,1.5532X0.6032*%
%ADD65C,1.7112*%
%ADD66R,1.7112X1.7112*%
%ADD67C,1.8032*%
G04:AMPARAMS|DCode=68|XSize=1.8032mm|YSize=1.8032mm|CornerRadius=0.5016mm|HoleSize=0mm|Usage=FLASHONLY|Rotation=270.000|XOffset=0mm|YOffset=0mm|HoleType=Round|Shape=RoundedRectangle|*
%AMROUNDEDRECTD68*
21,1,1.8032,0.8000,0,0,270.0*
21,1,0.8000,1.8032,0,0,270.0*
1,1,1.0032,-0.4000,-0.4000*
1,1,1.0032,-0.4000,0.4000*
1,1,1.0032,0.4000,0.4000*
1,1,1.0032,0.4000,-0.4000*
%
%ADD68ROUNDEDRECTD68*%
%ADD69C,1.8034*%
G04:AMPARAMS|DCode=70|XSize=1.8032mm|YSize=1.8032mm|CornerRadius=0.5016mm|HoleSize=0mm|Usage=FLASHONLY|Rotation=0.000|XOffset=0mm|YOffset=0mm|HoleType=Round|Shape=RoundedRectangle|*
%AMROUNDEDRECTD70*
21,1,1.8032,0.8000,0,0,0.0*
21,1,0.8000,1.8032,0,0,0.0*
1,1,1.0032,0.4000,-0.4000*
1,1,1.0032,-0.4000,-0.4000*
1,1,1.0032,-0.4000,0.4000*
1,1,1.0032,0.4000,0.4000*
%
%ADD70ROUNDEDRECTD70*%
%ADD71O,1.2532X1.3532*%
%ADD72O,1.5032X0.9532*%
%ADD73C,2.1532*%
G04:AMPARAMS|DCode=74|XSize=2.1532mm|YSize=2.1532mm|CornerRadius=0.5891mm|HoleSize=0mm|Usage=FLASHONLY|Rotation=90.000|XOffset=0mm|YOffset=0mm|HoleType=Round|Shape=RoundedRectangle|*
%AMROUNDEDRECTD74*
21,1,2.1532,0.9750,0,0,90.0*
21,1,0.9750,2.1532,0,0,90.0*
1,1,1.1782,0.4875,0.4875*
1,1,1.1782,0.4875,-0.4875*
1,1,1.1782,-0.4875,-0.4875*
1,1,1.1782,-0.4875,0.4875*
%
%ADD74ROUNDEDRECTD74*%
%ADD75C,1.7272*%
%ADD76C,1.4732*%
%ADD77C,1.0032*%
%ADD78C,0.7032*%
G36*
X41157Y445489D02*
X41287Y445463D01*
X41413Y445420D01*
X41533Y445361D01*
X41644Y445287D01*
X41744Y445199D01*
X41831Y445099D01*
X41905Y444989D01*
X41964Y444869D01*
X42007Y444743D01*
X42033Y444612D01*
X42042Y444479D01*
Y427979D01*
Y426786D01*
X42033Y426653D01*
X42007Y426522D01*
X41964Y426396D01*
X41051Y424191D01*
X40992Y424072D01*
X40918Y423961D01*
X40830Y423861D01*
X39143Y422173D01*
X39142Y422173D01*
X39089Y422126D01*
X39042Y422085D01*
X38968Y422036D01*
X38932Y422011D01*
X38871Y421981D01*
X38812Y421952D01*
X38812Y421952D01*
X36607Y421039D01*
X36481Y420996D01*
X36350Y420970D01*
X36217Y420961D01*
X26830D01*
X26830D01*
D01*
X26697Y420970D01*
X26567Y420996D01*
X26440Y421039D01*
X24235Y421952D01*
X24116Y422011D01*
X24005Y422085D01*
X23905Y422173D01*
X23905Y422173D01*
X22217Y423861D01*
X22217Y423861D01*
X22170Y423914D01*
X22129Y423961D01*
X22080Y424035D01*
X22055Y424072D01*
X22025Y424132D01*
X21997Y424191D01*
X21996Y424191D01*
X21083Y426396D01*
X21040Y426522D01*
X21014Y426653D01*
X21005Y426786D01*
Y427979D01*
Y444479D01*
X21014Y444612D01*
X21040Y444743D01*
X21083Y444869D01*
X21142Y444989D01*
X21216Y445099D01*
X21304Y445199D01*
X21404Y445287D01*
X21515Y445361D01*
X21634Y445420D01*
X21760Y445463D01*
X21891Y445489D01*
X22024Y445498D01*
X41024D01*
X41157Y445489D01*
D02*
G37*
G36*
X36350Y519989D02*
X36481Y519963D01*
X36523Y519948D01*
X36607Y519920D01*
X36607Y519920D01*
X38812Y519007D01*
X38812Y519007D01*
X38932Y518948D01*
X39042Y518874D01*
X39142Y518786D01*
X39143Y518786D01*
X40830Y517098D01*
X40918Y516998D01*
X40992Y516887D01*
X41051Y516768D01*
X41964Y514562D01*
X42007Y514436D01*
X42033Y514306D01*
X42042Y514173D01*
Y512979D01*
Y496479D01*
X42033Y496347D01*
X42007Y496216D01*
X41964Y496090D01*
X41905Y495970D01*
X41831Y495859D01*
X41744Y495759D01*
X41644Y495672D01*
X41533Y495598D01*
X41413Y495539D01*
X41287Y495496D01*
X41157Y495470D01*
X41024Y495461D01*
X22024D01*
X21891Y495470D01*
X21760Y495496D01*
X21634Y495539D01*
X21515Y495598D01*
X21404Y495672D01*
X21304Y495759D01*
X21216Y495859D01*
X21142Y495970D01*
X21083Y496090D01*
X21040Y496216D01*
X21014Y496347D01*
X21005Y496479D01*
Y512979D01*
Y514173D01*
X21014Y514306D01*
X21040Y514436D01*
X21083Y514562D01*
X21996Y516768D01*
X21997Y516768D01*
X22025Y516827D01*
X22055Y516887D01*
X22080Y516924D01*
X22129Y516998D01*
X22170Y517045D01*
X22217Y517098D01*
X22217Y517098D01*
X23905Y518786D01*
X24005Y518874D01*
X24116Y518948D01*
X24235Y519007D01*
X26441Y519920D01*
X26567Y519963D01*
X26697Y519989D01*
X26830Y519998D01*
X36217D01*
D01*
X36217D01*
X36350Y519989D01*
D02*
G37*
D20*
X713508Y312659D02*
D03*
X697738D02*
D03*
D30*
X715855Y358891D02*
D03*
Y371591D02*
D03*
Y384291D02*
D03*
Y396991D02*
D03*
X763176D02*
D03*
Y384291D02*
D03*
Y371591D02*
D03*
D31*
Y358891D02*
D03*
D33*
X84710Y310414D02*
D03*
Y267415D02*
D03*
X198234Y312118D02*
D03*
Y269118D02*
D03*
D36*
X228452Y223180D02*
D03*
X113352Y223459D02*
D03*
D37*
X205452Y223180D02*
D03*
X182452D02*
D03*
X90352Y223459D02*
D03*
X67352D02*
D03*
D38*
X205452Y159680D02*
D03*
X90352Y159959D02*
D03*
D43*
X260799Y258192D02*
D03*
Y272735D02*
D03*
D46*
X683665Y397321D02*
D03*
X665165D02*
D03*
X684248Y374331D02*
D03*
X665748D02*
D03*
D47*
X295161Y230646D02*
D03*
X259161D02*
D03*
D48*
X329628Y355336D02*
D03*
Y341336D02*
D03*
X373655Y354819D02*
D03*
Y340819D02*
D03*
X288355Y272095D02*
D03*
Y258095D02*
D03*
X144315Y237942D02*
D03*
Y223942D02*
D03*
D49*
X327097Y564607D02*
D03*
X339797D02*
D03*
X352497D02*
D03*
X365197D02*
D03*
X377897D02*
D03*
X390597D02*
D03*
X403297D02*
D03*
X415997D02*
D03*
X428697D02*
D03*
X441397D02*
D03*
X454097D02*
D03*
X466797D02*
D03*
X479497D02*
D03*
X492197D02*
D03*
Y389606D02*
D03*
X479497D02*
D03*
X466797D02*
D03*
X454097D02*
D03*
X441397D02*
D03*
X428697D02*
D03*
X415997D02*
D03*
X403297D02*
D03*
X390597D02*
D03*
X377897D02*
D03*
X365197D02*
D03*
X352497D02*
D03*
X339797D02*
D03*
X327097D02*
D03*
D50*
X504697Y546957D02*
D03*
Y534257D02*
D03*
Y521557D02*
D03*
Y508857D02*
D03*
Y496157D02*
D03*
Y483457D02*
D03*
Y470757D02*
D03*
Y458057D02*
D03*
Y445357D02*
D03*
Y432657D02*
D03*
Y419957D02*
D03*
Y407257D02*
D03*
D51*
X390297Y476106D02*
D03*
Y462106D02*
D03*
Y448106D02*
D03*
X418297Y476106D02*
D03*
Y462106D02*
D03*
Y448106D02*
D03*
X404297Y476106D02*
D03*
Y448106D02*
D03*
Y462106D02*
D03*
D52*
X140903Y597763D02*
D03*
X126903D02*
D03*
X715180Y336732D02*
D03*
X701180D02*
D03*
D53*
X155923Y541833D02*
D03*
Y522832D02*
D03*
X133923D02*
D03*
D54*
Y539833D02*
D03*
D55*
X682991Y418283D02*
D03*
X666490D02*
D03*
D56*
X97393Y666814D02*
D03*
X76393D02*
D03*
X97393Y647486D02*
D03*
X76393D02*
D03*
X97243Y628308D02*
D03*
X76243D02*
D03*
D57*
X352724Y336035D02*
D03*
Y353535D02*
D03*
D58*
X334014Y600396D02*
D03*
Y620396D02*
D03*
X360189Y600379D02*
D03*
Y620379D02*
D03*
D59*
X34405Y379249D02*
D03*
X34012Y561274D02*
D03*
D60*
X126306Y379249D02*
D03*
X125911Y561274D02*
D03*
D61*
X533191Y483203D02*
D03*
X548691D02*
D03*
D62*
X553216Y507564D02*
D03*
X535716D02*
D03*
D63*
X31524Y458979D02*
D03*
Y481979D02*
D03*
D64*
X59524Y483479D02*
D03*
Y457479D02*
D03*
Y476979D02*
D03*
Y470480D02*
D03*
Y463979D02*
D03*
D65*
X199084Y884499D02*
D03*
X299084D02*
D03*
X199084Y757498D02*
D03*
D66*
X299084D02*
D03*
D67*
X387967Y72111D02*
D03*
X429516Y616248D02*
D03*
X454916D02*
D03*
X480316D02*
D03*
X421675Y344204D02*
D03*
Y318804D02*
D03*
X389222Y862915D02*
D03*
Y837515D02*
D03*
Y786715D02*
D03*
Y735915D02*
D03*
Y761315D02*
D03*
Y812115D02*
D03*
X499996Y721784D02*
D03*
Y696384D02*
D03*
X255576Y68293D02*
D03*
X230176D02*
D03*
X179376D02*
D03*
X128576D02*
D03*
X153976D02*
D03*
X204776D02*
D03*
D68*
X387967Y97511D02*
D03*
X421675Y293404D02*
D03*
X389222Y710515D02*
D03*
X499996Y747184D02*
D03*
D69*
X537428Y40779D02*
D03*
X687428D02*
D03*
X737428D02*
D03*
X787428D02*
D03*
Y115778D02*
D03*
X737428D02*
D03*
X687428D02*
D03*
X537428D02*
D03*
X541859Y800750D02*
D03*
X691858D02*
D03*
X741859D02*
D03*
X791859D02*
D03*
Y875750D02*
D03*
X741859D02*
D03*
X691858D02*
D03*
X541859D02*
D03*
D70*
X404116Y616248D02*
D03*
X103176Y68293D02*
D03*
D71*
X62724Y492729D02*
D03*
Y448229D02*
D03*
D72*
X31524Y512230D02*
D03*
Y428729D02*
D03*
D73*
X847714Y434079D02*
D03*
Y399079D02*
D03*
X846768Y596467D02*
D03*
Y561467D02*
D03*
D74*
X847714Y364079D02*
D03*
X846768Y526467D02*
D03*
D75*
X31026Y890192D02*
D03*
X890392Y889500D02*
D03*
X891369Y31570D02*
D03*
X31609Y33036D02*
D03*
D76*
X270651Y850007D02*
D03*
X252223Y849568D02*
D03*
X148248Y158348D02*
D03*
X142130Y268876D02*
D03*
X52239Y729990D02*
D03*
X285235Y547000D02*
D03*
X229887Y799333D02*
D03*
X80879Y513775D02*
D03*
X14321Y796496D02*
D03*
X219339Y519134D02*
D03*
X340085Y409499D02*
D03*
X299943Y512089D02*
D03*
X126597Y797368D02*
D03*
X150111Y378687D02*
D03*
X373473Y369455D02*
D03*
X559409Y534015D02*
D03*
X528790Y534153D02*
D03*
X623392Y707586D02*
D03*
X337677Y788230D02*
D03*
X722306Y91764D02*
D03*
X641082Y43507D02*
D03*
D77*
X171803Y502744D02*
D03*
X161140Y500681D02*
D03*
X181652Y830651D02*
D03*
X28222Y824687D02*
D03*
X95377Y782083D02*
D03*
X117715Y782242D02*
D03*
X170124Y759886D02*
D03*
X153502Y732406D02*
D03*
X120114Y733886D02*
D03*
X608682Y408309D02*
D03*
X596630Y408372D02*
D03*
X608682Y419362D02*
D03*
X596505Y419675D02*
D03*
X105528Y793074D02*
D03*
X206998Y486654D02*
D03*
X208242Y552749D02*
D03*
X149536Y573147D02*
D03*
X86716Y745604D02*
D03*
X479707Y519945D02*
D03*
X441926Y531184D02*
D03*
X304628Y452651D02*
D03*
X117468Y476023D02*
D03*
X86152Y826475D02*
D03*
X38745Y653374D02*
D03*
X126402Y486398D02*
D03*
X127122Y460427D02*
D03*
X129099Y425374D02*
D03*
X261476Y425922D02*
D03*
D78*
X179274Y443207D02*
D03*
Y454207D02*
D03*
Y465207D02*
D03*
X168274Y443207D02*
D03*
Y454207D02*
D03*
Y465207D02*
D03*
X157274Y443207D02*
D03*
Y454207D02*
D03*
Y465207D02*
D03*
M02*
