G04*
G04 #@! TF.GenerationSoftware,Altium Limited,Altium Designer,24.10.1 (45)*
G04*
G04 Layer_Color=8421504*
%FSLAX44Y44*%
%MOMM*%
G71*
G04*
G04 #@! TF.SameCoordinates,9B87C798-A5EC-4888-A0B9-4BDBECF7F39D*
G04*
G04*
G04 #@! TF.FilePolarity,Positive*
G04*
G01*
G75*
%ADD19R,1.0500X1.4500*%
%ADD20R,1.3781X1.4562*%
%ADD21R,1.6000X1.2000*%
%ADD22R,1.3500X1.1000*%
%ADD23R,0.9000X1.5000*%
%ADD24R,1.5000X0.9000*%
%ADD25R,0.9000X0.9000*%
%ADD26R,1.1000X1.3500*%
%ADD27R,1.4000X0.9000*%
%ADD28R,1.4000X1.1000*%
%ADD29R,1.2500X1.4500*%
G04:AMPARAMS|DCode=30|XSize=2.1741mm|YSize=0.5821mm|CornerRadius=0.2911mm|HoleSize=0mm|Usage=FLASHONLY|Rotation=180.000|XOffset=0mm|YOffset=0mm|HoleType=Round|Shape=RoundedRectangle|*
%AMROUNDEDRECTD30*
21,1,2.1741,0.0000,0,0,180.0*
21,1,1.5919,0.5821,0,0,180.0*
1,1,0.5821,-0.7960,0.0000*
1,1,0.5821,0.7960,0.0000*
1,1,0.5821,0.7960,0.0000*
1,1,0.5821,-0.7960,0.0000*
%
%ADD30ROUNDEDRECTD30*%
%ADD31R,2.1741X0.5821*%
%ADD32R,1.1000X1.3000*%
%ADD33R,1.6000X2.8000*%
%ADD34R,1.4000X1.1000*%
%ADD35R,1.4500X1.2000*%
%ADD36R,0.9621X2.0542*%
G04:AMPARAMS|DCode=37|XSize=2.0542mm|YSize=0.9621mm|CornerRadius=0.4811mm|HoleSize=0mm|Usage=FLASHONLY|Rotation=270.000|XOffset=0mm|YOffset=0mm|HoleType=Round|Shape=RoundedRectangle|*
%AMROUNDEDRECTD37*
21,1,2.0542,0.0000,0,0,270.0*
21,1,1.0920,0.9621,0,0,270.0*
1,1,0.9621,0.0000,-0.5460*
1,1,0.9621,0.0000,0.5460*
1,1,0.9621,0.0000,0.5460*
1,1,0.9621,0.0000,-0.5460*
%
%ADD37ROUNDEDRECTD37*%
G04:AMPARAMS|DCode=38|XSize=2.0542mm|YSize=3.2621mm|CornerRadius=0.4827mm|HoleSize=0mm|Usage=FLASHONLY|Rotation=270.000|XOffset=0mm|YOffset=0mm|HoleType=Round|Shape=RoundedRectangle|*
%AMROUNDEDRECTD38*
21,1,2.0542,2.2967,0,0,270.0*
21,1,1.0887,3.2621,0,0,270.0*
1,1,0.9655,-1.1483,-0.5444*
1,1,0.9655,-1.1483,0.5444*
1,1,0.9655,1.1483,0.5444*
1,1,0.9655,1.1483,-0.5444*
%
%ADD38ROUNDEDRECTD38*%
%ADD39R,2.2000X1.6000*%
%ADD40R,2.1800X1.6000*%
%ADD41R,0.9500X1.3500*%
%ADD42R,1.1000X1.4000*%
%ADD43R,1.2621X0.9578*%
%ADD44R,1.9000X1.8000*%
%ADD45R,1.3500X0.4000*%
G36*
X41024Y427979D02*
Y426786D01*
X40110Y424581D01*
X38422Y422893D01*
X36217Y421979D01*
X26830D01*
X24625Y422893D01*
X22937Y424581D01*
X22024Y426786D01*
Y427979D01*
Y444479D01*
X41024D01*
Y427979D01*
D02*
G37*
G36*
X38422Y518066D02*
X40110Y516378D01*
X41024Y514173D01*
Y512979D01*
Y496479D01*
X22024D01*
Y512979D01*
Y514173D01*
X22937Y516378D01*
X24625Y518066D01*
X26830Y518979D01*
X36217D01*
X38422Y518066D01*
D02*
G37*
D19*
X683665Y397321D02*
D03*
X665165D02*
D03*
X684248Y374331D02*
D03*
X665748D02*
D03*
D20*
X713508Y312659D02*
D03*
X697738D02*
D03*
D21*
X295161Y230646D02*
D03*
X259161D02*
D03*
D22*
X329628Y355336D02*
D03*
Y341336D02*
D03*
X373655Y354819D02*
D03*
Y340819D02*
D03*
X288355Y272095D02*
D03*
Y258095D02*
D03*
X144315Y237942D02*
D03*
Y223942D02*
D03*
D23*
X327097Y564607D02*
D03*
X339797D02*
D03*
X352497D02*
D03*
X365197D02*
D03*
X377897D02*
D03*
X390597D02*
D03*
X403297D02*
D03*
X415997D02*
D03*
X428697D02*
D03*
X441397D02*
D03*
X454097D02*
D03*
X466797D02*
D03*
X479497D02*
D03*
X492197D02*
D03*
Y389606D02*
D03*
X479497D02*
D03*
X466797D02*
D03*
X454097D02*
D03*
X441397D02*
D03*
X428697D02*
D03*
X415997D02*
D03*
X403297D02*
D03*
X390597D02*
D03*
X377897D02*
D03*
X365197D02*
D03*
X352497D02*
D03*
X339797D02*
D03*
X327097D02*
D03*
D24*
X504697Y546957D02*
D03*
Y534257D02*
D03*
Y521557D02*
D03*
Y508857D02*
D03*
Y496157D02*
D03*
Y483457D02*
D03*
Y470757D02*
D03*
Y458057D02*
D03*
Y445357D02*
D03*
Y432657D02*
D03*
Y419957D02*
D03*
Y407257D02*
D03*
D25*
X390297Y476106D02*
D03*
Y462106D02*
D03*
Y448106D02*
D03*
X418297Y476106D02*
D03*
Y462106D02*
D03*
Y448106D02*
D03*
X404297Y476106D02*
D03*
Y448106D02*
D03*
Y462106D02*
D03*
D26*
X140903Y597763D02*
D03*
X126903D02*
D03*
X715180Y336732D02*
D03*
X701180D02*
D03*
D27*
X155923Y541833D02*
D03*
Y522832D02*
D03*
X133923D02*
D03*
D28*
Y539833D02*
D03*
D29*
X682991Y418283D02*
D03*
X666490D02*
D03*
D30*
X715855Y358891D02*
D03*
Y371591D02*
D03*
Y384291D02*
D03*
Y396991D02*
D03*
X763176D02*
D03*
Y384291D02*
D03*
Y371591D02*
D03*
D31*
Y358891D02*
D03*
D32*
X97393Y666814D02*
D03*
X76393D02*
D03*
X97393Y647486D02*
D03*
X76393D02*
D03*
X97243Y628308D02*
D03*
X76243D02*
D03*
D33*
X84710Y310414D02*
D03*
Y267415D02*
D03*
X198234Y312118D02*
D03*
Y269118D02*
D03*
D34*
X352724Y336035D02*
D03*
Y353535D02*
D03*
D35*
X334014Y600396D02*
D03*
Y620396D02*
D03*
X360189Y600379D02*
D03*
Y620379D02*
D03*
D36*
X228452Y223180D02*
D03*
X113352Y223459D02*
D03*
D37*
X205452Y223180D02*
D03*
X182452D02*
D03*
X90352Y223459D02*
D03*
X67352D02*
D03*
D38*
X205452Y159680D02*
D03*
X90352Y159959D02*
D03*
D39*
X34405Y379249D02*
D03*
X34012Y561274D02*
D03*
D40*
X126306Y379249D02*
D03*
X125911Y561274D02*
D03*
D41*
X533191Y483203D02*
D03*
X548691D02*
D03*
D42*
X553216Y507564D02*
D03*
X535716D02*
D03*
D43*
X260799Y258192D02*
D03*
Y272735D02*
D03*
D44*
X31524Y458979D02*
D03*
Y481979D02*
D03*
D45*
X59524Y483479D02*
D03*
Y457479D02*
D03*
Y476979D02*
D03*
Y470480D02*
D03*
Y463979D02*
D03*
M02*
