M48
;Layer_Color=9474304
;FILE_FORMAT=4:4
METRIC,LZ
;TYPE=PLATED
T01F00S00C0.2000
T02F00S00C0.5000
T04F00S00C0.7112
T06F00S00C1.0000
T07F00S00C1.1000
T08F00S00C1.2954
T09F00S00C1.3000
;TYPE=NON_PLATED
T10F00S00C3.0000
%
T01
X00397297Y00448106
X00404297Y00455106
X00411297Y00448106
X00418297Y00455106
Y00469107
X00404297
X00411297Y00476106
Y00462106
X00397297
Y00476106
X00390297Y00469107
Y00455106
X00179274Y00454207
Y00443207
X00168274
Y00454207
Y00465207
X00179274
X00157274
Y00454207
Y00443207
T02
X00441926Y00531184
X00479707Y00519945
X00596505Y00419675
X0059663Y00408372
X00608682Y00408309
Y00419362
X00304628Y00452651
X00261476Y00425922
X00206998Y00486654
X00171803Y00502744
X0016114Y00500681
X00126402Y00486398
X00117468Y00476023
X00127122Y00460427
X00129099Y00425374
X00149536Y00573147
X00208242Y00552749
X00153502Y00732406
X00120114Y00733886
X00086716Y00745604
X00095377Y00782083
X00105528Y00793074
X00117715Y00782242
X00170124Y00759886
X00038745Y00653374
X00028222Y00824687
X00086152Y00826475
X00181652Y00830651
T04
X00148248Y00158348
X0014213Y00268876
X00150111Y00378687
X00373473Y00369455
X00641082Y00043507
X00722306Y00091764
X00559409Y00534015
X0052879Y00534153
X00623392Y00707586
X00337677Y0078823
X00285235Y00547
X00299943Y00512089
X00219339Y00519134
X00080879Y00513775
X00052239Y0072999
X00340085Y00409499
X00229887Y00799333
X00252223Y00849568
X00270651Y00850007
X00126597Y00797368
X00014321Y00796496
T06
X00199084Y00757498
X00299084
Y00884499
X00199084
T07
X00103176Y00068293
X00128576
X00153976
X00179376
X00204776
X00230176
X00255576
X00387967Y00072111
Y00097511
X00421675Y00293404
Y00318804
Y00344204
X00429516Y00616248
X00404116
X00454916
X00480316
X00499996Y00696384
Y00721784
Y00747184
X00389222Y00735915
Y00710515
Y00761315
Y00786715
Y00812115
Y00837515
Y00862915
T08
X00537428Y00040779
Y00115778
X00687428
X00737428
X00787428
Y00040779
X00737428
X00687428
X00691858Y0080075
X00741859
X00791859
Y0087575
X00741859
X00691858
X00541859
Y0080075
T09
X00847714Y00364079
Y00399079
Y00434079
X00846768Y00526467
Y00561467
Y00596467
T10
X00031609Y00033036
X00891369Y0003157
X00031026Y00890192
X00890392Y008895
M30
