G04*
G04 #@! TF.GenerationSoftware,Altium Limited,Altium Designer,24.10.1 (45)*
G04*
G04 Layer_Color=32896*
%FSLAX44Y44*%
%MOMM*%
G71*
G04*
G04 #@! TF.SameCoordinates,9B87C798-A5EC-4888-A0B9-4BDBECF7F39D*
G04*
G04*
G04 #@! TF.FilePolarity,Positive*
G04*
G01*
G75*
%ADD10C,0.2000*%
%ADD12C,0.2500*%
%ADD14C,0.2540*%
%ADD85C,0.6000*%
D10*
X135946Y711593D02*
Y713593D01*
X123446Y711593D02*
Y713593D01*
X95698Y773722D02*
Y805322D01*
X144698Y773722D02*
Y805322D01*
X95698D02*
X144698D01*
X95698Y773722D02*
X144698D01*
X257141Y530733D02*
X259141D01*
X257141Y542234D02*
X259141D01*
X96556Y847120D02*
Y849120D01*
X85056Y847120D02*
Y849120D01*
X194774Y474206D02*
Y480707D01*
X188274D02*
X194774D01*
Y427707D02*
Y434207D01*
X188274Y427707D02*
X194774D01*
X141774D02*
X148274D01*
X141774D02*
Y434207D01*
Y474206D02*
Y480707D01*
X148274D01*
X480617Y819444D02*
X488767D01*
Y826044D01*
X480617Y848644D02*
X488767D01*
Y842044D02*
Y848644D01*
X508429Y83031D02*
X524428D01*
X508429Y67430D02*
Y83031D01*
X524428Y67430D02*
Y83031D01*
X508429Y67430D02*
X524428D01*
X186548Y711547D02*
Y713547D01*
X174048Y711547D02*
Y713547D01*
X43969Y623164D02*
Y625164D01*
X31469Y623164D02*
Y625164D01*
X136503Y525670D02*
Y527670D01*
X149003Y525670D02*
Y527670D01*
X182801Y392287D02*
X184801D01*
X182801Y403787D02*
X184801D01*
X83752Y692861D02*
Y705361D01*
Y732861D02*
Y745361D01*
X31252D02*
X83752D01*
X31252Y692861D02*
Y697361D01*
Y717861D02*
Y720361D01*
Y740861D02*
Y745361D01*
Y692861D02*
X83752D01*
X177675Y783332D02*
X179674D01*
X177675Y770832D02*
X179674D01*
X511589Y830449D02*
X527589D01*
Y846050D01*
X511589Y830449D02*
Y846050D01*
X527589D01*
X453249Y876700D02*
X455249D01*
X453249Y864199D02*
X455249D01*
X48929Y595082D02*
X77991D01*
X48929Y572520D02*
X77991D01*
X184156Y509706D02*
Y538768D01*
X206718Y509706D02*
Y538768D01*
X34012Y561562D02*
X60511D01*
X34012Y546062D02*
Y546349D01*
Y561274D02*
Y561562D01*
Y546062D02*
X60511D01*
Y546349D01*
Y561274D02*
Y561562D01*
X484484Y67820D02*
X491085D01*
Y75970D01*
X461884Y67820D02*
X468484D01*
X461884D02*
Y75970D01*
X228486Y460761D02*
X236636D01*
X228486Y454161D02*
Y460761D01*
Y431561D02*
X236636D01*
X228486D02*
Y438161D01*
X233500Y472060D02*
X241649D01*
Y478661D01*
X233500Y501260D02*
X241649D01*
Y494660D02*
Y501260D01*
X452966Y115964D02*
X454966D01*
X452966Y103464D02*
X454966D01*
D12*
X148998Y762122D02*
G03*
X148998Y762122I-1250J0D01*
G01*
X144524Y487206D02*
G03*
X144524Y487206I-1250J0D01*
G01*
X473517Y815044D02*
G03*
X473517Y815044I-1250J0D01*
G01*
X506078Y91580D02*
G03*
X506078Y91580I-1250J0D01*
G01*
X18502Y730861D02*
G03*
X18502Y730861I-1250J0D01*
G01*
X509239Y854600D02*
G03*
X509239Y854600I-1250J0D01*
G01*
X81207Y554024D02*
G03*
X81207Y554024I-1250J0D01*
G01*
X458734Y84320D02*
G03*
X458734Y84320I-1250J0D01*
G01*
X246236Y465161D02*
G03*
X246236Y465161I-1250J0D01*
G01*
X226400Y467660D02*
G03*
X226400Y467660I-1250J0D01*
G01*
D14*
X859392Y857374D02*
X920663D01*
X859392Y918753D02*
X920663D01*
Y857374D02*
Y918753D01*
X859392Y857374D02*
Y918753D01*
X1508Y857420D02*
X62780D01*
X1508Y918798D02*
X62780D01*
Y857420D02*
Y918798D01*
X1508Y857420D02*
Y918798D01*
X1358Y1112D02*
X62630D01*
X1358Y62490D02*
X62630D01*
Y1112D02*
Y62490D01*
X1358Y1112D02*
Y62490D01*
X860168Y378D02*
X921440D01*
X860168Y61757D02*
X921440D01*
Y378D02*
Y61757D01*
X860168Y378D02*
Y61757D01*
X63812Y153777D02*
X73809D01*
Y158775D01*
X72143Y160441D01*
X68810D01*
X67144Y158775D01*
Y153777D01*
X70476Y163773D02*
X63812D01*
X67144D01*
X68810Y165440D01*
X70476Y167106D01*
Y168772D01*
X63812Y175436D02*
Y178769D01*
X65478Y180435D01*
X68810D01*
X70476Y178769D01*
Y175436D01*
X68810Y173770D01*
X65478D01*
X63812Y175436D01*
X60480Y183767D02*
Y185433D01*
X62146Y187099D01*
X70476D01*
X63812Y198762D02*
Y195430D01*
X65478Y193764D01*
X68810D01*
X70476Y195430D01*
Y198762D01*
X68810Y200428D01*
X67144D01*
Y193764D01*
X70476Y210425D02*
Y205427D01*
X68810Y203761D01*
X65478D01*
X63812Y205427D01*
Y210425D01*
X72143Y215424D02*
X70476D01*
Y213757D01*
Y217090D01*
Y215424D01*
X65478D01*
X63812Y217090D01*
X73809Y232085D02*
X63812D01*
Y237083D01*
X65478Y238749D01*
X67144D01*
X68810D01*
X70476Y237083D01*
Y232085D01*
Y242082D02*
X65478D01*
X63812Y243748D01*
Y248746D01*
X62146D01*
X60480Y247080D01*
Y245414D01*
X63812Y248746D02*
X70476D01*
Y262075D02*
Y263741D01*
X68810D01*
Y262075D01*
X70476D01*
X65478D02*
Y263741D01*
X63812D01*
Y262075D01*
X65478D01*
X68810Y280403D02*
Y287067D01*
X42387Y153777D02*
X52384D01*
X42387Y160441D01*
X52384D01*
X42387Y168772D02*
Y165440D01*
X44054Y163773D01*
X47386D01*
X49052Y165440D01*
Y168772D01*
X47386Y170438D01*
X45720D01*
Y163773D01*
X42387Y173770D02*
Y177103D01*
Y175436D01*
X49052D01*
Y173770D01*
X42387Y182101D02*
Y185433D01*
Y183767D01*
X52384D01*
Y182101D01*
Y200428D02*
X42387D01*
X45720D01*
X52384Y207093D01*
X47386Y202094D01*
X42387Y207093D01*
Y210425D02*
Y213757D01*
Y212091D01*
X52384D01*
Y210425D01*
X42387Y218756D02*
Y222088D01*
Y220422D01*
X49052D01*
Y218756D01*
X42387Y227086D02*
X49052D01*
Y232085D01*
X47386Y233751D01*
X42387D01*
X39055Y240415D02*
Y242082D01*
X40721Y243748D01*
X49052D01*
Y238749D01*
X47386Y237083D01*
X44054D01*
X42387Y238749D01*
Y243748D01*
Y252078D02*
Y248746D01*
X44054Y247080D01*
X47386D01*
X49052Y248746D01*
Y252078D01*
X47386Y253745D01*
X45720D01*
Y247080D01*
X42387Y257077D02*
X49052D01*
Y262075D01*
X47386Y263741D01*
X42387D01*
Y267073D02*
Y272072D01*
X44054Y273738D01*
X45720Y272072D01*
Y268740D01*
X47386Y267073D01*
X49052Y268740D01*
Y273738D01*
X42387Y277070D02*
X49052D01*
Y278736D01*
X47386Y280403D01*
X42387D01*
X47386D01*
X49052Y282069D01*
X47386Y283735D01*
X42387D01*
Y287067D02*
Y290399D01*
Y288733D01*
X49052D01*
Y287067D01*
X50718Y297064D02*
X49052D01*
Y295398D01*
Y298730D01*
Y297064D01*
X44054D01*
X42387Y298730D01*
X52384Y303728D02*
X42387D01*
X47386D01*
X49052Y305394D01*
Y308727D01*
X47386Y310393D01*
X42387D01*
Y330386D02*
X44054Y328720D01*
X42387Y327054D01*
Y325388D01*
X44054Y323722D01*
X45720D01*
X47386Y325388D01*
X49052Y323722D01*
X50718D01*
X52384Y325388D01*
Y327054D01*
X50718Y328720D01*
X49052D01*
X47386Y327054D01*
X45720Y328720D01*
X44054D01*
X47386Y330386D02*
X45720Y328720D01*
X47386Y325388D02*
Y327054D01*
X20963Y153777D02*
X30960D01*
Y158775D01*
X29294Y160441D01*
X25961D01*
X24295Y158775D01*
Y153777D01*
Y157109D02*
X20963Y160441D01*
X27628Y163773D02*
X22629D01*
X20963Y165440D01*
Y170438D01*
X27628D01*
X20963Y173770D02*
Y178769D01*
X22629Y180435D01*
X24295Y178769D01*
Y175436D01*
X25961Y173770D01*
X27628Y175436D01*
Y180435D01*
X30960Y183767D02*
X20963D01*
X25961D01*
X27628Y185433D01*
Y188766D01*
X25961Y190432D01*
X20963D01*
Y193764D02*
Y197096D01*
Y195430D01*
X27628D01*
Y193764D01*
X20963Y202094D02*
X30960D01*
X24295D02*
X27628Y207093D01*
X24295Y202094D02*
X20963Y207093D01*
Y217090D02*
Y213757D01*
X22629Y212091D01*
X25961D01*
X27628Y213757D01*
Y217090D01*
X25961Y218756D01*
X24295D01*
Y212091D01*
X20963Y222088D02*
Y227086D01*
X22629Y228753D01*
X24295Y227086D01*
Y223754D01*
X25961Y222088D01*
X27628Y223754D01*
Y228753D01*
X30960Y232085D02*
X20963D01*
X25961D01*
X27628Y233751D01*
Y237083D01*
X25961Y238749D01*
X20963D01*
Y252078D02*
X30960D01*
Y257077D01*
X29294Y258743D01*
X25961D01*
X24295Y257077D01*
Y252078D01*
Y255411D02*
X20963Y258743D01*
Y262075D02*
X22629D01*
Y263741D01*
X20963D01*
Y262075D01*
X29294Y287067D02*
X30960Y285401D01*
Y282069D01*
X29294Y280403D01*
X27628D01*
X25961Y282069D01*
Y285401D01*
X24295Y287067D01*
X22629D01*
X20963Y285401D01*
Y282069D01*
X22629Y280403D01*
X30960Y290399D02*
X20963D01*
X25961D01*
X27628Y292066D01*
Y295398D01*
X25961Y297064D01*
X20963D01*
Y300396D02*
Y303728D01*
Y302062D01*
X27628D01*
Y300396D01*
Y308727D02*
X20963D01*
X24295D01*
X25961Y310393D01*
X27628Y312059D01*
Y313725D01*
X20963Y318724D02*
Y323722D01*
X22629Y325388D01*
X24295Y323722D01*
Y320390D01*
X25961Y318724D01*
X27628Y320390D01*
Y325388D01*
Y330387D02*
Y333719D01*
X25961Y335385D01*
X20963D01*
Y330387D01*
X22629Y328720D01*
X24295Y330387D01*
Y335385D01*
X29294Y340383D02*
X27628D01*
Y338717D01*
Y342049D01*
Y340383D01*
X22629D01*
X20963Y342049D01*
X580654Y687059D02*
X575322D01*
Y691057D01*
X577988D01*
X575322D01*
Y695056D01*
X583320Y687059D02*
Y695056D01*
X587318D01*
X588651Y693723D01*
Y692390D01*
X587318Y691057D01*
X583320D01*
X587318D01*
X588651Y689725D01*
Y688392D01*
X587318Y687059D01*
X583320D01*
X591317Y688392D02*
X592650Y687059D01*
X595316D01*
X596648Y688392D01*
Y689725D01*
X595316Y691057D01*
X593983D01*
X595316D01*
X596648Y692390D01*
Y693723D01*
X595316Y695056D01*
X592650D01*
X591317Y693723D01*
X581103Y663903D02*
X575772D01*
Y667901D01*
X578438D01*
X575772D01*
Y671900D01*
X583769Y663903D02*
Y671900D01*
X587768D01*
X589101Y670567D01*
Y669234D01*
X587768Y667901D01*
X583769D01*
X587768D01*
X589101Y666569D01*
Y665236D01*
X587768Y663903D01*
X583769D01*
X591767Y671900D02*
X594432D01*
X593100D01*
Y663903D01*
X591767Y665236D01*
X140761Y411831D02*
X147426D01*
X148759Y410498D01*
Y407832D01*
X147426Y406499D01*
X140761D01*
Y398502D02*
X142094Y401168D01*
X144760Y403834D01*
X147426D01*
X148759Y402501D01*
Y399835D01*
X147426Y398502D01*
X146093D01*
X144760Y399835D01*
Y403834D01*
X110108Y742916D02*
Y736251D01*
X108775Y734918D01*
X106109D01*
X104776Y736251D01*
Y742916D01*
X96779D02*
X102110D01*
Y738917D01*
X99445Y740250D01*
X98111D01*
X96779Y738917D01*
Y736251D01*
X98111Y734918D01*
X100777D01*
X102110Y736251D01*
X195114Y374461D02*
Y382458D01*
X191115D01*
X189783Y381125D01*
Y378460D01*
X191115Y377127D01*
X195114D01*
X192449D02*
X189783Y374461D01*
X181785D02*
X187117D01*
X181785Y379792D01*
Y381125D01*
X183118Y382458D01*
X185784D01*
X187117Y381125D01*
X179119Y375794D02*
X177787Y374461D01*
X175121D01*
X173788Y375794D01*
Y381125D01*
X175121Y382458D01*
X177787D01*
X179119Y381125D01*
Y379792D01*
X177787Y378460D01*
X173788D01*
X147713Y570538D02*
X139716D01*
Y566539D01*
X141049Y565206D01*
X143715D01*
X145048Y566539D01*
Y570538D01*
Y567872D02*
X147713Y565206D01*
Y557209D02*
Y562540D01*
X142382Y557209D01*
X141049D01*
X139716Y558542D01*
Y561207D01*
X141049Y562540D01*
Y554543D02*
X139716Y553210D01*
Y550544D01*
X141049Y549211D01*
X142382D01*
X143715Y550544D01*
X145048Y549211D01*
X146381D01*
X147713Y550544D01*
Y553210D01*
X146381Y554543D01*
X145048D01*
X143715Y553210D01*
X142382Y554543D01*
X141049D01*
X143715Y553210D02*
Y550544D01*
X271782Y500351D02*
Y492353D01*
X275781D01*
X277114Y493686D01*
Y496352D01*
X275781Y497685D01*
X271782D01*
X274448D02*
X277114Y500351D01*
X285112D02*
X279780D01*
X285112Y495019D01*
Y493686D01*
X283779Y492353D01*
X281113D01*
X279780Y493686D01*
X287777Y492353D02*
X293109D01*
Y493686D01*
X287777Y499018D01*
Y500351D01*
X270394Y549378D02*
Y557375D01*
X266395D01*
X265062Y556042D01*
Y553376D01*
X266395Y552043D01*
X270394D01*
X267728D02*
X265062Y549378D01*
X257065D02*
X262396D01*
X257065Y554709D01*
Y556042D01*
X258398Y557375D01*
X261063D01*
X262396Y556042D01*
X249067Y557375D02*
X251733Y556042D01*
X254399Y553376D01*
Y550710D01*
X253066Y549378D01*
X250400D01*
X249067Y550710D01*
Y552043D01*
X250400Y553376D01*
X254399D01*
X114353Y490937D02*
Y498935D01*
X110354D01*
X109022Y497602D01*
Y494936D01*
X110354Y493603D01*
X114353D01*
X111687D02*
X109022Y490937D01*
X101024D02*
X106356D01*
X101024Y496269D01*
Y497602D01*
X102357Y498935D01*
X105023D01*
X106356Y497602D01*
X93027Y498935D02*
X98358D01*
Y494936D01*
X95693Y496269D01*
X94360D01*
X93027Y494936D01*
Y492270D01*
X94360Y490937D01*
X97025D01*
X98358Y492270D01*
X271202Y436102D02*
Y428104D01*
X275201D01*
X276534Y429437D01*
Y432103D01*
X275201Y433436D01*
X271202D01*
X273868D02*
X276534Y436102D01*
X284531D02*
X279200D01*
X284531Y430770D01*
Y429437D01*
X283199Y428104D01*
X280533D01*
X279200Y429437D01*
X291196Y436102D02*
Y428104D01*
X287197Y432103D01*
X292529D01*
X34545Y809479D02*
Y817477D01*
X30546D01*
X29213Y816144D01*
Y813478D01*
X30546Y812145D01*
X34545D01*
X31879D02*
X29213Y809479D01*
X21216D02*
X26548D01*
X21216Y814811D01*
Y816144D01*
X22549Y817477D01*
X25215D01*
X26548Y816144D01*
X18550D02*
X17217Y817477D01*
X14551D01*
X13218Y816144D01*
Y814811D01*
X14551Y813478D01*
X15884D01*
X14551D01*
X13218Y812145D01*
Y810812D01*
X14551Y809479D01*
X17217D01*
X18550Y810812D01*
X35146Y832174D02*
Y840171D01*
X31147D01*
X29815Y838838D01*
Y836172D01*
X31147Y834839D01*
X35146D01*
X32480D02*
X29815Y832174D01*
X21817D02*
X27149D01*
X21817Y837505D01*
Y838838D01*
X23150Y840171D01*
X25816D01*
X27149Y838838D01*
X13820Y832174D02*
X19151D01*
X13820Y837505D01*
Y838838D01*
X15152Y840171D01*
X17818D01*
X19151Y838838D01*
X132701Y691334D02*
X124704D01*
Y687336D01*
X126037Y686003D01*
X128703D01*
X130036Y687336D01*
Y691334D01*
Y688669D02*
X132701Y686003D01*
Y678005D02*
Y683337D01*
X127370Y678005D01*
X126037D01*
X124704Y679338D01*
Y682004D01*
X126037Y683337D01*
X132701Y675340D02*
Y672674D01*
Y674007D01*
X124704D01*
X126037Y675340D01*
X44815Y755019D02*
Y763017D01*
X40816D01*
X39483Y761684D01*
Y759018D01*
X40816Y757685D01*
X44815D01*
X42149D02*
X39483Y755019D01*
X31486D02*
X36818D01*
X31486Y760351D01*
Y761684D01*
X32819Y763017D01*
X35485D01*
X36818Y761684D01*
X28820D02*
X27487Y763017D01*
X24822D01*
X23489Y761684D01*
Y756352D01*
X24822Y755019D01*
X27487D01*
X28820Y756352D01*
Y761684D01*
X31581Y676319D02*
Y684317D01*
X27582D01*
X26249Y682984D01*
Y680318D01*
X27582Y678985D01*
X31581D01*
X28915D02*
X26249Y676319D01*
X23583D02*
X20917D01*
X22250D01*
Y684317D01*
X23583Y682984D01*
X16919Y677652D02*
X15586Y676319D01*
X12920D01*
X11587Y677652D01*
Y682984D01*
X12920Y684317D01*
X15586D01*
X16919Y682984D01*
Y681651D01*
X15586Y680318D01*
X11587D01*
X52996Y611058D02*
X60994D01*
Y615057D01*
X59661Y616390D01*
X56995D01*
X55662Y615057D01*
Y611058D01*
Y613724D02*
X52996Y616390D01*
Y619056D02*
Y621722D01*
Y620389D01*
X60994D01*
X59661Y619056D01*
Y625720D02*
X60994Y627053D01*
Y629719D01*
X59661Y631052D01*
X58328D01*
X56995Y629719D01*
X55662Y631052D01*
X54329D01*
X52996Y629719D01*
Y627053D01*
X54329Y625720D01*
X55662D01*
X56995Y627053D01*
X58328Y625720D01*
X59661D01*
X56995Y627053D02*
Y629719D01*
X44243Y778018D02*
Y786016D01*
X40244D01*
X38911Y784683D01*
Y782017D01*
X40244Y780684D01*
X44243D01*
X41577D02*
X38911Y778018D01*
X36246D02*
X33580D01*
X34913D01*
Y786016D01*
X36246Y784683D01*
X24249Y786016D02*
X29581D01*
Y782017D01*
X26915Y783350D01*
X25582D01*
X24249Y782017D01*
Y779351D01*
X25582Y778018D01*
X28248D01*
X29581Y779351D01*
X86685Y869116D02*
X94682D01*
Y873115D01*
X93350Y874448D01*
X90684D01*
X89351Y873115D01*
Y869116D01*
Y871782D02*
X86685Y874448D01*
Y877114D02*
Y879780D01*
Y878447D01*
X94682D01*
X93350Y877114D01*
X86685Y887777D02*
X94682D01*
X90684Y883778D01*
Y889110D01*
X138030Y893208D02*
X130033D01*
Y889209D01*
X131366Y887876D01*
X134031D01*
X135364Y889209D01*
Y893208D01*
Y890542D02*
X138030Y887876D01*
Y885210D02*
Y882544D01*
Y883877D01*
X130033D01*
X131366Y885210D01*
Y878546D02*
X130033Y877213D01*
Y874547D01*
X131366Y873214D01*
X132699D01*
X134031Y874547D01*
Y875880D01*
Y874547D01*
X135364Y873214D01*
X136697D01*
X138030Y874547D01*
Y877213D01*
X136697Y878546D01*
X316402Y803793D02*
Y811791D01*
X312404D01*
X311071Y810458D01*
Y807792D01*
X312404Y806459D01*
X316402D01*
X313737D02*
X311071Y803793D01*
X308405D02*
X305739D01*
X307072D01*
Y811791D01*
X308405Y810458D01*
X296409Y803793D02*
X301740D01*
X296409Y809125D01*
Y810458D01*
X297742Y811791D01*
X300408D01*
X301740Y810458D01*
X188593Y690619D02*
X180595D01*
Y686620D01*
X181928Y685287D01*
X184594D01*
X185927Y686620D01*
Y690619D01*
Y687953D02*
X188593Y685287D01*
Y682622D02*
Y679956D01*
Y681289D01*
X180595D01*
X181928Y682622D01*
X188593Y675957D02*
Y673291D01*
Y674624D01*
X180595D01*
X181928Y675957D01*
X219009Y772548D02*
Y780545D01*
X215011D01*
X213678Y779212D01*
Y776546D01*
X215011Y775213D01*
X219009D01*
X216344D02*
X213678Y772548D01*
X211012D02*
X208346D01*
X209679D01*
Y780545D01*
X211012Y779212D01*
X204347D02*
X203015Y780545D01*
X200349D01*
X199016Y779212D01*
Y773880D01*
X200349Y772548D01*
X203015D01*
X204347Y773880D01*
Y779212D01*
X427120Y843641D02*
X419123D01*
Y839643D01*
X420456Y838310D01*
X423122D01*
X424455Y839643D01*
Y843641D01*
Y840975D02*
X427120Y838310D01*
X420456Y835644D02*
X419123Y834311D01*
Y831645D01*
X420456Y830312D01*
X421789D01*
X423122Y831645D01*
X424455Y830312D01*
X425788D01*
X427120Y831645D01*
Y834311D01*
X425788Y835644D01*
X424455D01*
X423122Y834311D01*
X421789Y835644D01*
X420456D01*
X423122Y834311D02*
Y831645D01*
X449043Y48005D02*
X441045D01*
Y44006D01*
X442378Y42674D01*
X445044D01*
X446377Y44006D01*
Y48005D01*
Y45339D02*
X449043Y42674D01*
X441045Y40008D02*
Y34676D01*
X442378D01*
X447710Y40008D01*
X449043D01*
X422964Y869117D02*
Y877115D01*
X418965D01*
X417632Y875782D01*
Y873116D01*
X418965Y871783D01*
X422964D01*
X420298D02*
X417632Y869117D01*
X409635Y877115D02*
X412300Y875782D01*
X414966Y873116D01*
Y870450D01*
X413633Y869117D01*
X410968D01*
X409635Y870450D01*
Y871783D01*
X410968Y873116D01*
X414966D01*
X490854Y107366D02*
Y115363D01*
X486856D01*
X485523Y114031D01*
Y111365D01*
X486856Y110032D01*
X490854D01*
X488189D02*
X485523Y107366D01*
X477525Y115363D02*
X482857D01*
Y111365D01*
X480191Y112697D01*
X478858D01*
X477525Y111365D01*
Y108699D01*
X478858Y107366D01*
X481524D01*
X482857Y108699D01*
X233867Y514531D02*
Y519863D01*
X235200Y521195D01*
X237865D01*
X239198Y519863D01*
Y514531D01*
X237865Y513198D01*
X235200D01*
X236532Y515864D02*
X233867Y513198D01*
X235200D02*
X233867Y514531D01*
X227202Y513198D02*
Y521195D01*
X231201Y517197D01*
X225869D01*
X213792Y435618D02*
Y430287D01*
X212459Y428954D01*
X209793D01*
X208460Y430287D01*
Y435618D01*
X209793Y436951D01*
X212459D01*
X211126Y434285D02*
X213792Y436951D01*
X212459D02*
X213792Y435618D01*
X216458Y430287D02*
X217791Y428954D01*
X220457D01*
X221789Y430287D01*
Y431619D01*
X220457Y432952D01*
X219124D01*
X220457D01*
X221789Y434285D01*
Y435618D01*
X220457Y436951D01*
X217791D01*
X216458Y435618D01*
X487085Y862658D02*
Y857326D01*
X485752Y855993D01*
X483086D01*
X481753Y857326D01*
Y862658D01*
X483086Y863991D01*
X485752D01*
X484419Y861325D02*
X487085Y863991D01*
X485752D02*
X487085Y862658D01*
X495082Y863991D02*
X489750D01*
X495082Y858659D01*
Y857326D01*
X493749Y855993D01*
X491083D01*
X489750Y857326D01*
X489469Y45927D02*
Y51259D01*
X490802Y52592D01*
X493468D01*
X494801Y51259D01*
Y45927D01*
X493468Y44594D01*
X490802D01*
X492135Y47260D02*
X489469Y44594D01*
X490802D02*
X489469Y45927D01*
X486803Y44594D02*
X484138D01*
X485471D01*
Y52592D01*
X486803Y51259D01*
X53223Y536326D02*
Y528328D01*
X49225D01*
X47892Y529661D01*
Y534993D01*
X49225Y536326D01*
X53223D01*
X39894D02*
X42560Y534993D01*
X45226Y532327D01*
Y529661D01*
X43893Y528328D01*
X41227D01*
X39894Y529661D01*
Y530994D01*
X41227Y532327D01*
X45226D01*
X538289Y844273D02*
X546286D01*
Y840274D01*
X544953Y838941D01*
X539622D01*
X538289Y840274D01*
Y844273D01*
X546286Y830944D02*
Y836275D01*
X540955Y830944D01*
X539622D01*
X538289Y832277D01*
Y834942D01*
X539622Y836275D01*
X543064Y70151D02*
X535066D01*
Y74149D01*
X536399Y75482D01*
X541731D01*
X543064Y74149D01*
Y70151D01*
X535066Y78148D02*
Y80814D01*
Y79481D01*
X543064D01*
X541731Y78148D01*
X198074Y551052D02*
X199406Y549719D01*
Y547053D01*
X198074Y545720D01*
X192742D01*
X191409Y547053D01*
Y549719D01*
X192742Y551052D01*
X191409Y553717D02*
Y556383D01*
Y555050D01*
X199406D01*
X198074Y553717D01*
X192742Y560382D02*
X191409Y561715D01*
Y564381D01*
X192742Y565714D01*
X198074D01*
X199406Y564381D01*
Y561715D01*
X198074Y560382D01*
X196741D01*
X195408Y561715D01*
Y565714D01*
X266300Y396939D02*
X267633Y395606D01*
Y392940D01*
X266300Y391607D01*
X260968D01*
X259635Y392940D01*
Y395606D01*
X260968Y396939D01*
X259635Y404936D02*
Y399604D01*
X264967Y404936D01*
X266300D01*
X267633Y403603D01*
Y400937D01*
X266300Y399604D01*
Y407602D02*
X267633Y408935D01*
Y411601D01*
X266300Y412934D01*
X260968D01*
X259635Y411601D01*
Y408935D01*
X260968Y407602D01*
X266300D01*
X171716Y555404D02*
X173049Y554071D01*
Y551405D01*
X171716Y550072D01*
X166384D01*
X165051Y551405D01*
Y554071D01*
X166384Y555404D01*
X165051Y563401D02*
Y558070D01*
X170383Y563401D01*
X171716D01*
X173049Y562068D01*
Y559403D01*
X171716Y558070D01*
X165051Y566067D02*
Y568733D01*
Y567400D01*
X173049D01*
X171716Y566067D01*
X27736Y586166D02*
X29069Y587499D01*
X31735D01*
X33068Y586166D01*
Y580835D01*
X31735Y579502D01*
X29069D01*
X27736Y580835D01*
X25070Y579502D02*
X22404D01*
X23737D01*
Y587499D01*
X25070Y586166D01*
X18406Y587499D02*
X13074D01*
Y586166D01*
X18406Y580835D01*
Y579502D01*
X112703Y564122D02*
X114036Y565455D01*
X116702D01*
X118035Y564122D01*
Y558790D01*
X116702Y557457D01*
X114036D01*
X112703Y558790D01*
X110037Y557457D02*
X107372D01*
X108705D01*
Y565455D01*
X110037Y564122D01*
X98041Y565455D02*
X100707Y564122D01*
X103373Y561456D01*
Y558790D01*
X102040Y557457D01*
X99374D01*
X98041Y558790D01*
Y560123D01*
X99374Y561456D01*
X103373D01*
X103457Y686421D02*
X102124Y687754D01*
Y690420D01*
X103457Y691753D01*
X108789D01*
X110122Y690420D01*
Y687754D01*
X108789Y686421D01*
X110122Y683755D02*
Y681089D01*
Y682422D01*
X102124D01*
X103457Y683755D01*
X102124Y671759D02*
Y677091D01*
X106123D01*
X104790Y674425D01*
Y673092D01*
X106123Y671759D01*
X108789D01*
X110122Y673092D01*
Y675758D01*
X108789Y677091D01*
X107979Y888223D02*
X106646Y889556D01*
Y892222D01*
X107979Y893555D01*
X113310D01*
X114643Y892222D01*
Y889556D01*
X113310Y888223D01*
X114643Y885557D02*
Y882891D01*
Y884224D01*
X106646D01*
X107979Y885557D01*
X114643Y874894D02*
X106646D01*
X110644Y878893D01*
Y873561D01*
X164400Y851499D02*
X165733Y850166D01*
Y847500D01*
X164400Y846167D01*
X159068D01*
X157736Y847500D01*
Y850166D01*
X159068Y851499D01*
X157736Y854165D02*
Y856830D01*
Y855498D01*
X165733D01*
X164400Y854165D01*
Y860829D02*
X165733Y862162D01*
Y864828D01*
X164400Y866161D01*
X163067D01*
X161734Y864828D01*
Y863495D01*
Y864828D01*
X160401Y866161D01*
X159068D01*
X157736Y864828D01*
Y862162D01*
X159068Y860829D01*
X155195Y686209D02*
X153863Y687542D01*
Y690208D01*
X155195Y691541D01*
X160527D01*
X161860Y690208D01*
Y687542D01*
X160527Y686209D01*
X161860Y683543D02*
Y680878D01*
Y682210D01*
X153863D01*
X155195Y683543D01*
X161860Y676879D02*
Y674213D01*
Y675546D01*
X153863D01*
X155195Y676879D01*
X208496Y796777D02*
X209829Y795444D01*
Y792778D01*
X208496Y791446D01*
X203164D01*
X201831Y792778D01*
Y795444D01*
X203164Y796777D01*
Y799443D02*
X201831Y800776D01*
Y803442D01*
X203164Y804775D01*
X208496D01*
X209829Y803442D01*
Y800776D01*
X208496Y799443D01*
X207163D01*
X205830Y800776D01*
Y804775D01*
D85*
X138198Y783772D02*
G03*
X138198Y783772I-3000J0D01*
G01*
M02*
