G04*
G04 #@! TF.GenerationSoftware,Altium Limited,Altium Designer,24.10.1 (45)*
G04*
G04 Layer_Color=16711935*
%FSLAX44Y44*%
%MOMM*%
G71*
G04*
G04 #@! TF.SameCoordinates,9B87C798-A5EC-4888-A0B9-4BDBECF7F39D*
G04*
G04*
G04 #@! TF.FilePolarity,Negative*
G04*
G01*
G75*
%ADD20R,1.3781X1.4562*%
%ADD46R,1.2532X1.6532*%
%ADD48R,1.5532X1.3032*%
%ADD52R,1.3032X1.5532*%
%ADD57R,1.6032X1.3032*%
%ADD58R,1.6532X1.4032*%
%ADD62R,1.3032X1.6032*%
%ADD65C,1.7112*%
%ADD66R,1.7112X1.7112*%
%ADD67C,1.8032*%
G04:AMPARAMS|DCode=68|XSize=1.8032mm|YSize=1.8032mm|CornerRadius=0.5016mm|HoleSize=0mm|Usage=FLASHONLY|Rotation=270.000|XOffset=0mm|YOffset=0mm|HoleType=Round|Shape=RoundedRectangle|*
%AMROUNDEDRECTD68*
21,1,1.8032,0.8000,0,0,270.0*
21,1,0.8000,1.8032,0,0,270.0*
1,1,1.0032,-0.4000,-0.4000*
1,1,1.0032,-0.4000,0.4000*
1,1,1.0032,0.4000,0.4000*
1,1,1.0032,0.4000,-0.4000*
%
%ADD68ROUNDEDRECTD68*%
%ADD69C,1.8034*%
G04:AMPARAMS|DCode=70|XSize=1.8032mm|YSize=1.8032mm|CornerRadius=0.5016mm|HoleSize=0mm|Usage=FLASHONLY|Rotation=0.000|XOffset=0mm|YOffset=0mm|HoleType=Round|Shape=RoundedRectangle|*
%AMROUNDEDRECTD70*
21,1,1.8032,0.8000,0,0,0.0*
21,1,0.8000,1.8032,0,0,0.0*
1,1,1.0032,0.4000,-0.4000*
1,1,1.0032,-0.4000,-0.4000*
1,1,1.0032,-0.4000,0.4000*
1,1,1.0032,0.4000,0.4000*
%
%ADD70ROUNDEDRECTD70*%
%ADD71O,1.2532X1.3532*%
%ADD72O,1.5032X0.9532*%
%ADD73C,2.1532*%
G04:AMPARAMS|DCode=74|XSize=2.1532mm|YSize=2.1532mm|CornerRadius=0.5891mm|HoleSize=0mm|Usage=FLASHONLY|Rotation=90.000|XOffset=0mm|YOffset=0mm|HoleType=Round|Shape=RoundedRectangle|*
%AMROUNDEDRECTD74*
21,1,2.1532,0.9750,0,0,90.0*
21,1,0.9750,2.1532,0,0,90.0*
1,1,1.1782,0.4875,0.4875*
1,1,1.1782,0.4875,-0.4875*
1,1,1.1782,-0.4875,-0.4875*
1,1,1.1782,-0.4875,0.4875*
%
%ADD74ROUNDEDRECTD74*%
%ADD75C,1.7272*%
%ADD76C,1.4732*%
%ADD77C,1.0032*%
%ADD78C,0.7032*%
%ADD121R,1.3000X1.3000*%
%ADD122R,1.3000X2.0000*%
%ADD124R,1.4562X1.3781*%
%ADD125R,1.5575X0.7425*%
G04:AMPARAMS|DCode=126|XSize=1.5575mm|YSize=0.7425mm|CornerRadius=0.3712mm|HoleSize=0mm|Usage=FLASHONLY|Rotation=180.000|XOffset=0mm|YOffset=0mm|HoleType=Round|Shape=RoundedRectangle|*
%AMROUNDEDRECTD126*
21,1,1.5575,0.0000,0,0,180.0*
21,1,0.8150,0.7425,0,0,180.0*
1,1,0.7425,-0.4075,0.0000*
1,1,0.7425,0.4075,0.0000*
1,1,0.7425,0.4075,0.0000*
1,1,0.7425,-0.4075,0.0000*
%
%ADD126ROUNDEDRECTD126*%
%ADD129R,1.6532X1.2532*%
%ADD130R,0.8032X1.7232*%
%ADD131R,1.2032X1.5532*%
%ADD132R,1.5532X1.0532*%
%ADD133R,3.3332X3.3332*%
%ADD134O,1.0532X0.4032*%
%ADD135O,0.4032X1.0532*%
%ADD136R,1.1032X1.0032*%
%ADD137R,1.4232X1.1132*%
%ADD138R,1.6532X1.5032*%
%ADD139R,1.5032X1.6532*%
%ADD140R,1.6032X1.2032*%
%ADD141R,1.5532X1.7532*%
%ADD142R,1.3532X1.6532*%
%ADD143R,1.4032X1.6532*%
%ADD144R,1.0032X1.1032*%
D20*
X55372Y583801D02*
D03*
X71101D02*
D03*
D46*
X187924Y777082D02*
D03*
X169425D02*
D03*
D48*
X161800Y830879D02*
D03*
Y816878D02*
D03*
X112778Y841024D02*
D03*
Y855024D02*
D03*
X169058Y530535D02*
D03*
Y516535D02*
D03*
X244917Y397386D02*
D03*
Y411386D02*
D03*
D52*
X102012Y539645D02*
D03*
X116012D02*
D03*
D57*
X444467Y826336D02*
D03*
Y843836D02*
D03*
X133394Y842773D02*
D03*
Y860273D02*
D03*
X444405Y85382D02*
D03*
Y67882D02*
D03*
D58*
X37719Y614164D02*
D03*
Y634164D02*
D03*
X142753Y536670D02*
D03*
Y516670D02*
D03*
D62*
X289504Y477353D02*
D03*
X272003D02*
D03*
X289552Y451682D02*
D03*
X272052D02*
D03*
X58763Y763393D02*
D03*
X76263D02*
D03*
X49287Y831905D02*
D03*
X66787D02*
D03*
X49338Y808966D02*
D03*
X66838D02*
D03*
X58556Y786218D02*
D03*
X76056D02*
D03*
D65*
X199084Y884499D02*
D03*
X299084D02*
D03*
X199084Y757498D02*
D03*
D66*
X299084D02*
D03*
D67*
X387967Y72111D02*
D03*
X429516Y616248D02*
D03*
X454916D02*
D03*
X480316D02*
D03*
X421675Y344204D02*
D03*
Y318804D02*
D03*
X389222Y862915D02*
D03*
Y837515D02*
D03*
Y786715D02*
D03*
Y735915D02*
D03*
Y761315D02*
D03*
Y812115D02*
D03*
X499996Y721784D02*
D03*
Y696384D02*
D03*
X255576Y68293D02*
D03*
X230176D02*
D03*
X179376D02*
D03*
X128576D02*
D03*
X153976D02*
D03*
X204776D02*
D03*
D68*
X387967Y97511D02*
D03*
X421675Y293404D02*
D03*
X389222Y710515D02*
D03*
X499996Y747184D02*
D03*
D69*
X537428Y40779D02*
D03*
X687428D02*
D03*
X737428D02*
D03*
X787428D02*
D03*
Y115778D02*
D03*
X737428D02*
D03*
X687428D02*
D03*
X537428D02*
D03*
X541859Y800750D02*
D03*
X691858D02*
D03*
X741859D02*
D03*
X791859D02*
D03*
Y875750D02*
D03*
X741859D02*
D03*
X691858D02*
D03*
X541859D02*
D03*
D70*
X404116Y616248D02*
D03*
X103176Y68293D02*
D03*
D71*
X62724Y492729D02*
D03*
Y448229D02*
D03*
D72*
X31524Y512230D02*
D03*
Y428729D02*
D03*
D73*
X847714Y434079D02*
D03*
Y399079D02*
D03*
X846768Y596467D02*
D03*
Y561467D02*
D03*
D74*
X847714Y364079D02*
D03*
X846768Y526467D02*
D03*
D75*
X31026Y890192D02*
D03*
X890392Y889500D02*
D03*
X891369Y31570D02*
D03*
X31609Y33036D02*
D03*
D76*
X270651Y850007D02*
D03*
X252223Y849568D02*
D03*
X148248Y158348D02*
D03*
X142130Y268876D02*
D03*
X52239Y729990D02*
D03*
X285235Y547000D02*
D03*
X229887Y799333D02*
D03*
X80879Y513775D02*
D03*
X14321Y796496D02*
D03*
X219339Y519134D02*
D03*
X340085Y409499D02*
D03*
X299943Y512089D02*
D03*
X126597Y797368D02*
D03*
X150111Y378687D02*
D03*
X373473Y369455D02*
D03*
X559409Y534015D02*
D03*
X528790Y534153D02*
D03*
X623392Y707586D02*
D03*
X337677Y788230D02*
D03*
X722306Y91764D02*
D03*
X641082Y43507D02*
D03*
D77*
X171803Y502744D02*
D03*
X161140Y500681D02*
D03*
X181652Y830651D02*
D03*
X28222Y824687D02*
D03*
X95377Y782083D02*
D03*
X117715Y782242D02*
D03*
X170124Y759886D02*
D03*
X153502Y732406D02*
D03*
X120114Y733886D02*
D03*
X608682Y408309D02*
D03*
X596630Y408372D02*
D03*
X608682Y419362D02*
D03*
X596505Y419675D02*
D03*
X105528Y793074D02*
D03*
X206998Y486654D02*
D03*
X208242Y552749D02*
D03*
X149536Y573147D02*
D03*
X86716Y745604D02*
D03*
X479707Y519945D02*
D03*
X441926Y531184D02*
D03*
X304628Y452651D02*
D03*
X117468Y476023D02*
D03*
X86152Y826475D02*
D03*
X38745Y653374D02*
D03*
X126402Y486398D02*
D03*
X127122Y460427D02*
D03*
X129099Y425374D02*
D03*
X261476Y425922D02*
D03*
D78*
X179274Y443207D02*
D03*
Y454207D02*
D03*
Y465207D02*
D03*
X168274Y443207D02*
D03*
Y454207D02*
D03*
Y465207D02*
D03*
X157274Y443207D02*
D03*
Y454207D02*
D03*
Y465207D02*
D03*
D121*
X30002Y707611D02*
D03*
Y730611D02*
D03*
D122*
X85002Y719111D02*
D03*
D124*
X195437Y516597D02*
D03*
Y531878D02*
D03*
D125*
X64265Y553812D02*
D03*
D126*
X30257D02*
D03*
D129*
X129695Y703343D02*
D03*
Y721843D02*
D03*
X180298Y703298D02*
D03*
Y721797D02*
D03*
D130*
X101148Y816922D02*
D03*
X113848D02*
D03*
X126548D02*
D03*
X139248D02*
D03*
X101148Y762122D02*
D03*
X113848D02*
D03*
X126548D02*
D03*
X139248D02*
D03*
D131*
X249141Y536483D02*
D03*
X267141D02*
D03*
X174801Y398037D02*
D03*
X192801D02*
D03*
D132*
X90806Y839870D02*
D03*
Y856369D02*
D03*
D133*
X168274Y454207D02*
D03*
D134*
X144024Y469207D02*
D03*
Y464207D02*
D03*
Y459207D02*
D03*
Y454207D02*
D03*
Y449207D02*
D03*
Y444207D02*
D03*
Y439207D02*
D03*
X192524D02*
D03*
Y444207D02*
D03*
Y449207D02*
D03*
Y454207D02*
D03*
Y459207D02*
D03*
Y464207D02*
D03*
Y469207D02*
D03*
D135*
X153274Y429957D02*
D03*
X158274D02*
D03*
X163274D02*
D03*
X168274D02*
D03*
X173274D02*
D03*
X178274D02*
D03*
X183274D02*
D03*
Y478456D02*
D03*
X178274D02*
D03*
X173274D02*
D03*
X168274D02*
D03*
X163274D02*
D03*
X158274D02*
D03*
X153274D02*
D03*
D136*
X472267Y824544D02*
D03*
Y843544D02*
D03*
X492267Y834044D02*
D03*
X244986Y455661D02*
D03*
Y436661D02*
D03*
X224986Y446161D02*
D03*
X225150Y477160D02*
D03*
Y496160D02*
D03*
X245150Y486660D02*
D03*
D137*
X516429Y91581D02*
D03*
Y58881D02*
D03*
X519589Y821900D02*
D03*
Y854600D02*
D03*
D138*
X105784Y704711D02*
D03*
Y720711D02*
D03*
X154173Y704369D02*
D03*
Y720369D02*
D03*
D139*
X170577Y797953D02*
D03*
X186577D02*
D03*
D140*
X557654Y690998D02*
D03*
X531655D02*
D03*
X557640Y667483D02*
D03*
X531639D02*
D03*
D141*
X316660Y788331D02*
D03*
X297160D02*
D03*
D142*
X114143Y515383D02*
D03*
X96642D02*
D03*
D143*
X464249Y870449D02*
D03*
X444249D02*
D03*
X463967Y109714D02*
D03*
X443966D02*
D03*
D144*
X476484Y64320D02*
D03*
X485984Y84320D02*
D03*
X466984D02*
D03*
M02*
