G04*
G04 #@! TF.GenerationSoftware,Altium Limited,Altium Designer,24.10.1 (45)*
G04*
G04 Layer_Physical_Order=2*
G04 Layer_Color=16711680*
%FSLAX44Y44*%
%MOMM*%
G71*
G04*
G04 #@! TF.SameCoordinates,9B87C798-A5EC-4888-A0B9-4BDBECF7F39D*
G04*
G04*
G04 #@! TF.FilePolarity,Positive*
G04*
G01*
G75*
%ADD10C,0.2000*%
%ADD12C,0.2500*%
%ADD14C,0.2540*%
%ADD19R,1.0500X1.4500*%
%ADD20R,1.3781X1.4562*%
%ADD22R,1.3500X1.1000*%
%ADD26R,1.1000X1.3500*%
%ADD34R,1.4000X1.1000*%
%ADD35R,1.4500X1.2000*%
%ADD42R,1.1000X1.4000*%
%ADD69C,1.8034*%
%ADD80C,0.3000*%
%ADD81C,0.4000*%
%ADD82C,0.8000*%
%ADD84C,0.5000*%
%ADD85C,0.6000*%
%ADD86C,1.0000*%
%ADD89C,2.0000*%
%ADD91C,1.5000*%
%ADD93C,1.5080*%
%ADD94R,1.5080X1.5080*%
%ADD95C,0.4000*%
%ADD96C,1.6000*%
G04:AMPARAMS|DCode=97|XSize=1.6mm|YSize=1.6mm|CornerRadius=0.4mm|HoleSize=0mm|Usage=FLASHONLY|Rotation=270.000|XOffset=0mm|YOffset=0mm|HoleType=Round|Shape=RoundedRectangle|*
%AMROUNDEDRECTD97*
21,1,1.6000,0.8000,0,0,270.0*
21,1,0.8000,1.6000,0,0,270.0*
1,1,0.8000,-0.4000,-0.4000*
1,1,0.8000,-0.4000,0.4000*
1,1,0.8000,0.4000,0.4000*
1,1,0.8000,0.4000,-0.4000*
%
%ADD97ROUNDEDRECTD97*%
G04:AMPARAMS|DCode=98|XSize=1.6mm|YSize=1.6mm|CornerRadius=0.4mm|HoleSize=0mm|Usage=FLASHONLY|Rotation=0.000|XOffset=0mm|YOffset=0mm|HoleType=Round|Shape=RoundedRectangle|*
%AMROUNDEDRECTD98*
21,1,1.6000,0.8000,0,0,0.0*
21,1,0.8000,1.6000,0,0,0.0*
1,1,0.8000,0.4000,-0.4000*
1,1,0.8000,-0.4000,-0.4000*
1,1,0.8000,-0.4000,0.4000*
1,1,0.8000,0.4000,0.4000*
%
%ADD98ROUNDEDRECTD98*%
%ADD99O,1.0500X1.1500*%
%ADD100O,1.3000X0.7500*%
%ADD101C,1.9500*%
G04:AMPARAMS|DCode=102|XSize=1.95mm|YSize=1.95mm|CornerRadius=0.4875mm|HoleSize=0mm|Usage=FLASHONLY|Rotation=90.000|XOffset=0mm|YOffset=0mm|HoleType=Round|Shape=RoundedRectangle|*
%AMROUNDEDRECTD102*
21,1,1.9500,0.9750,0,0,90.0*
21,1,0.9750,1.9500,0,0,90.0*
1,1,0.9750,0.4875,0.4875*
1,1,0.9750,0.4875,-0.4875*
1,1,0.9750,-0.4875,-0.4875*
1,1,0.9750,-0.4875,0.4875*
%
%ADD102ROUNDEDRECTD102*%
%ADD103C,1.5240*%
%ADD104C,1.2700*%
%ADD105C,0.8000*%
%ADD106C,0.5000*%
%ADD107R,1.4500X1.0500*%
%ADD108R,0.6000X1.5200*%
%ADD109R,1.0000X1.3500*%
%ADD110R,1.3500X0.8500*%
%ADD111R,3.1300X3.1300*%
%ADD112O,0.8500X0.2000*%
%ADD113O,0.2000X0.8500*%
%ADD114R,0.9000X0.8000*%
%ADD115R,1.2200X0.9100*%
%ADD116R,1.4500X1.3000*%
%ADD117R,1.3000X1.4500*%
%ADD118R,1.4000X1.0000*%
%ADD119R,1.3500X1.5500*%
%ADD120R,1.1500X1.4500*%
%ADD121R,1.3000X1.3000*%
%ADD122R,1.3000X2.0000*%
%ADD123R,1.2000X1.4500*%
%ADD124R,1.4562X1.3781*%
%ADD125R,1.5575X0.7425*%
G04:AMPARAMS|DCode=126|XSize=1.5575mm|YSize=0.7425mm|CornerRadius=0.3712mm|HoleSize=0mm|Usage=FLASHONLY|Rotation=180.000|XOffset=0mm|YOffset=0mm|HoleType=Round|Shape=RoundedRectangle|*
%AMROUNDEDRECTD126*
21,1,1.5575,0.0000,0,0,180.0*
21,1,0.8150,0.7425,0,0,180.0*
1,1,0.7425,-0.4075,0.0000*
1,1,0.7425,0.4075,0.0000*
1,1,0.7425,0.4075,0.0000*
1,1,0.7425,-0.4075,0.0000*
%
%ADD126ROUNDEDRECTD126*%
%ADD127R,0.8000X0.9000*%
%ADD128C,2.3000*%
G36*
X660849Y884852D02*
X641933D01*
X639577Y884542D01*
X637382Y883632D01*
X635497Y882186D01*
X634851Y881344D01*
X634009Y880698D01*
X632563Y878813D01*
X631653Y876618D01*
X631343Y874262D01*
Y833202D01*
X554427Y756285D01*
X506304D01*
X506152Y756387D01*
X503997Y756816D01*
X495997D01*
X493841Y756387D01*
X492014Y755166D01*
X490793Y753339D01*
X490364Y751184D01*
Y743184D01*
X490793Y741028D01*
X492014Y739201D01*
X493841Y737980D01*
X495997Y737551D01*
X503997D01*
X506152Y737980D01*
X506304Y738082D01*
X558197D01*
X560552Y738392D01*
X562748Y739301D01*
X564633Y740748D01*
X646881Y822996D01*
X648328Y824881D01*
X649237Y827076D01*
X649547Y829432D01*
Y866648D01*
X660849D01*
Y805884D01*
X585850Y730885D01*
X502826D01*
X501250Y731308D01*
X498743D01*
X496320Y730659D01*
X494149Y729405D01*
X492375Y727632D01*
X491121Y725460D01*
X490472Y723037D01*
Y720530D01*
X491121Y718108D01*
X492375Y715936D01*
X494149Y714163D01*
X496320Y712909D01*
X498743Y712260D01*
X501250D01*
X502826Y712682D01*
X589620D01*
X591976Y712992D01*
X594171Y713901D01*
X596056Y715348D01*
X659441Y778732D01*
X660849Y778149D01*
Y499782D01*
X691945Y468686D01*
Y228946D01*
X525461Y62462D01*
X524053Y63045D01*
Y64955D01*
X516423D01*
X515879Y65063D01*
X515878Y65063D01*
X513634D01*
X513625Y65072D01*
X511798Y66293D01*
X509642Y66722D01*
X509642Y66722D01*
X482008D01*
Y70344D01*
X470960D01*
Y58296D01*
X474590D01*
X475384Y57107D01*
X477212Y55886D01*
X479367Y55457D01*
X507051D01*
X507698Y54781D01*
X507047Y53257D01*
X295673D01*
X271558Y84386D01*
X82791Y82791D01*
X66168Y66168D01*
X6306D01*
X4325Y852702D01*
X9098Y857475D01*
X64935D01*
Y916996D01*
X660849D01*
Y884852D01*
D02*
G37*
%LPC*%
G36*
X300278Y893562D02*
X297891D01*
X295586Y892945D01*
X293519Y891751D01*
X291831Y890064D01*
X290638Y887997D01*
X290020Y885692D01*
Y883305D01*
X290638Y881000D01*
X291831Y878933D01*
X293519Y877245D01*
X295586Y876052D01*
X297891Y875434D01*
X300278D01*
X302583Y876052D01*
X304650Y877245D01*
X306337Y878933D01*
X307531Y881000D01*
X308148Y883305D01*
Y885692D01*
X307531Y887997D01*
X306337Y890064D01*
X304650Y891751D01*
X302583Y892945D01*
X300278Y893562D01*
D02*
G37*
G36*
X190513Y895571D02*
X138234D01*
X136859Y895298D01*
X135694Y894519D01*
X110237Y869063D01*
X109459Y867897D01*
X109185Y866522D01*
Y862048D01*
X104504D01*
Y857872D01*
X99080D01*
Y862143D01*
X82532D01*
Y850595D01*
X99080D01*
Y852175D01*
X104504D01*
Y848000D01*
Y834000D01*
X121052D01*
Y839180D01*
X124870D01*
Y835749D01*
X141918D01*
Y849797D01*
X124870D01*
Y846366D01*
X121052D01*
Y862048D01*
X116371D01*
Y865034D01*
X139722Y888385D01*
X189025D01*
X190379Y887031D01*
X190021Y885692D01*
Y883305D01*
X190638Y881000D01*
X191831Y878933D01*
X193519Y877245D01*
X195586Y876052D01*
X197891Y875434D01*
X200278D01*
X202583Y876052D01*
X204650Y877245D01*
X206338Y878933D01*
X207531Y881000D01*
X208148Y883305D01*
Y885692D01*
X207531Y887997D01*
X206338Y890064D01*
X204650Y891751D01*
X202583Y892945D01*
X200278Y893562D01*
X197891D01*
X195586Y892945D01*
X194979Y892594D01*
X193054Y894519D01*
X191888Y895298D01*
X190513Y895571D01*
D02*
G37*
G36*
X543246Y886291D02*
X540471D01*
X537790Y885573D01*
X535386Y884185D01*
X533424Y882222D01*
X532036Y879818D01*
X531318Y877138D01*
Y874362D01*
X531964Y871949D01*
X520689Y860674D01*
X511964D01*
Y848526D01*
X527212D01*
Y854150D01*
X538736Y865674D01*
X540471Y865209D01*
X543246D01*
X545927Y865927D01*
X548331Y867315D01*
X550294Y869277D01*
X551681Y871681D01*
X552400Y874362D01*
Y877138D01*
X551681Y879818D01*
X550294Y882222D01*
X548331Y884185D01*
X545927Y885573D01*
X543246Y886291D01*
D02*
G37*
G36*
X390476Y872439D02*
X387968D01*
X385546Y871790D01*
X383374Y870536D01*
X381601Y868763D01*
X380347Y866591D01*
X379698Y864169D01*
Y861661D01*
X380347Y859239D01*
X381601Y857067D01*
X383374Y855294D01*
X385546Y854040D01*
X387968Y853391D01*
X390476D01*
X392898Y854040D01*
X395070Y855294D01*
X396843Y857067D01*
X398097Y859239D01*
X398746Y861661D01*
Y864169D01*
X398097Y866591D01*
X396843Y868763D01*
X395070Y870536D01*
X392898Y871790D01*
X390476Y872439D01*
D02*
G37*
G36*
X271921Y857819D02*
Y851277D01*
X278462D01*
X277988Y853046D01*
X276952Y854842D01*
X275485Y856308D01*
X273690Y857345D01*
X271921Y857819D01*
D02*
G37*
G36*
X269381D02*
X267612Y857345D01*
X265816Y856308D01*
X264350Y854842D01*
X263313Y853046D01*
X262839Y851277D01*
X269381D01*
Y857819D01*
D02*
G37*
G36*
X253493Y857380D02*
Y850838D01*
X260035D01*
X259561Y852608D01*
X258524Y854403D01*
X257058Y855869D01*
X255263Y856906D01*
X253493Y857380D01*
D02*
G37*
G36*
X250954D02*
X249184Y856906D01*
X247389Y855869D01*
X245923Y854403D01*
X244886Y852608D01*
X244412Y850838D01*
X250954D01*
Y857380D01*
D02*
G37*
G36*
X478291Y849068D02*
X473537D01*
Y844814D01*
X478291D01*
Y849068D01*
D02*
G37*
G36*
X470997D02*
X466243D01*
Y844814D01*
X470997D01*
Y849068D01*
D02*
G37*
G36*
X278462Y848737D02*
X271921D01*
Y842196D01*
X273690Y842670D01*
X275485Y843706D01*
X276952Y845173D01*
X277988Y846968D01*
X278462Y848737D01*
D02*
G37*
G36*
X269381D02*
X262839D01*
X263313Y846968D01*
X264350Y845173D01*
X265816Y843706D01*
X267612Y842670D01*
X269381Y842196D01*
Y848737D01*
D02*
G37*
G36*
X260035Y848298D02*
X253493D01*
Y841757D01*
X255263Y842231D01*
X257058Y843268D01*
X258524Y844734D01*
X259561Y846529D01*
X260035Y848298D01*
D02*
G37*
G36*
X250954D02*
X244412D01*
X244886Y846529D01*
X245923Y844734D01*
X247389Y843268D01*
X249184Y842231D01*
X250954Y841757D01*
Y848298D01*
D02*
G37*
G36*
X478291Y842274D02*
X473537D01*
Y838020D01*
X478291D01*
Y842274D01*
D02*
G37*
G36*
X470997D02*
X466243D01*
Y838020D01*
X470997D01*
Y842274D01*
D02*
G37*
G36*
X56311Y840429D02*
X50557D01*
Y833175D01*
X56311D01*
Y840429D01*
D02*
G37*
G36*
X48017D02*
X42263D01*
Y833175D01*
X48017D01*
Y840429D01*
D02*
G37*
G36*
X170074Y837903D02*
X163069D01*
Y832149D01*
X170074D01*
Y837903D01*
D02*
G37*
G36*
X160529D02*
X153525D01*
Y832149D01*
X160529D01*
Y837903D01*
D02*
G37*
G36*
X182922Y836104D02*
Y831921D01*
X187105D01*
X186335Y833780D01*
X184781Y835334D01*
X182922Y836104D01*
D02*
G37*
G36*
X180382D02*
X178523Y835334D01*
X176969Y833780D01*
X176199Y831921D01*
X180382D01*
Y836104D01*
D02*
G37*
G36*
X390476Y847039D02*
X387968D01*
X385546Y846390D01*
X383374Y845136D01*
X381601Y843363D01*
X380347Y841191D01*
X379698Y838769D01*
Y836261D01*
X380347Y833839D01*
X381601Y831667D01*
X383374Y829894D01*
X385546Y828640D01*
X387968Y827991D01*
X390476D01*
X392898Y828640D01*
X395070Y829894D01*
X396843Y831667D01*
X398097Y833839D01*
X398746Y836261D01*
Y838769D01*
X398097Y841191D01*
X396843Y843363D01*
X395070Y845136D01*
X392898Y846390D01*
X390476Y847039D01*
D02*
G37*
G36*
X452991Y833360D02*
X445737D01*
Y827606D01*
X452991D01*
Y833360D01*
D02*
G37*
G36*
X443197D02*
X435943D01*
Y827606D01*
X443197D01*
Y833360D01*
D02*
G37*
G36*
X29492Y830140D02*
Y825957D01*
X33675D01*
X32905Y827816D01*
X31351Y829370D01*
X29492Y830140D01*
D02*
G37*
G36*
X26952D02*
X25093Y829370D01*
X23539Y827816D01*
X22769Y825957D01*
X26952D01*
Y830140D01*
D02*
G37*
G36*
X187105Y829381D02*
X182922D01*
Y825198D01*
X184781Y825968D01*
X186335Y827522D01*
X187105Y829381D01*
D02*
G37*
G36*
X180382D02*
X176199D01*
X176969Y827522D01*
X178523Y825968D01*
X180382Y825198D01*
Y829381D01*
D02*
G37*
G36*
X99080Y845644D02*
X82532D01*
Y834096D01*
X82559D01*
Y830694D01*
X81469Y829604D01*
X80628Y827574D01*
Y825376D01*
X80682Y825246D01*
X79390Y824383D01*
X75058Y828716D01*
X73892Y829494D01*
X73811Y829510D01*
Y840429D01*
X59763D01*
Y823381D01*
X63245D01*
Y817490D01*
X59814D01*
Y800442D01*
X73861D01*
Y817490D01*
X70431D01*
Y821189D01*
X71839Y821772D01*
X79230Y814381D01*
X80395Y813602D01*
X81770Y813329D01*
X96624D01*
Y807798D01*
X105672D01*
Y826046D01*
X96624D01*
Y820515D01*
X89996D01*
X89796Y820873D01*
X89528Y822039D01*
X90836Y823346D01*
X91677Y825376D01*
Y827574D01*
X90836Y829604D01*
X89746Y830694D01*
Y834096D01*
X99080D01*
Y845644D01*
D02*
G37*
G36*
X56311Y830635D02*
X50557D01*
Y823381D01*
X56311D01*
Y830635D01*
D02*
G37*
G36*
X48017D02*
X42263D01*
Y823381D01*
X48017D01*
Y830635D01*
D02*
G37*
G36*
X170074Y829609D02*
X153525D01*
Y821025D01*
X143772D01*
Y826046D01*
X134724D01*
Y807798D01*
X143772D01*
Y812819D01*
X153525D01*
Y809854D01*
X170074D01*
Y811875D01*
X213311D01*
X222646Y802539D01*
X222550Y802373D01*
X222013Y800370D01*
Y798297D01*
X222550Y796294D01*
X223587Y794499D01*
X225053Y793033D01*
X226848Y791996D01*
X228851Y791459D01*
X230924D01*
X232927Y791996D01*
X234722Y793033D01*
X236188Y794499D01*
X237225Y796294D01*
X237761Y798297D01*
Y800370D01*
X237225Y802373D01*
X236188Y804168D01*
X234722Y805634D01*
X232927Y806671D01*
X230924Y807207D01*
X229583D01*
X217911Y818879D01*
X216580Y819768D01*
X215010Y820081D01*
X170074D01*
Y823855D01*
Y829609D01*
D02*
G37*
G36*
X452991Y825066D02*
X445737D01*
Y819312D01*
X452991D01*
Y825066D01*
D02*
G37*
G36*
X443197D02*
X435943D01*
Y819312D01*
X443197D01*
Y825066D01*
D02*
G37*
G36*
X33675Y823417D02*
X29492D01*
Y819234D01*
X31351Y820004D01*
X32905Y821558D01*
X33675Y823417D01*
D02*
G37*
G36*
X26952D02*
X22769D01*
X23539Y821558D01*
X25093Y820004D01*
X26952Y819234D01*
Y823417D01*
D02*
G37*
G36*
X471773Y879223D02*
X456725D01*
Y867881D01*
X456199Y867094D01*
X455926Y865719D01*
Y858876D01*
X447910Y850860D01*
X435943D01*
Y836812D01*
X446535D01*
X447322Y836286D01*
X448697Y836013D01*
X455217D01*
X466243Y824986D01*
Y819020D01*
X478291D01*
Y830068D01*
X471325D01*
X459246Y842146D01*
X458080Y842925D01*
X456705Y843199D01*
X452991D01*
Y845778D01*
X462060Y854847D01*
X462839Y856013D01*
X463112Y857388D01*
Y861675D01*
X471773D01*
Y879223D01*
D02*
G37*
G36*
X390476Y821639D02*
X387968D01*
X385546Y820990D01*
X383374Y819736D01*
X381601Y817963D01*
X380347Y815791D01*
X379698Y813369D01*
Y810861D01*
X380347Y808439D01*
X381601Y806267D01*
X383374Y804494D01*
X385546Y803240D01*
X387968Y802591D01*
X390476D01*
X392898Y803240D01*
X395070Y804494D01*
X396843Y806267D01*
X398097Y808439D01*
X398746Y810861D01*
Y813369D01*
X398097Y815791D01*
X396843Y817963D01*
X395070Y819736D01*
X392898Y820990D01*
X390476Y821639D01*
D02*
G37*
G36*
X498291Y839568D02*
X486243D01*
Y828520D01*
X498291D01*
Y829431D01*
X503984D01*
X511964Y821451D01*
Y815826D01*
X520689D01*
X531964Y804551D01*
X531318Y802138D01*
Y799362D01*
X532036Y796681D01*
X533424Y794277D01*
X535386Y792315D01*
X537790Y790927D01*
X540471Y790209D01*
X543246D01*
X545927Y790927D01*
X548331Y792315D01*
X550294Y794277D01*
X551681Y796681D01*
X552400Y799362D01*
Y802138D01*
X551681Y804818D01*
X550294Y807222D01*
X548331Y809185D01*
X545927Y810572D01*
X543246Y811291D01*
X540471D01*
X538736Y810826D01*
X527212Y822349D01*
Y827974D01*
X518488D01*
X509156Y837305D01*
X507660Y838305D01*
X505895Y838656D01*
X498291D01*
Y839568D01*
D02*
G37*
G36*
X131072Y826046D02*
X122024D01*
Y807798D01*
X122955D01*
Y804357D01*
X121762Y803669D01*
X120296Y802203D01*
X119260Y800407D01*
X118723Y798405D01*
Y796331D01*
X119260Y794329D01*
X120296Y792533D01*
X121762Y791067D01*
X123558Y790031D01*
X125560Y789494D01*
X127634D01*
X129636Y790031D01*
X131432Y791067D01*
X132898Y792533D01*
X133934Y794329D01*
X134471Y796331D01*
Y798405D01*
X133934Y800407D01*
X132898Y802203D01*
X131432Y803669D01*
X130141Y804414D01*
Y807798D01*
X131072D01*
Y826046D01*
D02*
G37*
G36*
X56361Y817490D02*
X42313D01*
Y800442D01*
X45744D01*
Y796937D01*
X46018Y795562D01*
X46797Y794396D01*
X50953Y790239D01*
X50322Y788715D01*
X43016D01*
X32334Y799397D01*
X31002Y800287D01*
X29432Y800599D01*
X21044D01*
X20622Y801331D01*
X19155Y802797D01*
X17360Y803834D01*
X15357Y804370D01*
X13284D01*
X11281Y803834D01*
X9486Y802797D01*
X8020Y801331D01*
X6983Y799536D01*
X6447Y797533D01*
Y795460D01*
X6983Y793457D01*
X8020Y791662D01*
X9486Y790195D01*
X11281Y789159D01*
X13284Y788622D01*
X15357D01*
X17360Y789159D01*
X19155Y790195D01*
X20622Y791662D01*
X21044Y792393D01*
X27733D01*
X38415Y781711D01*
X39746Y780822D01*
X41316Y780510D01*
X51532D01*
Y777694D01*
X65580D01*
Y794742D01*
X56613D01*
X52930Y798425D01*
Y800442D01*
X56361D01*
Y817490D01*
D02*
G37*
G36*
X118372Y826046D02*
X109324D01*
Y807798D01*
X110255D01*
Y804788D01*
X104130Y798663D01*
X103956Y798402D01*
X102399Y797757D01*
X100845Y796203D01*
X100004Y794173D01*
Y791975D01*
X100845Y789945D01*
X102399Y788391D01*
X104429Y787550D01*
X106627D01*
X108657Y788391D01*
X110211Y789945D01*
X111052Y791975D01*
Y794173D01*
X110686Y795056D01*
X116389Y800759D01*
X117167Y801925D01*
X117441Y803299D01*
Y807798D01*
X118372D01*
Y826046D01*
D02*
G37*
G36*
X141918Y867297D02*
X124870D01*
Y853249D01*
X141918D01*
Y859146D01*
X197372D01*
X250967Y805551D01*
X250865Y805038D01*
Y790441D01*
X247376Y786953D01*
X225527D01*
X211986Y800493D01*
X210821Y801272D01*
X209445Y801546D01*
X194601D01*
Y806727D01*
X162553D01*
Y789179D01*
X165832D01*
Y785856D01*
X162651D01*
Y782675D01*
X143846D01*
X142471Y782401D01*
X141306Y781622D01*
X136707Y777024D01*
X135928Y775858D01*
X135655Y774483D01*
Y771246D01*
X134724D01*
Y752998D01*
X133626Y751970D01*
X132170D01*
X131072Y752998D01*
Y771246D01*
X122024D01*
Y752998D01*
X122955D01*
Y749921D01*
X123228Y748546D01*
X123805Y747683D01*
X123427Y746542D01*
X123139Y746160D01*
X119532D01*
X118007Y747685D01*
Y752998D01*
X118372D01*
Y771246D01*
X109324D01*
Y752998D01*
X110821D01*
Y748301D01*
X91579D01*
X91399Y748733D01*
X89846Y750287D01*
X87815Y751128D01*
X85618D01*
X85411Y751043D01*
X84087Y752059D01*
Y759163D01*
X83813Y760538D01*
X83287Y761325D01*
Y771917D01*
X79649D01*
Y777694D01*
X83080D01*
Y794742D01*
X69032D01*
Y777694D01*
X72463D01*
Y771917D01*
X69240D01*
Y754870D01*
X76901D01*
Y750036D01*
X77174Y748661D01*
X77953Y747495D01*
X81369Y744078D01*
X82034Y742475D01*
X83587Y740921D01*
X85618Y740080D01*
X87815D01*
X89846Y740921D01*
X90106Y741182D01*
X90441Y741115D01*
X112926D01*
X114166Y741362D01*
X115503Y740026D01*
X116008Y739688D01*
X116288Y737963D01*
X116249Y737834D01*
X115431Y737015D01*
X114590Y734985D01*
Y732787D01*
X115431Y730757D01*
X116985Y729203D01*
X119015Y728362D01*
X120921D01*
Y715069D01*
X134109D01*
X137537Y711641D01*
X136906Y710117D01*
X120921D01*
Y707560D01*
X114558D01*
Y712687D01*
Y728735D01*
X97010D01*
Y721960D01*
X93026D01*
Y730635D01*
X76978D01*
Y707587D01*
X93026D01*
Y716262D01*
X97010D01*
Y712687D01*
Y696687D01*
X114558D01*
Y701863D01*
X120921D01*
Y696569D01*
X138469D01*
Y708553D01*
X139993Y709185D01*
X142490Y706689D01*
X142490Y706688D01*
X143490Y706020D01*
X144670Y705785D01*
X145399Y704579D01*
Y696345D01*
X162947D01*
Y699705D01*
X171524D01*
Y696524D01*
X189072D01*
Y710071D01*
X171524D01*
Y706890D01*
X162947D01*
Y718204D01*
X171524D01*
Y715023D01*
X189072D01*
Y718949D01*
X306310D01*
X390142Y635116D01*
X390142Y635116D01*
X391067Y634499D01*
X392157Y634282D01*
X392157Y634282D01*
X500984D01*
Y545252D01*
X481086Y525353D01*
X480806Y525469D01*
X478608D01*
X476578Y524628D01*
X475024Y523074D01*
X474811Y522561D01*
X473287Y522865D01*
Y552709D01*
X472858Y554864D01*
X471637Y556691D01*
X471637Y556691D01*
X413748Y614581D01*
Y620248D01*
X413320Y622403D01*
X412099Y624230D01*
X410271Y625451D01*
X408116Y625880D01*
X400116D01*
X397961Y625451D01*
X396133Y624230D01*
X394912Y622403D01*
X394484Y620248D01*
Y612418D01*
X369970Y587904D01*
X79515D01*
Y592606D01*
X69369D01*
Y592660D01*
X69152Y593750D01*
X68534Y594674D01*
X68534Y594674D01*
X51760Y611448D01*
X50836Y612066D01*
X49746Y612283D01*
X49746Y612283D01*
X46493D01*
Y621688D01*
X28945D01*
Y606640D01*
X42174D01*
X42449Y606585D01*
X48566D01*
X61137Y594014D01*
X60554Y592606D01*
X57090D01*
Y583801D01*
Y574996D01*
X66998D01*
Y571349D01*
X65945Y570295D01*
X65055Y568964D01*
X64743Y567394D01*
Y559048D01*
X54954D01*
Y548576D01*
X73576D01*
Y559048D01*
X72949D01*
Y565695D01*
X74002Y566748D01*
X74891Y568079D01*
X75203Y569649D01*
Y574996D01*
X79515D01*
Y579698D01*
X146933D01*
X147236Y578174D01*
X146406Y577830D01*
X144853Y576277D01*
X144012Y574246D01*
Y572049D01*
X144853Y570018D01*
X146406Y568464D01*
X147974Y567815D01*
X147670Y566291D01*
X124409D01*
X123319Y566074D01*
X122395Y565457D01*
X122395Y565457D01*
X117180Y560243D01*
X116563Y559319D01*
X116346Y558228D01*
X116346Y558228D01*
Y547919D01*
X103282D01*
Y539645D01*
Y531371D01*
X110549D01*
Y524157D01*
X106868D01*
Y506609D01*
X121417D01*
Y524157D01*
X117736D01*
Y531371D01*
X123036D01*
Y547919D01*
X122044D01*
Y557048D01*
X125589Y560594D01*
X222752D01*
X242617Y540729D01*
Y528209D01*
X246293D01*
Y510750D01*
X223613D01*
X223205Y512274D01*
X224174Y512833D01*
X225640Y514300D01*
X226676Y516095D01*
X227213Y518098D01*
Y520171D01*
X226676Y522174D01*
X225640Y523969D01*
X224174Y525435D01*
X222378Y526472D01*
X220376Y527008D01*
X218302D01*
X216300Y526472D01*
X214504Y525435D01*
X213038Y523969D01*
X212002Y522174D01*
X211608Y520704D01*
X204242D01*
Y523463D01*
Y530608D01*
X195437D01*
X186632D01*
Y521147D01*
X177332D01*
Y529265D01*
X169058D01*
X160784D01*
Y523511D01*
Y519384D01*
X151527D01*
Y524193D01*
X133979D01*
Y509146D01*
X151527D01*
Y513686D01*
X160784D01*
Y509511D01*
X169721D01*
X170024Y507987D01*
X168674Y507427D01*
X167120Y505874D01*
X166767Y505021D01*
X164969Y504664D01*
X164269Y505364D01*
X162239Y506205D01*
X160041D01*
X158011Y505364D01*
X156457Y503810D01*
X155616Y501780D01*
Y499582D01*
X156457Y497552D01*
X158011Y495998D01*
X160041Y495157D01*
X162239D01*
X162539Y495281D01*
X165289Y492532D01*
X165371Y492121D01*
X165660Y491688D01*
Y490865D01*
X165719Y490568D01*
Y484941D01*
X164544Y484251D01*
Y478456D01*
X162004D01*
Y483893D01*
X161454Y483526D01*
X160094D01*
X159259Y484084D01*
X158274Y484280D01*
X157289Y484084D01*
X156454Y483526D01*
X155093D01*
X154259Y484084D01*
X153274Y484280D01*
X152289Y484084D01*
X151454Y483526D01*
X150896Y482691D01*
X150700Y481706D01*
Y475206D01*
X150896Y474222D01*
X151454Y473387D01*
X152176Y472905D01*
X152189Y472794D01*
X151255Y471381D01*
X151100D01*
Y471225D01*
X149686Y470292D01*
X149576Y470305D01*
X149094Y471026D01*
X148259Y471584D01*
X147274Y471780D01*
X145202D01*
X145114Y471839D01*
X144024Y472055D01*
X142494D01*
X131142Y483407D01*
X131926Y485299D01*
Y487497D01*
X131085Y489527D01*
X129531Y491081D01*
X127501Y491922D01*
X125303D01*
X123273Y491081D01*
X121719Y489527D01*
X120878Y487497D01*
Y485299D01*
X121719Y483269D01*
X123273Y481715D01*
X125303Y480874D01*
X125618D01*
X138651Y467841D01*
X138736Y467713D01*
X138806Y467174D01*
X138251Y466467D01*
X138098Y466374D01*
X136310Y466313D01*
X125631Y476992D01*
X124707Y477610D01*
X123616Y477827D01*
X123616Y477827D01*
X122699D01*
X122151Y479152D01*
X120597Y480706D01*
X118566Y481547D01*
X116369D01*
X114339Y480706D01*
X112785Y479152D01*
X111944Y477122D01*
Y474924D01*
X112785Y472894D01*
X114339Y471340D01*
X116369Y470499D01*
X118566D01*
X120597Y471340D01*
X121386Y472129D01*
X122436D01*
X127091Y467475D01*
X126459Y465951D01*
X126024D01*
X123993Y465110D01*
X122439Y463556D01*
X121598Y461526D01*
Y459328D01*
X122439Y457298D01*
X123993Y455744D01*
X126024Y454903D01*
X128221D01*
X128501Y455019D01*
X130795Y452726D01*
X130943Y452271D01*
X130971Y451768D01*
X130839Y450774D01*
X123462Y443397D01*
X122844Y442472D01*
X122627Y441382D01*
X122627Y441382D01*
Y429592D01*
X122627Y429592D01*
X122844Y428502D01*
X123462Y427577D01*
X123866Y427173D01*
X123575Y426473D01*
Y424275D01*
X124416Y422245D01*
X125970Y420691D01*
X128000Y419850D01*
X130198D01*
X132228Y420691D01*
X133782Y422245D01*
X134623Y424275D01*
Y426473D01*
X133782Y428503D01*
X132228Y430057D01*
X130198Y430898D01*
X128325D01*
Y440202D01*
X134480Y446358D01*
X137343D01*
X137703Y445959D01*
X138326Y444834D01*
X138201Y444207D01*
X138397Y443222D01*
X138954Y442387D01*
Y441026D01*
X138397Y440192D01*
X138201Y439207D01*
X138397Y438222D01*
X138954Y437387D01*
X139789Y436829D01*
X140774Y436633D01*
X147274D01*
X148259Y436829D01*
X149094Y437387D01*
X149576Y438109D01*
X149686Y438122D01*
X151100Y437188D01*
Y437033D01*
X151255D01*
X152189Y435619D01*
X152176Y435508D01*
X151454Y435026D01*
X150896Y434191D01*
X150700Y433207D01*
Y426707D01*
X150896Y425722D01*
X151454Y424887D01*
X152289Y424329D01*
X153274Y424133D01*
X154259Y424329D01*
X155093Y424887D01*
X156454D01*
X157289Y424329D01*
X158274Y424133D01*
X159259Y424329D01*
X160094Y424887D01*
X161454D01*
X162289Y424329D01*
X163274Y424133D01*
X164259Y424329D01*
X165093Y424887D01*
X166454D01*
X167289Y424329D01*
X168274Y424133D01*
X169259Y424329D01*
X170094Y424887D01*
X171454D01*
X172289Y424329D01*
X173274Y424133D01*
X174259Y424329D01*
X175093Y424887D01*
X176454D01*
X177289Y424329D01*
X178274Y424133D01*
X179259Y424329D01*
X180094Y424887D01*
X181454D01*
X182289Y424329D01*
X183274Y424133D01*
X184259Y424329D01*
X185093Y424887D01*
X185651Y425722D01*
X185847Y426707D01*
Y433207D01*
X185651Y434191D01*
X185093Y435026D01*
X184372Y435508D01*
X184359Y435619D01*
X185292Y437033D01*
X185448D01*
Y437188D01*
X186862Y438122D01*
X186972Y438109D01*
X187454Y437387D01*
X188289Y436829D01*
X189274Y436633D01*
X195774D01*
X196759Y436829D01*
X197594Y437387D01*
X198151Y438222D01*
X198347Y439207D01*
X198151Y440192D01*
X197594Y441026D01*
Y442387D01*
X198151Y443222D01*
X198347Y444207D01*
X198151Y445191D01*
X197594Y446026D01*
Y447387D01*
X198151Y448222D01*
X198347Y449207D01*
X198223Y449834D01*
X198845Y450960D01*
X199205Y451358D01*
X206917D01*
X207565Y450709D01*
Y418602D01*
X195275Y406311D01*
X186277D01*
Y389763D01*
X199325D01*
Y402304D01*
X212428Y415407D01*
X212428Y415407D01*
X213046Y416332D01*
X213263Y417422D01*
Y451889D01*
X213263Y451889D01*
X213046Y452980D01*
X212428Y453904D01*
X212428Y453904D01*
X210111Y456221D01*
X209187Y456838D01*
X208097Y457055D01*
X208097Y457055D01*
X199205D01*
X198845Y457454D01*
X198223Y458579D01*
X198347Y459207D01*
X198152Y460189D01*
X198151Y460192D01*
X198851Y461752D01*
X198909Y461800D01*
X199781Y462382D01*
X209012Y471614D01*
X209012Y471614D01*
X209630Y472538D01*
X209847Y473628D01*
X209846Y473628D01*
Y481305D01*
X210657Y481880D01*
X212174Y481168D01*
Y466894D01*
X212174Y466894D01*
X212390Y465804D01*
X213008Y464880D01*
X215457Y462431D01*
X215457Y462431D01*
X216381Y461813D01*
X217472Y461596D01*
X217472Y461596D01*
X237608D01*
X238962Y461185D01*
X238962Y460072D01*
Y450137D01*
X251010D01*
Y452813D01*
X265028D01*
Y443158D01*
X279076D01*
Y460072D01*
X279076Y460206D01*
X279400Y461596D01*
X282205D01*
X282528Y460206D01*
X282528D01*
Y443158D01*
X296576D01*
Y449802D01*
X299829D01*
X299945Y449522D01*
X301499Y447968D01*
X303529Y447127D01*
X305727D01*
X307757Y447968D01*
X308340Y448550D01*
X309694Y447989D01*
X309839Y446511D01*
X302838Y439510D01*
X253291D01*
X253291Y439510D01*
X253291Y439510D01*
X251010D01*
Y442185D01*
X238962D01*
Y431137D01*
X251010D01*
Y432792D01*
X252534Y433390D01*
X256832Y429091D01*
X256793Y429051D01*
X255952Y427021D01*
Y424823D01*
X256793Y422793D01*
X258347Y421239D01*
X260377Y420398D01*
X262575D01*
X264605Y421239D01*
X266159Y422793D01*
X267000Y424823D01*
Y427021D01*
X266159Y429051D01*
X264605Y430605D01*
X262599Y431436D01*
X262512Y431525D01*
X261793Y432440D01*
X262392Y433812D01*
X304018D01*
X304018Y433812D01*
X305108Y434029D01*
X306032Y434647D01*
X314727Y443341D01*
X314727Y443341D01*
X315344Y444266D01*
X315561Y445356D01*
X315561Y445356D01*
Y467681D01*
X315561Y467681D01*
X315344Y468771D01*
X314727Y469695D01*
X314727Y469695D01*
X305780Y478642D01*
X304855Y479260D01*
X303765Y479477D01*
X303765Y479477D01*
X296528D01*
Y485877D01*
X282480D01*
Y468829D01*
X296528D01*
Y473779D01*
X302585D01*
X309863Y466501D01*
Y457383D01*
X308340Y456752D01*
X307757Y457334D01*
X305727Y458175D01*
X303529D01*
X301499Y457334D01*
X299945Y455780D01*
X299829Y455500D01*
X296576D01*
Y460206D01*
X293126D01*
Y462957D01*
X292909Y464047D01*
X292292Y464972D01*
X292292Y464972D01*
X290804Y466460D01*
X289880Y467077D01*
X288790Y467294D01*
X288789Y467294D01*
X218652D01*
X217871Y468074D01*
Y470986D01*
X219126Y471636D01*
X219395Y471636D01*
X231174D01*
Y474312D01*
X264979D01*
Y468829D01*
X279028D01*
Y485877D01*
X264979D01*
Y480009D01*
X252131D01*
X251174Y481137D01*
X251174Y481533D01*
Y483946D01*
X251972Y485106D01*
X253062Y485323D01*
X253986Y485941D01*
X296146Y528101D01*
X437224D01*
X437243Y528055D01*
X438797Y526501D01*
X440827Y525660D01*
X443025D01*
X445055Y526501D01*
X446609Y528055D01*
X447450Y530085D01*
Y532283D01*
X446609Y534313D01*
X445055Y535867D01*
X443025Y536708D01*
X440827D01*
X438797Y535867D01*
X437243Y534313D01*
X437224Y534268D01*
X303997D01*
X303026Y535792D01*
X303118Y536253D01*
X303118Y536253D01*
Y560183D01*
X303118Y560183D01*
X302901Y561274D01*
X302284Y562198D01*
X302284Y562198D01*
X289320Y575162D01*
X288396Y575779D01*
X287305Y575996D01*
X287305Y575996D01*
X154335D01*
X154219Y576277D01*
X152665Y577830D01*
X151836Y578174D01*
X152139Y579698D01*
X371669D01*
X373239Y580010D01*
X374570Y580900D01*
X400286Y606615D01*
X405783D01*
X462023Y550376D01*
Y319637D01*
X441422Y299036D01*
X430983D01*
X430879Y299559D01*
X429658Y301386D01*
X427831Y302607D01*
X425676Y303036D01*
X417676D01*
X415520Y302607D01*
X413693Y301386D01*
X412472Y299559D01*
X412043Y297404D01*
Y289404D01*
X412472Y287248D01*
X413693Y285421D01*
X415520Y284200D01*
X417676Y283772D01*
X425676D01*
X427831Y284200D01*
X429658Y285421D01*
X430879Y287248D01*
X430983Y287772D01*
X443754D01*
X443755Y287772D01*
X445910Y288200D01*
X447737Y289421D01*
X471637Y313322D01*
X471637Y313322D01*
X472858Y315149D01*
X473287Y317304D01*
Y517026D01*
X474811Y517329D01*
X475024Y516816D01*
X476578Y515262D01*
X478608Y514421D01*
X480806D01*
X482836Y515262D01*
X484390Y516816D01*
X485231Y518847D01*
Y521044D01*
X485115Y521325D01*
X505848Y542057D01*
X506465Y542982D01*
X506682Y544072D01*
X506682Y544072D01*
Y635643D01*
X506465Y636733D01*
X505848Y637657D01*
X505847Y637657D01*
X504360Y639145D01*
X503435Y639763D01*
X502345Y639979D01*
X502345Y639979D01*
X393337D01*
X309504Y723812D01*
X308580Y724429D01*
X307490Y724646D01*
X307490Y724646D01*
X189072D01*
Y728571D01*
X171524D01*
Y725390D01*
X162947D01*
Y728393D01*
X159292D01*
X158450Y729917D01*
X159026Y731308D01*
Y733505D01*
X158185Y735536D01*
X156631Y737089D01*
X155763Y737449D01*
X156066Y738973D01*
X184153D01*
X185527Y739247D01*
X186693Y740026D01*
X195691Y749024D01*
X197891Y748435D01*
X200278D01*
X202583Y749052D01*
X204650Y750246D01*
X206338Y751933D01*
X207531Y754000D01*
X208148Y756305D01*
Y758692D01*
X207531Y760997D01*
X206338Y763064D01*
X204650Y764752D01*
X202583Y765945D01*
X200278Y766562D01*
X197891D01*
X195586Y765945D01*
X193519Y764752D01*
X191831Y763064D01*
X190638Y760997D01*
X190021Y758692D01*
Y756305D01*
X190610Y754105D01*
X183031Y746526D01*
X182255Y746628D01*
X181709Y748236D01*
X184793Y751321D01*
X185572Y752486D01*
X185845Y753861D01*
Y761238D01*
X189576Y764969D01*
X190355Y766135D01*
X190628Y767510D01*
Y768308D01*
X194699D01*
Y785856D01*
X191518D01*
Y789179D01*
X194601D01*
Y794360D01*
X207957D01*
X221498Y780819D01*
X222664Y780040D01*
X224039Y779766D01*
X248864D01*
X250240Y780040D01*
X251405Y780819D01*
X256999Y786412D01*
X257777Y787578D01*
X258051Y788953D01*
Y805038D01*
X257842Y806089D01*
X258051Y807142D01*
X257777Y808517D01*
X256999Y809682D01*
X201401Y865280D01*
X200235Y866059D01*
X198860Y866332D01*
X141918D01*
Y867297D01*
D02*
G37*
G36*
X118985Y787695D02*
Y783512D01*
X123168D01*
X122398Y785371D01*
X120844Y786925D01*
X118985Y787695D01*
D02*
G37*
G36*
X116445D02*
X114586Y786925D01*
X113032Y785371D01*
X112261Y783512D01*
X116445D01*
Y787695D01*
D02*
G37*
G36*
X96647Y787536D02*
Y783353D01*
X100830D01*
X100060Y785212D01*
X98506Y786766D01*
X96647Y787536D01*
D02*
G37*
G36*
X94107D02*
X92248Y786766D01*
X90694Y785212D01*
X89924Y783353D01*
X94107D01*
Y787536D01*
D02*
G37*
G36*
X324934Y797605D02*
X308386D01*
Y779057D01*
X324934D01*
Y784127D01*
X330953D01*
X331376Y783395D01*
X332842Y781929D01*
X334637Y780893D01*
X336640Y780356D01*
X338713D01*
X340716Y780893D01*
X342511Y781929D01*
X343977Y783395D01*
X345014Y785191D01*
X345550Y787194D01*
Y789267D01*
X345014Y791269D01*
X343977Y793065D01*
X342511Y794531D01*
X340716Y795568D01*
X338713Y796104D01*
X336640D01*
X334637Y795568D01*
X332842Y794531D01*
X331376Y793065D01*
X330953Y792333D01*
X324934D01*
Y797605D01*
D02*
G37*
G36*
X390476Y796239D02*
X387968D01*
X385546Y795590D01*
X383374Y794336D01*
X381601Y792563D01*
X380347Y790391D01*
X379698Y787969D01*
Y785461D01*
X380347Y783039D01*
X381601Y780867D01*
X383374Y779094D01*
X385546Y777840D01*
X387968Y777191D01*
X390476D01*
X392898Y777840D01*
X395070Y779094D01*
X396843Y780867D01*
X398097Y783039D01*
X398746Y785461D01*
Y787969D01*
X398097Y790391D01*
X396843Y792563D01*
X395070Y794336D01*
X392898Y795590D01*
X390476Y796239D01*
D02*
G37*
G36*
X123168Y780972D02*
X118985D01*
Y776789D01*
X120844Y777559D01*
X122398Y779113D01*
X123168Y780972D01*
D02*
G37*
G36*
X116445D02*
X112261D01*
X113032Y779113D01*
X114586Y777559D01*
X116445Y776789D01*
Y780972D01*
D02*
G37*
G36*
X100830Y780813D02*
X96647D01*
Y776630D01*
X98506Y777400D01*
X100060Y778954D01*
X100830Y780813D01*
D02*
G37*
G36*
X94107D02*
X89924D01*
X90694Y778954D01*
X92248Y777400D01*
X94107Y776630D01*
Y780813D01*
D02*
G37*
G36*
X65787Y771917D02*
X60033D01*
Y764663D01*
X65787D01*
Y771917D01*
D02*
G37*
G36*
X57493D02*
X51739D01*
Y764663D01*
X57493D01*
Y771917D01*
D02*
G37*
G36*
X105672Y771246D02*
X102418D01*
Y763392D01*
X105672D01*
Y771246D01*
D02*
G37*
G36*
X99878D02*
X96624D01*
Y763392D01*
X99878D01*
Y771246D01*
D02*
G37*
G36*
X65787Y762123D02*
X60033D01*
Y754870D01*
X65787D01*
Y762123D01*
D02*
G37*
G36*
X57493D02*
X51739D01*
Y754870D01*
X57493D01*
Y762123D01*
D02*
G37*
G36*
X105672Y760852D02*
X102418D01*
Y752998D01*
X105672D01*
Y760852D01*
D02*
G37*
G36*
X99878D02*
X96624D01*
Y752998D01*
X99878D01*
Y760852D01*
D02*
G37*
G36*
X390476Y770839D02*
X387968D01*
X385546Y770190D01*
X383374Y768936D01*
X381601Y767163D01*
X380347Y764991D01*
X379698Y762569D01*
Y760061D01*
X380347Y757639D01*
X381601Y755467D01*
X383374Y753694D01*
X385546Y752440D01*
X387968Y751791D01*
X390476D01*
X392898Y752440D01*
X395070Y753694D01*
X396843Y755467D01*
X398097Y757639D01*
X398746Y760061D01*
Y762569D01*
X398097Y764991D01*
X396843Y767163D01*
X395070Y768936D01*
X392898Y770190D01*
X390476Y770839D01*
D02*
G37*
G36*
X305434Y797605D02*
X288886D01*
Y779057D01*
X290243D01*
Y766562D01*
X290020D01*
Y748435D01*
X308148D01*
Y766562D01*
X299468D01*
Y779057D01*
X305434D01*
Y797605D01*
D02*
G37*
G36*
X390476Y745439D02*
X387968D01*
X385546Y744790D01*
X383374Y743536D01*
X381601Y741763D01*
X380347Y739591D01*
X379698Y737169D01*
Y734661D01*
X380347Y732239D01*
X381601Y730067D01*
X383374Y728294D01*
X385546Y727040D01*
X387968Y726391D01*
X390476D01*
X392898Y727040D01*
X395070Y728294D01*
X396843Y730067D01*
X398097Y732239D01*
X398746Y734661D01*
Y737169D01*
X398097Y739591D01*
X396843Y741763D01*
X395070Y743536D01*
X392898Y744790D01*
X390476Y745439D01*
D02*
G37*
G36*
X38026Y738635D02*
X21978D01*
Y722587D01*
X38026D01*
Y727141D01*
X44850D01*
X44901Y726951D01*
X45938Y725155D01*
X47404Y723689D01*
X49200Y722653D01*
X51202Y722116D01*
X53275D01*
X55278Y722653D01*
X57074Y723689D01*
X58540Y725155D01*
X59576Y726951D01*
X60113Y728953D01*
Y731027D01*
X59576Y733029D01*
X58540Y734825D01*
X57074Y736291D01*
X55278Y737327D01*
X53275Y737864D01*
X51202D01*
X49200Y737327D01*
X47404Y736291D01*
X45938Y734825D01*
X44901Y733029D01*
X44850Y732839D01*
X38026D01*
Y738635D01*
D02*
G37*
G36*
Y715635D02*
X31272D01*
Y708881D01*
X38026D01*
Y715635D01*
D02*
G37*
G36*
X28732D02*
X21978D01*
Y708881D01*
X28732D01*
Y715635D01*
D02*
G37*
G36*
X393222Y720147D02*
X385222D01*
X383067Y719718D01*
X381239Y718497D01*
X380019Y716670D01*
X379590Y714515D01*
Y706515D01*
X380019Y704359D01*
X381239Y702532D01*
X383067Y701311D01*
X385222Y700882D01*
X393222D01*
X395377Y701311D01*
X397205Y702532D01*
X398425Y704359D01*
X398854Y706515D01*
Y714515D01*
X398425Y716670D01*
X397205Y718497D01*
X395377Y719718D01*
X393222Y720147D01*
D02*
G37*
G36*
X624429Y715460D02*
X622356D01*
X620353Y714924D01*
X618558Y713887D01*
X617092Y712421D01*
X616055Y710626D01*
X615518Y708623D01*
Y706550D01*
X615737Y705733D01*
X605104Y695101D01*
X566178D01*
Y697522D01*
X549131D01*
Y684474D01*
X566178D01*
Y686895D01*
X606804D01*
X608374Y687207D01*
X609705Y688097D01*
X621539Y699931D01*
X622356Y699712D01*
X624429D01*
X626432Y700249D01*
X628227Y701286D01*
X629693Y702752D01*
X630730Y704547D01*
X631267Y706550D01*
Y708623D01*
X630730Y710626D01*
X629693Y712421D01*
X628227Y713887D01*
X626432Y714924D01*
X624429Y715460D01*
D02*
G37*
G36*
X38026Y706341D02*
X31272D01*
Y699587D01*
X38026D01*
Y706341D01*
D02*
G37*
G36*
X28732D02*
X21978D01*
Y699587D01*
X28732D01*
Y706341D01*
D02*
G37*
G36*
X566164Y674007D02*
X558910D01*
Y668753D01*
X566164D01*
Y674007D01*
D02*
G37*
G36*
X556370D02*
X549116D01*
Y668753D01*
X556370D01*
Y674007D01*
D02*
G37*
G36*
X566164Y666212D02*
X558910D01*
Y660958D01*
X566164D01*
Y666212D01*
D02*
G37*
G36*
X556370D02*
X549116D01*
Y660958D01*
X556370D01*
Y666212D01*
D02*
G37*
G36*
X501250Y705908D02*
X498743D01*
X496320Y705259D01*
X494149Y704005D01*
X492375Y702232D01*
X491121Y700060D01*
X490472Y697637D01*
Y695130D01*
X491121Y692708D01*
X492375Y690536D01*
X494149Y688763D01*
X496320Y687509D01*
X498743Y686860D01*
X501250D01*
X503673Y687509D01*
X505844Y688763D01*
X507618Y690536D01*
X507742Y690751D01*
X509756D01*
X513492Y687015D01*
X513492Y687015D01*
X515319Y685794D01*
X517475Y685366D01*
X517475Y685366D01*
X523130D01*
Y684474D01*
X526022D01*
Y674007D01*
X523115D01*
Y660958D01*
X540163D01*
Y674007D01*
X537287D01*
Y684474D01*
X540178D01*
Y697522D01*
X523130D01*
Y696630D01*
X519808D01*
X516071Y700366D01*
X514244Y701587D01*
X512089Y702016D01*
X512089Y702016D01*
X507742D01*
X507618Y702232D01*
X505844Y704005D01*
X503673Y705259D01*
X501250Y705908D01*
D02*
G37*
G36*
X39843Y658898D02*
X37646D01*
X35616Y658057D01*
X34062Y656503D01*
X33221Y654473D01*
Y652275D01*
X34062Y650245D01*
X35616Y648691D01*
X35896Y648575D01*
Y641688D01*
X28945D01*
Y626640D01*
X46493D01*
Y641688D01*
X41593D01*
Y648575D01*
X41874Y648691D01*
X43428Y650245D01*
X44269Y652275D01*
Y654473D01*
X43428Y656503D01*
X41874Y658057D01*
X39843Y658898D01*
D02*
G37*
G36*
X481586Y625767D02*
Y617518D01*
X489836D01*
X489191Y619924D01*
X487937Y622095D01*
X486164Y623869D01*
X483992Y625123D01*
X481586Y625767D01*
D02*
G37*
G36*
X479046D02*
X476640Y625123D01*
X474468Y623869D01*
X472695Y622095D01*
X471441Y619924D01*
X470796Y617518D01*
X479046D01*
Y625767D01*
D02*
G37*
G36*
X489836Y614978D02*
X481586D01*
Y606728D01*
X483992Y607373D01*
X486164Y608627D01*
X487937Y610400D01*
X489191Y612571D01*
X489836Y614978D01*
D02*
G37*
G36*
X479046D02*
X470796D01*
X471441Y612571D01*
X472695Y610400D01*
X474468Y608627D01*
X476640Y607373D01*
X479046Y606728D01*
Y614978D01*
D02*
G37*
G36*
X456170Y625772D02*
X453662D01*
X451240Y625123D01*
X449068Y623869D01*
X447295Y622095D01*
X446041Y619924D01*
X445392Y617501D01*
Y614994D01*
X446041Y612571D01*
X447295Y610400D01*
X449068Y608627D01*
X451240Y607373D01*
X453662Y606724D01*
X456170D01*
X458592Y607373D01*
X460764Y608627D01*
X462537Y610400D01*
X463791Y612571D01*
X464440Y614994D01*
Y617501D01*
X463791Y619924D01*
X462537Y622095D01*
X460764Y623869D01*
X458592Y625123D01*
X456170Y625772D01*
D02*
G37*
G36*
X430770D02*
X428262D01*
X425840Y625123D01*
X423668Y623869D01*
X421895Y622095D01*
X420641Y619924D01*
X419992Y617501D01*
Y614994D01*
X420641Y612571D01*
X421895Y610400D01*
X423668Y608627D01*
X425840Y607373D01*
X428262Y606724D01*
X430770D01*
X433192Y607373D01*
X435364Y608627D01*
X437137Y610400D01*
X438391Y612571D01*
X439040Y614994D01*
Y617501D01*
X438391Y619924D01*
X437137Y622095D01*
X435364Y623869D01*
X433192Y625123D01*
X430770Y625772D01*
D02*
G37*
G36*
X54549Y592606D02*
X47405D01*
Y585071D01*
X54549D01*
Y592606D01*
D02*
G37*
G36*
Y582531D02*
X47405D01*
Y574996D01*
X54549D01*
Y582531D01*
D02*
G37*
G36*
X209341Y558273D02*
X207143D01*
X205113Y557432D01*
X203559Y555878D01*
X203443Y555597D01*
X160082D01*
X158991Y555380D01*
X158067Y554763D01*
X158067Y554763D01*
X147498Y544193D01*
X133979D01*
Y529146D01*
X151527D01*
Y540165D01*
X161262Y549900D01*
X203443D01*
X203559Y549619D01*
X205113Y548065D01*
X207143Y547225D01*
X209341D01*
X211371Y548065D01*
X212925Y549619D01*
X213766Y551650D01*
Y553847D01*
X212925Y555878D01*
X211371Y557432D01*
X209341Y558273D01*
D02*
G37*
G36*
X100742Y547919D02*
X94988D01*
Y540915D01*
X100742D01*
Y547919D01*
D02*
G37*
G36*
X204242Y540292D02*
X196707D01*
Y533148D01*
X204242D01*
Y540292D01*
D02*
G37*
G36*
X194167D02*
X186632D01*
Y533148D01*
X194167D01*
Y540292D01*
D02*
G37*
G36*
X177332Y537559D02*
X170328D01*
Y531805D01*
X177332D01*
Y537559D01*
D02*
G37*
G36*
X167788D02*
X160784D01*
Y531805D01*
X167788D01*
Y537559D01*
D02*
G37*
G36*
X100742Y538375D02*
X94988D01*
Y531371D01*
X100742D01*
Y538375D01*
D02*
G37*
G36*
X451772Y879223D02*
X436725D01*
Y867478D01*
X422000Y852753D01*
X421111Y851422D01*
X420799Y849852D01*
Y731490D01*
X421111Y729920D01*
X422000Y728589D01*
X555306Y595284D01*
Y540738D01*
X554574Y540315D01*
X553108Y538849D01*
X552071Y537054D01*
X551535Y535051D01*
Y532978D01*
X552071Y530975D01*
X553108Y529180D01*
X554574Y527714D01*
X556369Y526677D01*
X558372Y526141D01*
X560445D01*
X562448Y526677D01*
X564243Y527714D01*
X565709Y529180D01*
X566746Y530975D01*
X567283Y532978D01*
Y535051D01*
X566746Y537054D01*
X565709Y538849D01*
X564243Y540315D01*
X563511Y540738D01*
Y596983D01*
X563199Y598554D01*
X562310Y599884D01*
X429004Y733190D01*
Y848153D01*
X442527Y861675D01*
X451772D01*
Y879223D01*
D02*
G37*
G36*
X34274Y517607D02*
X32794D01*
Y513500D01*
X39399D01*
X39242Y514287D01*
X38076Y516032D01*
X36332Y517198D01*
X34274Y517607D01*
D02*
G37*
G36*
X30254D02*
X28774D01*
X26716Y517198D01*
X24972Y516032D01*
X23806Y514287D01*
X23649Y513500D01*
X30254D01*
Y517607D01*
D02*
G37*
G36*
X39399Y510960D02*
X32794D01*
Y506852D01*
X34274D01*
X36332Y507262D01*
X38076Y508427D01*
X39242Y510172D01*
X39399Y510960D01*
D02*
G37*
G36*
X30254D02*
X23649D01*
X23806Y510172D01*
X24972Y508427D01*
X26716Y507262D01*
X28774Y506852D01*
X30254D01*
Y510960D01*
D02*
G37*
G36*
X34332Y559151D02*
X26182D01*
X24139Y558745D01*
X22407Y557587D01*
X21250Y555855D01*
X20844Y553812D01*
X21250Y551769D01*
X22407Y550037D01*
X24139Y548879D01*
X26182Y548473D01*
X34332D01*
X35149Y548635D01*
X71023Y512761D01*
X71023Y512761D01*
X72024Y512092D01*
X73204Y511858D01*
X73204Y511858D01*
X73241D01*
X73541Y510736D01*
X74578Y508941D01*
X76044Y507475D01*
X77840Y506438D01*
X79842Y505901D01*
X81916D01*
X83918Y506438D01*
X85714Y507475D01*
X87180Y508941D01*
X87218Y509007D01*
X89128Y509267D01*
X89368Y509031D01*
Y506609D01*
X103916D01*
Y524157D01*
X89368D01*
Y517503D01*
X87819D01*
X87180Y518610D01*
X85714Y520076D01*
X83918Y521113D01*
X81916Y521649D01*
X79842D01*
X77840Y521113D01*
X76044Y520076D01*
X75314Y519346D01*
X73300Y519204D01*
X39509Y552996D01*
X39671Y553812D01*
X39265Y555855D01*
X38108Y557587D01*
X36376Y558745D01*
X34332Y559151D01*
D02*
G37*
G36*
X63994Y499895D02*
Y493999D01*
X69455D01*
X69323Y494998D01*
X68641Y496646D01*
X67555Y498061D01*
X66140Y499147D01*
X64492Y499829D01*
X63994Y499895D01*
D02*
G37*
G36*
X61454D02*
X60955Y499829D01*
X59308Y499147D01*
X57892Y498061D01*
X56807Y496646D01*
X56124Y494998D01*
X55993Y493999D01*
X61454D01*
Y499895D01*
D02*
G37*
G36*
X69455Y491460D02*
X63994D01*
Y485564D01*
X64492Y485630D01*
X66140Y486312D01*
X67555Y487398D01*
X68641Y488813D01*
X69323Y490461D01*
X69455Y491460D01*
D02*
G37*
G36*
X61454D02*
X55993D01*
X56124Y490461D01*
X56807Y488813D01*
X57892Y487398D01*
X59308Y486312D01*
X60955Y485630D01*
X61454Y485564D01*
Y491460D01*
D02*
G37*
G36*
X412567Y479395D02*
Y477376D01*
X414585D01*
X414284Y478102D01*
X413293Y479094D01*
X412567Y479395D01*
D02*
G37*
G36*
X398567D02*
Y477376D01*
X400585D01*
X400284Y478102D01*
X399293Y479094D01*
X398567Y479395D01*
D02*
G37*
G36*
X410027D02*
X409300Y479094D01*
X408309Y478102D01*
X408008Y477376D01*
X410027D01*
Y479395D01*
D02*
G37*
G36*
X396027D02*
X395300Y479094D01*
X394309Y478102D01*
X394008Y477376D01*
X396027D01*
Y479395D01*
D02*
G37*
G36*
X414585Y474836D02*
X412567D01*
Y472818D01*
X413293Y473119D01*
X414284Y474110D01*
X414585Y474836D01*
D02*
G37*
G36*
X400585D02*
X398567D01*
Y472818D01*
X399293Y473119D01*
X400284Y474110D01*
X400585Y474836D01*
D02*
G37*
G36*
X410027D02*
X408008D01*
X408309Y474110D01*
X409300Y473119D01*
X410027Y472818D01*
Y474836D01*
D02*
G37*
G36*
X396027D02*
X394008D01*
X394309Y474110D01*
X395300Y473119D01*
X396027Y472818D01*
Y474836D01*
D02*
G37*
G36*
X419567Y472395D02*
Y470377D01*
X421585D01*
X421284Y471103D01*
X420293Y472094D01*
X419567Y472395D01*
D02*
G37*
G36*
X405567D02*
Y470377D01*
X407585D01*
X407284Y471103D01*
X406293Y472094D01*
X405567Y472395D01*
D02*
G37*
G36*
X391567D02*
Y470377D01*
X393585D01*
X393284Y471103D01*
X392293Y472094D01*
X391567Y472395D01*
D02*
G37*
G36*
X417027D02*
X416301Y472094D01*
X415309Y471103D01*
X415009Y470377D01*
X417027D01*
Y472395D01*
D02*
G37*
G36*
X403027D02*
X402301Y472094D01*
X401309Y471103D01*
X401009Y470377D01*
X403027D01*
Y472395D01*
D02*
G37*
G36*
X389027D02*
X388301Y472094D01*
X387309Y471103D01*
X387009Y470377D01*
X389027D01*
Y472395D01*
D02*
G37*
G36*
X421585Y467837D02*
X419567D01*
Y465818D01*
X420293Y466119D01*
X421284Y467110D01*
X421585Y467837D01*
D02*
G37*
G36*
X407585D02*
X405567D01*
Y465818D01*
X406293Y466119D01*
X407284Y467110D01*
X407585Y467837D01*
D02*
G37*
G36*
X393585D02*
X391567D01*
Y465818D01*
X392293Y466119D01*
X393284Y467110D01*
X393585Y467837D01*
D02*
G37*
G36*
X417027D02*
X415009D01*
X415309Y467110D01*
X416301Y466119D01*
X417027Y465818D01*
Y467837D01*
D02*
G37*
G36*
X403027D02*
X401009D01*
X401309Y467110D01*
X402301Y466119D01*
X403027Y465818D01*
Y467837D01*
D02*
G37*
G36*
X389027D02*
X387009D01*
X387309Y467110D01*
X388301Y466119D01*
X389027Y465818D01*
Y467837D01*
D02*
G37*
G36*
X412567Y465395D02*
Y463376D01*
X414585D01*
X414284Y464103D01*
X413293Y465094D01*
X412567Y465395D01*
D02*
G37*
G36*
X398567D02*
Y463376D01*
X400585D01*
X400284Y464103D01*
X399293Y465094D01*
X398567Y465395D01*
D02*
G37*
G36*
X410027D02*
X409300Y465094D01*
X408309Y464103D01*
X408008Y463376D01*
X410027D01*
Y465395D01*
D02*
G37*
G36*
X396027D02*
X395300Y465094D01*
X394309Y464103D01*
X394008Y463376D01*
X396027D01*
Y465395D01*
D02*
G37*
G36*
X414585Y460836D02*
X412567D01*
Y458818D01*
X413293Y459119D01*
X414284Y460110D01*
X414585Y460836D01*
D02*
G37*
G36*
X400585D02*
X398567D01*
Y458818D01*
X399293Y459119D01*
X400284Y460110D01*
X400585Y460836D01*
D02*
G37*
G36*
X410027D02*
X408008D01*
X408309Y460110D01*
X409300Y459119D01*
X410027Y458818D01*
Y460836D01*
D02*
G37*
G36*
X396027D02*
X394008D01*
X394309Y460110D01*
X395300Y459119D01*
X396027Y458818D01*
Y460836D01*
D02*
G37*
G36*
X419567Y458394D02*
Y456376D01*
X421585D01*
X421284Y457102D01*
X420293Y458094D01*
X419567Y458394D01*
D02*
G37*
G36*
X405567D02*
Y456376D01*
X407585D01*
X407284Y457102D01*
X406293Y458094D01*
X405567Y458394D01*
D02*
G37*
G36*
X391567D02*
Y456376D01*
X393585D01*
X393284Y457102D01*
X392293Y458094D01*
X391567Y458394D01*
D02*
G37*
G36*
X417027D02*
X416301Y458094D01*
X415309Y457102D01*
X415009Y456376D01*
X417027D01*
Y458394D01*
D02*
G37*
G36*
X403027D02*
X402301Y458094D01*
X401309Y457102D01*
X401009Y456376D01*
X403027D01*
Y458394D01*
D02*
G37*
G36*
X389027D02*
X388301Y458094D01*
X387309Y457102D01*
X387009Y456376D01*
X389027D01*
Y458394D01*
D02*
G37*
G36*
X421585Y453836D02*
X419567D01*
Y451818D01*
X420293Y452119D01*
X421284Y453110D01*
X421585Y453836D01*
D02*
G37*
G36*
X407585D02*
X405567D01*
Y451818D01*
X406293Y452119D01*
X407284Y453110D01*
X407585Y453836D01*
D02*
G37*
G36*
X393585D02*
X391567D01*
Y451818D01*
X392293Y452119D01*
X393284Y453110D01*
X393585Y453836D01*
D02*
G37*
G36*
X417027D02*
X415009D01*
X415309Y453110D01*
X416301Y452119D01*
X417027Y451818D01*
Y453836D01*
D02*
G37*
G36*
X403027D02*
X401009D01*
X401309Y453110D01*
X402301Y452119D01*
X403027Y451818D01*
Y453836D01*
D02*
G37*
G36*
X389027D02*
X387009D01*
X387309Y453110D01*
X388301Y452119D01*
X389027Y451818D01*
Y453836D01*
D02*
G37*
G36*
X63994Y455395D02*
Y449499D01*
X69455D01*
X69323Y450498D01*
X68641Y452146D01*
X67555Y453560D01*
X66140Y454646D01*
X64492Y455329D01*
X63994Y455395D01*
D02*
G37*
G36*
X61454D02*
X60955Y455329D01*
X59308Y454646D01*
X57892Y453560D01*
X56807Y452146D01*
X56124Y450498D01*
X55993Y449499D01*
X61454D01*
Y455395D01*
D02*
G37*
G36*
X412567Y451395D02*
Y449376D01*
X414585D01*
X414284Y450103D01*
X413293Y451094D01*
X412567Y451395D01*
D02*
G37*
G36*
X398567D02*
Y449376D01*
X400585D01*
X400284Y450103D01*
X399293Y451094D01*
X398567Y451395D01*
D02*
G37*
G36*
X410027D02*
X409300Y451094D01*
X408309Y450103D01*
X408008Y449376D01*
X410027D01*
Y451395D01*
D02*
G37*
G36*
X396027D02*
X395300Y451094D01*
X394309Y450103D01*
X394008Y449376D01*
X396027D01*
Y451395D01*
D02*
G37*
G36*
X414585Y446836D02*
X412567D01*
Y444818D01*
X413293Y445119D01*
X414284Y446110D01*
X414585Y446836D01*
D02*
G37*
G36*
X400585D02*
X398567D01*
Y444818D01*
X399293Y445119D01*
X400284Y446110D01*
X400585Y446836D01*
D02*
G37*
G36*
X410027D02*
X408008D01*
X408309Y446110D01*
X409300Y445119D01*
X410027Y444818D01*
Y446836D01*
D02*
G37*
G36*
X396027D02*
X394008D01*
X394309Y446110D01*
X395300Y445119D01*
X396027Y444818D01*
Y446836D01*
D02*
G37*
G36*
X69455Y446959D02*
X63994D01*
Y441064D01*
X64492Y441130D01*
X66140Y441812D01*
X67555Y442898D01*
X68641Y444313D01*
X69323Y445961D01*
X69455Y446959D01*
D02*
G37*
G36*
X61454D02*
X55993D01*
X56124Y445961D01*
X56807Y444313D01*
X57892Y442898D01*
X59308Y441812D01*
X60955Y441130D01*
X61454Y441064D01*
Y446959D01*
D02*
G37*
G36*
X34274Y434106D02*
X32794D01*
Y429999D01*
X39399D01*
X39242Y430787D01*
X38076Y432532D01*
X36332Y433697D01*
X34274Y434106D01*
D02*
G37*
G36*
X30254D02*
X28774D01*
X26716Y433697D01*
X24972Y432532D01*
X23806Y430787D01*
X23649Y429999D01*
X30254D01*
Y434106D01*
D02*
G37*
G36*
X39399Y427459D02*
X32794D01*
Y423352D01*
X34274D01*
X36332Y423761D01*
X38076Y424927D01*
X39242Y426671D01*
X39399Y427459D01*
D02*
G37*
G36*
X30254D02*
X23649D01*
X23806Y426671D01*
X24972Y424927D01*
X26716Y423761D01*
X28774Y423352D01*
X30254D01*
Y427459D01*
D02*
G37*
G36*
X595235Y425128D02*
X593376Y424358D01*
X591822Y422804D01*
X591052Y420945D01*
X595235D01*
Y425128D01*
D02*
G37*
G36*
X609952Y424816D02*
Y420633D01*
X614135D01*
X613365Y422492D01*
X611811Y424046D01*
X609952Y424816D01*
D02*
G37*
G36*
X595360Y407102D02*
X591177D01*
X591947Y405243D01*
X593501Y403689D01*
X595360Y402919D01*
Y407102D01*
D02*
G37*
G36*
X614135Y407039D02*
X609952D01*
Y402856D01*
X611811Y403626D01*
X613365Y405180D01*
X614135Y407039D01*
D02*
G37*
G36*
X597775Y425128D02*
Y419675D01*
X596505D01*
Y418405D01*
X591052D01*
X591822Y416546D01*
X593376Y414992D01*
X593785Y414822D01*
Y413173D01*
X593501Y413055D01*
X591947Y411501D01*
X591177Y409642D01*
X596630D01*
Y408372D01*
X597900D01*
Y402919D01*
X599759Y403689D01*
X601313Y405243D01*
X601818Y406463D01*
X603468D01*
X603999Y405180D01*
X605553Y403626D01*
X607412Y402856D01*
Y408309D01*
X608682D01*
Y409579D01*
X614135D01*
X613365Y411438D01*
X611811Y412992D01*
X611766Y413011D01*
Y414661D01*
X611811Y414679D01*
X613365Y416233D01*
X614135Y418092D01*
X608682D01*
Y419362D01*
X607412D01*
Y424816D01*
X605553Y424046D01*
X603999Y422492D01*
X603437Y421134D01*
X601833Y421246D01*
X601188Y422804D01*
X599634Y424358D01*
X597775Y425128D01*
D02*
G37*
G36*
X300980Y519963D02*
X298907D01*
X296904Y519426D01*
X295109Y518389D01*
X293643Y516923D01*
X292606Y515128D01*
X292069Y513125D01*
Y511052D01*
X292606Y509049D01*
X293643Y507254D01*
X295109Y505788D01*
X296904Y504751D01*
X298907Y504215D01*
X300980D01*
X302069Y504506D01*
X335175Y471400D01*
Y415725D01*
X333784Y414334D01*
X332747Y412539D01*
X332211Y410536D01*
Y408463D01*
X332747Y406460D01*
X333784Y404665D01*
X335250Y403199D01*
X337045Y402162D01*
X339048Y401625D01*
X341121D01*
X343124Y402162D01*
X344919Y403199D01*
X346385Y404665D01*
X347422Y406460D01*
X347959Y408463D01*
Y410536D01*
X347422Y412539D01*
X346385Y414334D01*
X344919Y415800D01*
X343381Y416688D01*
Y473100D01*
X343069Y474670D01*
X342179Y476001D01*
X307672Y510508D01*
X307817Y511052D01*
Y513125D01*
X307281Y515128D01*
X306244Y516923D01*
X304778Y518389D01*
X302983Y519426D01*
X300980Y519963D01*
D02*
G37*
G36*
X181325Y406311D02*
X176071D01*
Y399307D01*
X181325D01*
Y406311D01*
D02*
G37*
G36*
X173531D02*
X168277D01*
Y399307D01*
X173531D01*
Y406311D01*
D02*
G37*
G36*
X253191Y396116D02*
X246187D01*
Y390362D01*
X253191D01*
Y396116D01*
D02*
G37*
G36*
X243647D02*
X236643D01*
Y390362D01*
X243647D01*
Y396116D01*
D02*
G37*
G36*
X181325Y396767D02*
X176071D01*
Y389763D01*
X181325D01*
Y396767D01*
D02*
G37*
G36*
X173531D02*
X168277D01*
Y389763D01*
X173531D01*
Y396767D01*
D02*
G37*
G36*
X231010Y451685D02*
X218962D01*
Y440637D01*
X226481D01*
X228600Y438519D01*
Y413619D01*
X197261Y382280D01*
X157129D01*
X156412Y383522D01*
X154946Y384988D01*
X153150Y386024D01*
X151148Y386561D01*
X149074D01*
X147072Y386024D01*
X145276Y384988D01*
X143810Y383522D01*
X142774Y381726D01*
X142237Y379723D01*
Y377650D01*
X142774Y375648D01*
X143810Y373852D01*
X145276Y372386D01*
X147072Y371349D01*
X149074Y370813D01*
X151148D01*
X153150Y371349D01*
X154946Y372386D01*
X156412Y373852D01*
X157129Y375094D01*
X198749D01*
X200124Y375367D01*
X201290Y376146D01*
X232937Y407793D01*
X236643D01*
Y404362D01*
Y398656D01*
X244917D01*
X253191D01*
Y404362D01*
Y407793D01*
X263297D01*
X263535Y407555D01*
Y392505D01*
X263809Y391130D01*
X264587Y389964D01*
X287638Y366914D01*
X288803Y366135D01*
X290178Y365862D01*
X366455D01*
X367172Y364620D01*
X368638Y363154D01*
X370433Y362117D01*
X372436Y361581D01*
X374509D01*
X376512Y362117D01*
X378307Y363154D01*
X379773Y364620D01*
X380810Y366415D01*
X381347Y368418D01*
Y370491D01*
X380810Y372494D01*
X379773Y374289D01*
X378307Y375755D01*
X376512Y376792D01*
X374509Y377329D01*
X372436D01*
X370433Y376792D01*
X368638Y375755D01*
X367172Y374289D01*
X366455Y373048D01*
X291667D01*
X270721Y393993D01*
Y409043D01*
X270448Y410418D01*
X269669Y411584D01*
X267326Y413927D01*
X266160Y414706D01*
X264785Y414979D01*
X253191D01*
Y418410D01*
X236643D01*
Y414979D01*
X234297D01*
Y439698D01*
X234297Y439699D01*
X234080Y440789D01*
X233463Y441713D01*
X233463Y441713D01*
X231010Y444166D01*
Y451685D01*
D02*
G37*
G36*
X422946Y353723D02*
Y345474D01*
X431195D01*
X430550Y347880D01*
X429297Y350052D01*
X427523Y351825D01*
X425352Y353079D01*
X422946Y353723D01*
D02*
G37*
G36*
X420406D02*
X417999Y353079D01*
X415828Y351825D01*
X414054Y350052D01*
X412800Y347880D01*
X412156Y345474D01*
X420406D01*
Y353723D01*
D02*
G37*
G36*
X431195Y342934D02*
X422946D01*
Y334684D01*
X425352Y335329D01*
X427523Y336583D01*
X429297Y338356D01*
X430550Y340528D01*
X431195Y342934D01*
D02*
G37*
G36*
X420406D02*
X412156D01*
X412800Y340528D01*
X414054Y338356D01*
X415828Y336583D01*
X417999Y335329D01*
X420406Y334684D01*
Y342934D01*
D02*
G37*
G36*
X422929Y328328D02*
X420422D01*
X417999Y327679D01*
X415828Y326425D01*
X414054Y324652D01*
X412800Y322480D01*
X412151Y320058D01*
Y317550D01*
X412800Y315128D01*
X414054Y312956D01*
X415828Y311183D01*
X417999Y309929D01*
X420422Y309280D01*
X422929D01*
X425352Y309929D01*
X427523Y311183D01*
X429297Y312956D01*
X430550Y315128D01*
X431199Y317550D01*
Y320058D01*
X430550Y322480D01*
X429297Y324652D01*
X427523Y326425D01*
X425352Y327679D01*
X422929Y328328D01*
D02*
G37*
G36*
X143400Y276687D02*
Y270145D01*
X149942D01*
X149467Y271915D01*
X148431Y273710D01*
X146965Y275176D01*
X145169Y276213D01*
X143400Y276687D01*
D02*
G37*
G36*
X140860D02*
X139091Y276213D01*
X137295Y275176D01*
X135829Y273710D01*
X134793Y271915D01*
X134319Y270145D01*
X140860D01*
Y276687D01*
D02*
G37*
G36*
X149942Y267605D02*
X143400D01*
Y261064D01*
X145169Y261538D01*
X146965Y262575D01*
X148431Y264041D01*
X149467Y265836D01*
X149942Y267605D01*
D02*
G37*
G36*
X140860D02*
X134319D01*
X134793Y265836D01*
X135829Y264041D01*
X137295Y262575D01*
X139091Y261538D01*
X140860Y261064D01*
Y267605D01*
D02*
G37*
G36*
X149518Y166159D02*
Y159618D01*
X156059D01*
X155585Y161387D01*
X154549Y163183D01*
X153083Y164649D01*
X151287Y165685D01*
X149518Y166159D01*
D02*
G37*
G36*
X146978D02*
X145209Y165685D01*
X143413Y164649D01*
X141947Y163183D01*
X140910Y161387D01*
X140436Y159618D01*
X146978D01*
Y166159D01*
D02*
G37*
G36*
X156059Y157078D02*
X149518D01*
Y150537D01*
X151287Y151011D01*
X153083Y152047D01*
X154549Y153513D01*
X155585Y155309D01*
X156059Y157078D01*
D02*
G37*
G36*
X146978D02*
X140436D01*
X140910Y155309D01*
X141947Y153513D01*
X143413Y152047D01*
X145209Y151011D01*
X146978Y150537D01*
Y157078D01*
D02*
G37*
G36*
X529827Y542027D02*
X527753D01*
X525751Y541490D01*
X523955Y540454D01*
X522489Y538988D01*
X521453Y537192D01*
X520916Y535190D01*
Y533116D01*
X521453Y531114D01*
X522489Y529318D01*
X523955Y527852D01*
X524687Y527430D01*
Y177487D01*
X465688Y118488D01*
X456443D01*
Y100940D01*
X471491D01*
Y112685D01*
X531691Y172886D01*
X532580Y174217D01*
X532893Y175787D01*
Y527430D01*
X533625Y527852D01*
X535091Y529318D01*
X536127Y531114D01*
X536664Y533116D01*
Y535190D01*
X536127Y537192D01*
X535091Y538988D01*
X533625Y540454D01*
X531829Y541490D01*
X529827Y542027D01*
D02*
G37*
G36*
X391967Y107143D02*
X383968D01*
X381812Y106715D01*
X379985Y105494D01*
X378764Y103666D01*
X378335Y101511D01*
Y93511D01*
X378764Y91356D01*
X379985Y89529D01*
X381812Y88308D01*
X383968Y87879D01*
X391967D01*
X394123Y88308D01*
X395950Y89529D01*
X397171Y91356D01*
X397600Y93511D01*
Y101511D01*
X397171Y103666D01*
X395950Y105494D01*
X394123Y106715D01*
X391967Y107143D01*
D02*
G37*
G36*
X491508Y90344D02*
X487254D01*
Y85590D01*
X491508D01*
Y90344D01*
D02*
G37*
G36*
X484714D02*
X480460D01*
Y85590D01*
X484714D01*
Y90344D01*
D02*
G37*
G36*
X538816Y126319D02*
X536041D01*
X533360Y125601D01*
X530956Y124213D01*
X528993Y122251D01*
X527606Y119847D01*
X526887Y117166D01*
Y114390D01*
X527606Y111710D01*
X528534Y110101D01*
X516087Y97655D01*
X508805D01*
Y85507D01*
X524053D01*
Y89690D01*
X538446Y104083D01*
X539305Y105368D01*
X541497Y105956D01*
X543901Y107343D01*
X545863Y109306D01*
X547251Y111710D01*
X547969Y114390D01*
Y117166D01*
X547251Y119847D01*
X545863Y122251D01*
X543901Y124213D01*
X541497Y125601D01*
X538816Y126319D01*
D02*
G37*
G36*
X491508Y83050D02*
X487254D01*
Y78296D01*
X491508D01*
Y83050D01*
D02*
G37*
G36*
X484714D02*
X480460D01*
Y78296D01*
X484714D01*
Y83050D01*
D02*
G37*
G36*
X451490Y118488D02*
X436442D01*
Y100940D01*
X440302D01*
Y92406D01*
X435881D01*
Y78358D01*
X452929D01*
Y81279D01*
X461460D01*
Y78296D01*
X472509D01*
Y90344D01*
X461460D01*
Y89485D01*
X452929D01*
Y92406D01*
X448508D01*
Y100940D01*
X451490D01*
Y118488D01*
D02*
G37*
G36*
X389237Y81631D02*
Y73381D01*
X397487D01*
X396842Y75787D01*
X395588Y77959D01*
X393815Y79732D01*
X391644Y80986D01*
X389237Y81631D01*
D02*
G37*
G36*
X386697D02*
X384291Y80986D01*
X382120Y79732D01*
X380346Y77959D01*
X379092Y75787D01*
X378448Y73381D01*
X386697D01*
Y81631D01*
D02*
G37*
G36*
X452929Y74906D02*
X445675D01*
Y69152D01*
X452929D01*
Y74906D01*
D02*
G37*
G36*
X443135D02*
X435881D01*
Y69152D01*
X443135D01*
Y74906D01*
D02*
G37*
G36*
X397487Y70841D02*
X389237D01*
Y62592D01*
X391644Y63236D01*
X393815Y64490D01*
X395588Y66263D01*
X396842Y68435D01*
X397487Y70841D01*
D02*
G37*
G36*
X386697D02*
X378448D01*
X379092Y68435D01*
X380346Y66263D01*
X382120Y64490D01*
X384291Y63236D01*
X386697Y62592D01*
Y70841D01*
D02*
G37*
G36*
X452929Y66612D02*
X445675D01*
Y60858D01*
X452929D01*
Y66612D01*
D02*
G37*
G36*
X443135D02*
X435881D01*
Y60858D01*
X443135D01*
Y66612D01*
D02*
G37*
%LPD*%
G36*
X184331Y785856D02*
X181150D01*
Y768308D01*
X181150D01*
X181620Y767175D01*
X179711Y765267D01*
X178933Y764101D01*
X178659Y762726D01*
Y755350D01*
X175279Y751970D01*
X144870D01*
X143772Y752998D01*
Y771246D01*
X142841D01*
Y772995D01*
X145335Y775489D01*
X162651D01*
Y768308D01*
X166182D01*
Y763756D01*
X165441Y763016D01*
X164600Y760985D01*
Y758788D01*
X165441Y756757D01*
X166995Y755203D01*
X169025Y754362D01*
X171223D01*
X173253Y755203D01*
X174807Y756757D01*
X175648Y758788D01*
Y760985D01*
X174807Y763016D01*
X173368Y764455D01*
Y768308D01*
X176199D01*
Y785856D01*
X173018D01*
Y789179D01*
X184331D01*
Y785856D01*
D02*
G37*
G36*
X151242Y737449D02*
X150373Y737089D01*
X148819Y735536D01*
X147978Y733505D01*
Y731308D01*
X148554Y729917D01*
X147713Y728393D01*
X145399D01*
Y714491D01*
X143991Y713907D01*
X138469Y719429D01*
Y728617D01*
X133288D01*
Y731543D01*
X133015Y732918D01*
X132236Y734083D01*
X129893Y736427D01*
X128727Y737205D01*
X127500Y737449D01*
X127650Y738973D01*
X150939D01*
X151242Y737449D01*
D02*
G37*
G36*
X214805Y511888D02*
X214818Y511852D01*
X214558Y510030D01*
X214387Y509916D01*
X214387Y509916D01*
X190510Y486038D01*
X189892Y485114D01*
X189675Y484024D01*
X189675Y484023D01*
Y471780D01*
X189274D01*
X188289Y471584D01*
X187454Y471026D01*
X186972Y470305D01*
X186862Y470292D01*
X185448Y471225D01*
Y471381D01*
X185292D01*
X184359Y472794D01*
X184372Y472905D01*
X185093Y473387D01*
X185651Y474222D01*
X185847Y475206D01*
Y477279D01*
X185906Y477366D01*
X186122Y478456D01*
Y502318D01*
X186122Y502318D01*
X185906Y503409D01*
X185288Y504333D01*
X185288Y504333D01*
X179107Y510514D01*
X179690Y511922D01*
X186632D01*
Y508182D01*
X204242D01*
Y512498D01*
X214226D01*
X214805Y511888D01*
D02*
G37*
G36*
X297421Y559003D02*
Y537433D01*
X294020Y534032D01*
X293021Y533364D01*
X292353Y532365D01*
X251880Y491892D01*
X251174Y492184D01*
Y492184D01*
X239126D01*
Y481533D01*
X239126Y481137D01*
X238168Y480009D01*
X231174D01*
Y482684D01*
X219395D01*
X219126Y482684D01*
X217871Y483335D01*
Y490581D01*
X222419D01*
X222420Y490581D01*
X222695Y490636D01*
X231174D01*
Y501684D01*
X219126D01*
Y496279D01*
X216510D01*
X215420Y496062D01*
X214496Y495444D01*
X214496Y495444D01*
X213008Y493956D01*
X212390Y493032D01*
X212174Y491942D01*
X212174Y491942D01*
Y491445D01*
X210650Y490814D01*
X210127Y491337D01*
X208097Y492178D01*
X206862D01*
X206231Y493702D01*
X217582Y505052D01*
X247653D01*
X247653Y505052D01*
X248744Y505269D01*
X249668Y505887D01*
X251156Y507375D01*
X251156Y507375D01*
X251773Y508299D01*
X251990Y509389D01*
Y528209D01*
X255665D01*
Y544757D01*
X246646D01*
X225947Y565457D01*
X225023Y566074D01*
X223932Y566291D01*
X223932Y566291D01*
X151401D01*
X151098Y567815D01*
X152665Y568464D01*
X154219Y570018D01*
X154335Y570299D01*
X286125D01*
X297421Y559003D01*
D02*
G37*
%LPC*%
G36*
X286505Y554812D02*
Y548270D01*
X293046D01*
X292572Y550039D01*
X291535Y551835D01*
X290069Y553301D01*
X288274Y554338D01*
X286505Y554812D01*
D02*
G37*
G36*
X283965D02*
X282195Y554338D01*
X280400Y553301D01*
X278934Y551835D01*
X277897Y550039D01*
X277423Y548270D01*
X283965D01*
Y554812D01*
D02*
G37*
G36*
X293046Y545730D02*
X286505D01*
Y539189D01*
X288274Y539663D01*
X290069Y540700D01*
X291535Y542165D01*
X292572Y543961D01*
X293046Y545730D01*
D02*
G37*
G36*
X283965D02*
X277423D01*
X277897Y543961D01*
X278934Y542165D01*
X280400Y540700D01*
X282195Y539663D01*
X283965Y539189D01*
Y545730D01*
D02*
G37*
G36*
X273665Y544757D02*
X268411D01*
Y537753D01*
X273665D01*
Y544757D01*
D02*
G37*
G36*
X265871D02*
X260617D01*
Y537753D01*
X265871D01*
Y544757D01*
D02*
G37*
G36*
X273665Y535214D02*
X268411D01*
Y528209D01*
X273665D01*
Y535214D01*
D02*
G37*
G36*
X265871D02*
X260617D01*
Y528209D01*
X265871D01*
Y535214D01*
D02*
G37*
%LPD*%
D10*
X173274Y478456D02*
Y492953D01*
X168293Y481725D02*
Y490806D01*
X168274Y481706D02*
X168293Y481725D01*
X168234Y490865D02*
Y492954D01*
X167984Y493204D02*
X168234Y492954D01*
Y490865D02*
X168293Y490806D01*
D12*
X173274Y492953D02*
Y496028D01*
X172759Y496542D02*
X173274Y496028D01*
X167984Y493204D02*
Y493837D01*
X161140Y500681D02*
X167984Y493837D01*
D14*
X170308Y516535D02*
X174538Y512305D01*
Y511055D02*
Y512305D01*
Y511055D02*
X183274Y502318D01*
Y478456D02*
Y502318D01*
X126576Y749836D02*
Y749893D01*
Y749836D02*
X128036Y748376D01*
X112926Y744708D02*
X114414Y746196D01*
X30623Y729990D02*
X52239D01*
X30002Y730611D02*
X30623Y729990D01*
X254458Y805038D02*
Y807142D01*
X160082Y552749D02*
X208242D01*
X144003Y536670D02*
X160082Y552749D01*
X206998Y473628D02*
Y486654D01*
X197766Y464397D02*
X206998Y473628D01*
X195504Y464397D02*
X197766D01*
X215022Y466894D02*
Y491942D01*
Y466894D02*
X217472Y464445D01*
X216510Y493430D02*
X222420D01*
X215022Y491942D02*
X216510Y493430D01*
X217472Y464445D02*
X288790D01*
X210414Y417422D02*
Y451889D01*
X192524Y454207D02*
X208097D01*
X210414Y451889D01*
X142753Y536670D02*
X144003D01*
X149536Y573147D02*
X287305D01*
X300269Y560183D01*
X124409Y563442D02*
X223932D01*
X249141Y538233D01*
X119195Y558228D02*
X124409Y563442D01*
X119195Y542828D02*
Y558228D01*
X479707Y519945D02*
X503833Y544072D01*
X392157Y637131D02*
X502345D01*
X503833Y635643D01*
Y544072D02*
Y635643D01*
X307490Y721797D02*
X392157Y637131D01*
X180298Y721797D02*
X307490D01*
X251972Y487955D02*
X295201Y531184D01*
X300269Y536253D01*
X245150Y486660D02*
X246444Y487955D01*
X251972D01*
X300269Y536253D02*
Y560183D01*
X290521Y452651D02*
X304628D01*
X290277Y452407D02*
X290521Y452651D01*
X312712Y445356D02*
Y467681D01*
X303765Y476628D02*
X312712Y467681D01*
X304018Y436661D02*
X312712Y445356D01*
X253291Y436661D02*
X304018D01*
X117468Y476023D02*
X118512Y474978D01*
X89132Y839870D02*
X90806D01*
X86152Y836890D02*
X89132Y839870D01*
X56950Y784613D02*
X58556Y786218D01*
Y787718D01*
X66520Y579220D02*
X71101Y583801D01*
X37719Y634164D02*
X38745Y635190D01*
Y653374D01*
X66520Y588382D02*
Y592660D01*
X42449Y609434D02*
X49746D01*
X37719Y614164D02*
X42449Y609434D01*
X66520Y588382D02*
X71101Y583801D01*
X49746Y609434D02*
X66520Y592660D01*
X79983Y514941D02*
X81014Y513910D01*
X30257Y553812D02*
X34332D01*
X95169Y513910D02*
X96642Y515383D01*
X127446Y483074D02*
Y485353D01*
X126402Y486398D02*
X127446Y485353D01*
X141314Y469207D02*
X144024D01*
X127446Y483074D02*
X141314Y469207D01*
X142753Y516670D02*
X142887Y516535D01*
X169058D01*
X114143Y537775D02*
X119195Y542828D01*
X249141Y536483D02*
Y538233D01*
X123616Y474978D02*
X134932Y463662D01*
X138782Y459397D02*
X143834D01*
X134932Y463246D02*
Y463662D01*
X143834Y459397D02*
X144024Y459207D01*
X136522Y454472D02*
X136707Y454287D01*
X134932Y463246D02*
X138782Y459397D01*
X136707Y454287D02*
X140802D01*
X118512Y474978D02*
X123616D01*
X133078Y454472D02*
X136522D01*
X127122Y460427D02*
X133078Y454472D01*
X247653Y507901D02*
X249141Y509389D01*
X216402Y507901D02*
X247653D01*
X249141Y509389D02*
Y536483D01*
X192524Y484024D02*
X216402Y507901D01*
X192524Y469207D02*
Y484024D01*
X222420Y493430D02*
X225150Y496160D01*
X125476Y441382D02*
X133300Y449207D01*
X125476Y429592D02*
Y441382D01*
X133300Y449207D02*
X144024D01*
X129099Y425374D02*
Y425968D01*
X125476Y429592D02*
X129099Y425968D01*
X253291Y436661D02*
X261354Y428598D01*
X244986Y436661D02*
X253291D01*
X231448Y411386D02*
Y439699D01*
X228216Y442931D02*
Y443431D01*
X225486Y446161D02*
X228216Y443431D01*
Y442931D02*
X231448Y439699D01*
X126548Y800535D02*
X127077Y800006D01*
X191961Y397219D02*
Y398969D01*
X210414Y417422D01*
X224986Y446161D02*
X225486D01*
X66838Y830355D02*
Y831855D01*
Y830355D02*
X71017Y826175D01*
X66787Y831905D02*
X66838Y831855D01*
X71017Y826175D02*
X72517D01*
X92151Y855024D02*
X112778D01*
X90806Y856369D02*
X92151Y855024D01*
X112778Y841024D02*
X114528Y842773D01*
X90806Y856369D02*
X92525Y858089D01*
X95169D01*
X197993Y884499D02*
X199084D01*
X169058Y516535D02*
X170308D01*
X225150Y477160D02*
X271811D01*
X272003Y477353D01*
X290277Y452407D02*
Y462957D01*
X288790Y464445D02*
X290277Y462957D01*
X290229Y476628D02*
X303765D01*
X289504Y477353D02*
X290229Y476628D01*
X244986Y455661D02*
X268073D01*
X272052Y451682D01*
X166309Y773966D02*
X169425Y777082D01*
X76056Y763601D02*
X76263Y763393D01*
X80493Y759163D01*
X105784Y704711D02*
X128327D01*
X129695Y703343D01*
X104184Y719111D02*
X105784Y720711D01*
X85002Y719111D02*
X104184D01*
X187035Y776193D02*
X187924Y777082D01*
X129695Y721843D02*
X131695D01*
X169425Y777082D02*
Y779082D01*
Y796800D02*
X170577Y797953D01*
X186577D02*
X187924Y796605D01*
X154173Y704369D02*
X155244Y703298D01*
X161756Y816922D02*
X161800Y816878D01*
X162700Y815978D01*
X479214Y61090D02*
X479367D01*
X479367Y61090D01*
X476484Y63820D02*
X479214Y61090D01*
X463967Y109714D02*
Y110964D01*
X444249Y869199D02*
Y870449D01*
X178274Y478456D02*
X183274D01*
X541859Y800750D02*
Y801180D01*
X519589Y821900D02*
X521138D01*
X541859Y875320D02*
Y875750D01*
X519589Y854600D02*
X521138D01*
X459519Y865719D02*
X464249Y870449D01*
X444467Y843836D02*
X445967D01*
X471767Y824544D02*
X472267D01*
X444467Y843836D02*
X448697Y839606D01*
X531639Y667483D02*
X531655Y667498D01*
X518038Y821900D02*
X519589D01*
X337677Y787460D02*
Y788230D01*
X316660Y788331D02*
X316761Y788230D01*
X384177Y715559D02*
X389222Y710515D01*
X294856Y786026D02*
X297160Y788331D01*
X640445Y874262D02*
X641933Y875750D01*
X791859D02*
X793929Y873680D01*
X443966Y109714D02*
X444405Y109275D01*
X465922Y85382D02*
X466984Y84320D01*
X534464Y108066D02*
Y112814D01*
X516429Y91581D02*
X517979D01*
X534464Y112814D02*
X537428Y115778D01*
X536081Y40779D02*
X537428D01*
X516429Y58881D02*
X517979D01*
X476484Y63820D02*
Y64320D01*
D19*
X187924Y777082D02*
D03*
X169425D02*
D03*
D20*
X55372Y583801D02*
D03*
X71101D02*
D03*
D22*
X161800Y830879D02*
D03*
Y816878D02*
D03*
X112778Y841024D02*
D03*
Y855024D02*
D03*
X169058Y530535D02*
D03*
Y516535D02*
D03*
X244917Y397386D02*
D03*
Y411386D02*
D03*
D26*
X102012Y539645D02*
D03*
X116012D02*
D03*
D34*
X444467Y826336D02*
D03*
Y843836D02*
D03*
X133394Y842773D02*
D03*
Y860273D02*
D03*
X444405Y85382D02*
D03*
Y67882D02*
D03*
D35*
X37719Y614164D02*
D03*
Y634164D02*
D03*
X142753Y536670D02*
D03*
Y516670D02*
D03*
D42*
X289504Y477353D02*
D03*
X272003D02*
D03*
X289552Y451682D02*
D03*
X272052D02*
D03*
X58763Y763393D02*
D03*
X76263D02*
D03*
X49287Y831905D02*
D03*
X66787D02*
D03*
X49338Y808966D02*
D03*
X66838D02*
D03*
X58556Y786218D02*
D03*
X76056D02*
D03*
D69*
X537428Y40779D02*
D03*
X687428D02*
D03*
X737428D02*
D03*
X787428D02*
D03*
Y115778D02*
D03*
X737428D02*
D03*
X687428D02*
D03*
X537428D02*
D03*
X541859Y800750D02*
D03*
X691858D02*
D03*
X741859D02*
D03*
X791859D02*
D03*
Y875750D02*
D03*
X741859D02*
D03*
X691858D02*
D03*
X541859D02*
D03*
D80*
X172759Y496542D02*
Y501788D01*
X171803Y502744D02*
X172759Y501788D01*
X295201Y531184D02*
X441926D01*
X73204Y514941D02*
X79983D01*
X34332Y553812D02*
X73204Y514941D01*
X131695Y721843D02*
X144670Y708869D01*
X149673D01*
D81*
X166309Y773966D02*
X167640D01*
X169774Y760236D02*
Y771832D01*
X167640Y773966D02*
X169774Y771832D01*
Y760236D02*
X170124Y759886D01*
X118043Y742567D02*
X184153D01*
X153502Y722468D02*
Y732406D01*
X114414Y746196D02*
X118043Y742567D01*
X126548Y749921D02*
X126576Y749893D01*
X126548Y749921D02*
Y762122D01*
X184153Y742567D02*
X199084Y757498D01*
X154173Y720369D02*
Y721797D01*
X153502Y722468D02*
X154173Y721797D01*
X127352Y733886D02*
X129695Y731543D01*
Y721843D02*
Y731543D01*
X120114Y733886D02*
X127352D01*
X113848Y762122D02*
X114414Y761556D01*
Y746196D02*
Y761556D01*
X90441Y744708D02*
X112926D01*
X85821D02*
X85951Y744839D01*
X90310D02*
X90441Y744708D01*
X80493Y750036D02*
X85821Y744708D01*
X85951Y744839D02*
X90310D01*
X106671Y796123D02*
X113848Y803299D01*
Y816922D01*
X198860Y862739D02*
X254458Y807142D01*
X176767Y748376D02*
X182252Y753861D01*
X128036Y748376D02*
X176767D01*
X80493Y750036D02*
Y759163D01*
X138234Y891978D02*
X190513D01*
X112778Y866522D02*
X138234Y891978D01*
X112778Y855024D02*
Y866522D01*
X86152Y826475D02*
Y836890D01*
X81770Y816922D02*
X101148D01*
X72517Y826175D02*
X81770Y816922D01*
X49338Y796937D02*
X58556Y787718D01*
X49338Y796937D02*
Y808966D01*
X209445Y797953D02*
X224039Y783359D01*
X254458Y788953D02*
Y805038D01*
X224039Y783359D02*
X248864D01*
X254458Y788953D01*
X81014Y513910D02*
X95169D01*
X114143Y515383D02*
Y537775D01*
X198749Y378687D02*
X231448Y411386D01*
X243667D02*
X245324D01*
X126548Y800535D02*
Y816922D01*
X244917Y411386D02*
X264785D01*
X231448D02*
X238276D01*
X243667D01*
X150111Y378687D02*
X198749D01*
X267128Y392505D02*
X290178Y369455D01*
X373473D01*
X264785Y411386D02*
X267128Y409043D01*
Y392505D02*
Y409043D01*
X143846Y779082D02*
X169425D01*
X139248Y774483D02*
X143846Y779082D01*
X66838Y808966D02*
Y830355D01*
X114528Y842773D02*
X133394D01*
X190513Y891978D02*
X197993Y884499D01*
X132184Y862739D02*
X198860D01*
X186577Y797953D02*
X209445D01*
X182252Y753861D02*
Y762726D01*
X187035Y767510D01*
X76056Y763601D02*
Y786218D01*
X155602Y721797D02*
X180298D01*
X149673Y708869D02*
X154173Y704369D01*
X139248Y762122D02*
Y774483D01*
X187035Y767510D02*
Y776193D01*
X169425Y779082D02*
Y796800D01*
X187924Y777082D02*
Y796605D01*
X155244Y703298D02*
X180298D01*
X459519Y857388D02*
Y865719D01*
X445967Y843836D02*
X459519Y857388D01*
X456705Y839606D02*
X471767Y824544D01*
X448697Y839606D02*
X456705D01*
D82*
X818711Y96451D02*
Y526467D01*
X814025Y91764D02*
X818711Y96451D01*
X404116Y616248D02*
X467655Y552709D01*
Y317304D02*
Y552709D01*
X443755Y293404D02*
X467655Y317304D01*
X479367Y61090D02*
X509642D01*
X515879Y59431D02*
X516429Y58881D01*
X509642Y61090D02*
X511301Y59431D01*
X515879D01*
X421675Y293404D02*
X443755D01*
X531655Y667498D02*
Y690998D01*
X517475D02*
X531655D01*
X499996Y696384D02*
X512089D01*
X517475Y690998D01*
X641082Y43507D02*
Y43681D01*
Y43323D02*
Y43507D01*
X722306Y91764D02*
X814025D01*
X617026Y19267D02*
X641082Y43323D01*
X177602Y19267D02*
X617026D01*
X128576Y68293D02*
X177602Y19267D01*
X517979Y91581D02*
X534464Y108066D01*
X517979Y58881D02*
X536081Y40779D01*
D84*
X71101Y583801D02*
X371669D01*
X404116Y616248D01*
X196031Y516002D02*
X196630Y516601D01*
X218662Y519134D02*
X220016D01*
X300116Y512262D02*
X339278Y473100D01*
Y409499D02*
Y473100D01*
X559409Y534015D02*
Y596983D01*
X424901Y731490D02*
Y849852D01*
Y731490D02*
X559409Y596983D01*
X229887Y799333D02*
Y801101D01*
X215010Y815978D02*
X229887Y801101D01*
X41316Y784613D02*
X56950D01*
X14321Y796496D02*
X29432D01*
X41316Y784613D01*
X71101Y569649D02*
Y583801D01*
X68846Y554524D02*
Y567394D01*
X71101Y569649D01*
X196630Y516601D02*
X216129D01*
X218662Y519134D01*
X139248Y816922D02*
X161756D01*
X162700Y815978D02*
X215010D01*
X463967Y110964D02*
X528790Y175787D01*
Y534153D01*
X424901Y849852D02*
X444249Y869199D01*
X557654Y690998D02*
X606804D01*
X623392Y707586D01*
X316761Y788230D02*
X337677D01*
X444405Y85382D02*
Y109275D01*
Y85382D02*
X465922D01*
D85*
X170308Y516535D02*
X195437D01*
X68133Y553812D02*
X68846Y554524D01*
X64265Y553812D02*
X68133D01*
X521138Y821900D02*
X541859Y801180D01*
X521138Y854600D02*
X541859Y875320D01*
X492267Y834044D02*
X505895D01*
X518038Y821900D01*
X294856Y755184D02*
Y786026D01*
D86*
X103176Y68293D02*
X128576D01*
D89*
X752418Y751068D02*
X766498Y765147D01*
X808510Y526467D02*
X818711D01*
X761801Y63171D02*
X765483Y66853D01*
X793929Y862923D02*
Y873680D01*
D91*
X589620Y721784D02*
X668586Y800750D01*
X691858D01*
X499996Y721784D02*
X589620D01*
X641933Y875750D02*
X691858D01*
X640445Y829432D02*
Y874262D01*
X558197Y747184D02*
X640445Y829432D01*
X499996Y747184D02*
X558197D01*
D93*
X199084Y884499D02*
D03*
X299084D02*
D03*
X199084Y757498D02*
D03*
D94*
X299084D02*
D03*
D95*
X418297Y469107D02*
D03*
Y455106D02*
D03*
X404297Y469107D02*
D03*
Y455106D02*
D03*
X390297Y469107D02*
D03*
Y455106D02*
D03*
X411297Y476106D02*
D03*
Y462106D02*
D03*
Y448106D02*
D03*
X397297Y476106D02*
D03*
Y448106D02*
D03*
Y462106D02*
D03*
D96*
X387967Y72111D02*
D03*
X429516Y616248D02*
D03*
X454916D02*
D03*
X480316D02*
D03*
X421675Y344204D02*
D03*
Y318804D02*
D03*
X389222Y862915D02*
D03*
Y837515D02*
D03*
Y786715D02*
D03*
Y735915D02*
D03*
Y761315D02*
D03*
Y812115D02*
D03*
X499996Y721784D02*
D03*
Y696384D02*
D03*
X255576Y68293D02*
D03*
X230176D02*
D03*
X179376D02*
D03*
X128576D02*
D03*
X153976D02*
D03*
X204776D02*
D03*
D97*
X387967Y97511D02*
D03*
X421675Y293404D02*
D03*
X389222Y710515D02*
D03*
X499996Y747184D02*
D03*
D98*
X404116Y616248D02*
D03*
X103176Y68293D02*
D03*
D99*
X62724Y492729D02*
D03*
Y448229D02*
D03*
D100*
X31524Y512230D02*
D03*
Y428729D02*
D03*
D101*
X847714Y434079D02*
D03*
Y399079D02*
D03*
X846768Y596467D02*
D03*
Y561467D02*
D03*
D102*
X847714Y364079D02*
D03*
X846768Y526467D02*
D03*
D103*
X31026Y890192D02*
D03*
X890392Y889500D02*
D03*
X891369Y31570D02*
D03*
X31609Y33036D02*
D03*
D104*
X270651Y850007D02*
D03*
X252223Y849568D02*
D03*
X148248Y158348D02*
D03*
X142130Y268876D02*
D03*
X52239Y729990D02*
D03*
X285235Y547000D02*
D03*
X229887Y799333D02*
D03*
X80879Y513775D02*
D03*
X14321Y796496D02*
D03*
X219339Y519134D02*
D03*
X340085Y409499D02*
D03*
X299943Y512089D02*
D03*
X126597Y797368D02*
D03*
X150111Y378687D02*
D03*
X373473Y369455D02*
D03*
X559409Y534015D02*
D03*
X528790Y534153D02*
D03*
X623392Y707586D02*
D03*
X337677Y788230D02*
D03*
X722306Y91764D02*
D03*
X641082Y43507D02*
D03*
D105*
X171803Y502744D02*
D03*
X161140Y500681D02*
D03*
X181652Y830651D02*
D03*
X28222Y824687D02*
D03*
X95377Y782083D02*
D03*
X117715Y782242D02*
D03*
X170124Y759886D02*
D03*
X153502Y732406D02*
D03*
X120114Y733886D02*
D03*
X608682Y408309D02*
D03*
X596630Y408372D02*
D03*
X608682Y419362D02*
D03*
X596505Y419675D02*
D03*
X105528Y793074D02*
D03*
X206998Y486654D02*
D03*
X208242Y552749D02*
D03*
X149536Y573147D02*
D03*
X86716Y745604D02*
D03*
X479707Y519945D02*
D03*
X441926Y531184D02*
D03*
X304628Y452651D02*
D03*
X117468Y476023D02*
D03*
X86152Y826475D02*
D03*
X38745Y653374D02*
D03*
X126402Y486398D02*
D03*
X127122Y460427D02*
D03*
X129099Y425374D02*
D03*
X261476Y425922D02*
D03*
D106*
X179274Y443207D02*
D03*
Y454207D02*
D03*
Y465207D02*
D03*
X168274Y443207D02*
D03*
Y454207D02*
D03*
Y465207D02*
D03*
X157274Y443207D02*
D03*
Y454207D02*
D03*
Y465207D02*
D03*
D107*
X129695Y703343D02*
D03*
Y721843D02*
D03*
X180298Y703298D02*
D03*
Y721797D02*
D03*
D108*
X101148Y816922D02*
D03*
X113848D02*
D03*
X126548D02*
D03*
X139248D02*
D03*
X101148Y762122D02*
D03*
X113848D02*
D03*
X126548D02*
D03*
X139248D02*
D03*
D109*
X249141Y536483D02*
D03*
X267141D02*
D03*
X174801Y398037D02*
D03*
X192801D02*
D03*
D110*
X90806Y839870D02*
D03*
Y856369D02*
D03*
D111*
X168274Y454207D02*
D03*
D112*
X144024Y469207D02*
D03*
Y464207D02*
D03*
Y459207D02*
D03*
Y454207D02*
D03*
Y449207D02*
D03*
Y444207D02*
D03*
Y439207D02*
D03*
X192524D02*
D03*
Y444207D02*
D03*
Y449207D02*
D03*
Y454207D02*
D03*
Y459207D02*
D03*
Y464207D02*
D03*
Y469207D02*
D03*
D113*
X153274Y429957D02*
D03*
X158274D02*
D03*
X163274D02*
D03*
X168274D02*
D03*
X173274D02*
D03*
X178274D02*
D03*
X183274D02*
D03*
Y478456D02*
D03*
X178274D02*
D03*
X173274D02*
D03*
X168274D02*
D03*
X163274D02*
D03*
X158274D02*
D03*
X153274D02*
D03*
D114*
X472267Y824544D02*
D03*
Y843544D02*
D03*
X492267Y834044D02*
D03*
X244986Y455661D02*
D03*
Y436661D02*
D03*
X224986Y446161D02*
D03*
X225150Y477160D02*
D03*
Y496160D02*
D03*
X245150Y486660D02*
D03*
D115*
X516429Y91581D02*
D03*
Y58881D02*
D03*
X519589Y821900D02*
D03*
Y854600D02*
D03*
D116*
X105784Y704711D02*
D03*
Y720711D02*
D03*
X154173Y704369D02*
D03*
Y720369D02*
D03*
D117*
X170577Y797953D02*
D03*
X186577D02*
D03*
D118*
X557654Y690998D02*
D03*
X531655D02*
D03*
X557640Y667483D02*
D03*
X531639D02*
D03*
D119*
X316660Y788331D02*
D03*
X297160D02*
D03*
D120*
X114143Y515383D02*
D03*
X96642D02*
D03*
D121*
X30002Y707611D02*
D03*
Y730611D02*
D03*
D122*
X85002Y719111D02*
D03*
D123*
X464249Y870449D02*
D03*
X444249D02*
D03*
X463967Y109714D02*
D03*
X443966D02*
D03*
D124*
X195437Y516597D02*
D03*
Y531878D02*
D03*
D125*
X64265Y553812D02*
D03*
D126*
X30257D02*
D03*
D127*
X476484Y64320D02*
D03*
X485984Y84320D02*
D03*
X466984D02*
D03*
D128*
X712117Y218110D02*
Y771008D01*
X752418Y180768D02*
Y751068D01*
X712117Y771008D02*
X741859Y800750D01*
X655259Y161252D02*
X712117Y218110D01*
X687428Y115778D02*
X752418Y180768D01*
X655259Y72948D02*
X687428Y40779D01*
X655259Y72948D02*
Y161252D01*
X766498Y765147D02*
Y851111D01*
X741859Y875750D02*
X766498Y851111D01*
X788759Y614014D02*
X847619Y672874D01*
X788759Y546218D02*
Y614014D01*
Y546218D02*
X808510Y526467D01*
X847619Y672874D02*
Y809232D01*
X818711Y526467D02*
X846768D01*
X845367Y66853D02*
X895814Y117301D01*
X765483Y66853D02*
X845367D01*
X737428Y40779D02*
X759820Y63171D01*
X761801D01*
X895814Y117301D02*
Y432591D01*
X793929Y862923D02*
X847619Y809232D01*
X847714Y434079D02*
X894326D01*
M02*
